<?xml version="1.0" standalone="no"?>
<!DOCTYPE svg PUBLIC "-//W3C//DTD SVG 1.1//EN" "http://www.w3.org/Graphics/SVG/1.1/DTD/svg11.dtd" >
<svg>
<metadata>
Created by FontForge 20090914 at Thu Jun 22 09:48:12 2017
 By www-data
Copyright (c) ParaType, 1999. All rights reserved.
</metadata>
<defs>
<font id="DINCondensedC" horiz-adv-x="410" >
  <font-face 
    font-family="DINCondensedC"
    font-weight="400"
    font-stretch="normal"
    units-per-em="1000"
    panose-1="2 0 5 6 2 0 0 2 0 4"
    ascent="800"
    descent="-200"
    x-height="496"
    cap-height="700"
    bbox="-270 -209 844 870"
    underline-thickness="50"
    underline-position="-50"
    unicode-range="U+0020-U+2122"
  />
<missing-glyph horiz-adv-x="233" 
 />
    <glyph glyph-name=".notdef" horiz-adv-x="233" 
 />
    <glyph glyph-name="space" unicode=" " horiz-adv-x="233" 
 />
    <glyph glyph-name="exclam" unicode="!" horiz-adv-x="210" 
d="M165 700l-23 -525h-80l-17 525h120zM157 110v-110h-110v110h110z" />
    <glyph glyph-name="quotedbl" unicode="&#x22;" horiz-adv-x="343" 
d="M139 686l-27 -246h-40l-27 246h94zM298 686l-27 -246h-40l-27 246h94z" />
    <glyph glyph-name="numbersign" unicode="#" horiz-adv-x="443" 
d="M224 700l-29 -207h92l29 207h75l-29 -207h56l-1 -64h-64l-21 -155h55l-1 -65h-64l-29 -209h-75l29 209h-92l-29 -209h-75l29 209h-55l1 65h64l21 155h-55v64h64l29 207h75zM278 429h-92l-21 -155h92z" />
    <glyph glyph-name="dollar" unicode="$" horiz-adv-x="455" 
d="M204 1c-24.667 1.33301 -48.333 7.33789 -71 18.0049s-40.667 24.667 -54 42c-10 13.333 -18.167 29.833 -24.5 49.5s-9.5 42.5 -9.5 68.5v23h100v-19c0 -10 1.33301 -21 4 -33s7.33398 -21.667 14.001 -29c4.66699 -5.33301 10.667 -9.83301 18 -13.5
s15 -6.16699 23 -7.5v224l-39 13c-19.333 6.66699 -37.333 15.5 -54 26.5s-30.667 28.167 -42 51.5c-8 17.333 -12.667 34.333 -14 51s-2 33.667 -2 51v10c0 7.33301 0.5 16.166 1.5 26.499s3.33301 21.166 7 32.499s9.16699 23.166 16.5 35.499s17 24.166 29 35.499
c11.333 10 25 19 41 27s34.667 13 56 15v81h48v-81c25.333 -1.33301 46.5 -6.66602 63.5 -15.999s30.5 -19.333 40.5 -30c19.333 -20.667 32 -43 38 -67s9 -46.333 9 -67v-23h-100v19c0 7.33301 -0.833008 17.333 -2.5 30s-6.83398 24 -15.501 34
c-3.33301 4 -7.83301 8 -13.5 12s-12.167 6.66699 -19.5 8v-192l32 -11c16 -5.33301 32.333 -12 49 -20s32 -21.333 46 -40c14 -19.333 22.667 -38.833 26 -58.5s5 -40.5 5 -62.5v-14c0 -20 -1.66699 -41 -5 -63s-10.5 -42.833 -21.5 -62.5s-27 -36.334 -48 -50.001
s-48.833 -21.834 -83.5 -24.501v-81h-48v81zM252.001 100.005c5.33301 1.33301 12 3.66602 20 6.99902s15 8.66602 21 15.999c8 9.33301 12.833 20.5 14.5 33.5s2.5 24.833 2.5 35.5v16c0 8.66699 -0.833008 20.334 -2.5 35.001s-6.5 27 -14.5 37
c-4.66699 6 -11 11.333 -19 16s-15.333 8.33398 -22 11.001v-207zM204.001 599.005c-7.33301 -2 -13.999 -5.00098 -19.999 -9.00098s-11.667 -10 -17 -18c-6.66699 -9.33301 -10.667 -19 -12 -29s-2 -20.333 -2 -31c0 -12 1 -23.167 3 -33.5s6.66699 -20.166 14 -29.499
c4.66699 -6 10.167 -11 16.5 -15s12.166 -7.33301 17.499 -10v175z" />
    <glyph glyph-name="percent" unicode="%" horiz-adv-x="626" 
d="M493 700l-288 -700h-76l288 700h76zM581 106c0 -15.333 -2 -29.666 -6 -42.999s-12 -25.666 -24 -36.999c-11.333 -10.667 -23.666 -17.667 -36.999 -21s-26.333 -5 -39 -5s-25.667 1.66699 -39 5s-25.666 10.333 -36.999 21c-12 11.333 -20 23.666 -24 36.999
s-6 27.666 -6 42.999v153c0 15.333 2 29.666 6 42.999s12 25.666 24 36.999c11.333 10.667 23.666 17.667 36.999 21s26.333 5 39 5s25.667 -1.66699 39 -5s25.666 -10.333 36.999 -21c12 -11.333 20 -23.666 24 -36.999s6 -27.666 6 -42.999v-153zM447 105
c0 -2.66699 0.166992 -6.33398 0.5 -11.001s2.16602 -8.66699 5.49902 -12c6 -6 13.333 -9 22 -9s16 3 22 9c3.33301 3.33301 5.16602 7.33301 5.49902 12s0.5 8.33398 0.5 11.001v155c0 2.66699 -0.166992 6.33398 -0.5 11.001s-2.16602 8.66699 -5.49902 12
c-6 6 -13.333 9 -22 9s-16 -3 -22 -9c-3.33301 -3.33301 -5.16602 -7.33301 -5.49902 -12s-0.5 -8.33398 -0.5 -11.001v-155zM257 441c0 -15.333 -2 -29.666 -6 -42.999s-12 -25.666 -24 -36.999c-11.333 -10.667 -23.666 -17.667 -36.999 -21s-26.333 -5 -39 -5
s-25.667 1.66699 -39 5s-25.666 10.333 -36.999 21c-12 11.333 -20 23.666 -24 36.999s-6 27.666 -6 42.999v153c0 15.333 2 29.666 6 42.999s12 25.666 24 36.999c11.333 10.667 23.666 17.667 36.999 21s26.333 5 39 5s25.667 -1.66699 39 -5s25.666 -10.333 36.999 -21
c12 -11.333 20 -23.666 24 -36.999s6 -27.666 6 -42.999v-153zM123 440c0 -2.66699 0.166992 -6.33398 0.5 -11.001s2.16602 -8.66699 5.49902 -12c6 -6 13.333 -9 22 -9s16 3 22 9c3.33301 3.33301 5.16602 7.33301 5.49902 12s0.5 8.33398 0.5 11.001v155
c0 2.66699 -0.166992 6.33398 -0.5 11.001s-2.16602 8.66699 -5.49902 12c-6 6 -13.333 9 -22 9s-16 -3 -22 -9c-3.33301 -3.33301 -5.16602 -7.33301 -5.49902 -12s-0.5 -8.33398 -0.5 -11.001v-155z" />
    <glyph glyph-name="ampersand" unicode="&#x26;" horiz-adv-x="490" 
d="M485 260c-2.66699 -12 -6.00293 -24.5029 -10.0029 -37.5029s-8.66699 -25.833 -14 -38.5c-5.33301 -14 -11.166 -26 -17.499 -36s-14.166 -20 -23.499 -30l75 -118h-107l-34 54c-6 -6.66699 -13.167 -13.667 -21.5 -21s-17.166 -13.666 -26.499 -18.999
c-14.667 -8 -31.5 -14 -50.5 -18s-37.833 -6 -56.5 -6c-31.333 0 -57.666 4.5 -78.999 13.5s-40.666 23.5 -57.999 43.5c-14 16 -24.5 33.333 -31.5 52s-10.5 40 -10.5 64c0 22.667 2.66699 45.334 8 68.001s14.333 43.334 27 62.001
c9.33301 13.333 21.666 27.666 36.999 42.999s30.333 28.666 45 39.999l-19 28.5c-7.33301 11 -14 22.167 -20 33.5c-9.33301 16 -17.166 33.5 -23.499 52.5s-9.5 42.833 -9.5 71.5c0 21.333 3 40.833 9 58.5s16.667 33.834 32 48.501
c17.333 17.333 36.166 28.5 56.499 33.5s39.833 7.5 58.5 7.5c23.333 0 43.333 -2.66699 60 -8s31 -12 43 -20c16 -11.333 29 -25.666 39 -42.999s15 -39.333 15 -66c0 -23.333 -3.83301 -44.666 -11.5 -63.999s-17.834 -37.666 -30.501 -54.999
c-10.667 -14.667 -23.667 -29.334 -39 -44.001s-29.333 -27.334 -42 -38.001l113 -179c6.66699 8.66699 11.167 16.167 13.5 22.5l7.5 20.5l7 21.5c2 6.33301 4 14.833 6 25.5zM188.997 302.997c-8.66699 -6.66699 -17.166 -14.5 -25.499 -23.5
s-15.166 -17.167 -20.499 -24.5c-15.333 -22 -23 -49 -23 -81c0 -9.33301 1 -19 3 -29s6.66699 -20 14 -30c10 -14.667 21.667 -24.167 35 -28.5s26.666 -6.5 39.999 -6.5s24.5 1.33301 33.5 4s17.833 6.66699 26.5 12c7.33301 4 13.166 7.83301 17.499 11.5
s8.5 8.5 12.5 14.5zM212.998 439.997c16.667 14.667 29.168 28.498 37.501 41.498s14.5 24.167 18.5 33.5c4 8.66699 7.16699 17.334 9.5 26.001s3.5 17.667 3.5 27c0 12 -1.83301 21.833 -5.5 29.5s-7.5 13.5 -11.5 17.5c-6 6 -12.667 10.167 -20 12.5s-15 3.5 -23 3.5
c-11.333 0 -20.5 -1.83301 -27.5 -5.5s-12.167 -7.16699 -15.5 -10.5c-8.66699 -8 -13.834 -16.833 -15.501 -26.5s-2.5 -18.167 -2.5 -25.5c0 -23.333 4.5 -44.166 13.5 -62.499s16.833 -31.833 23.5 -40.5z" />
    <glyph glyph-name="quotesingle" unicode="'" horiz-adv-x="214" 
d="M154 686l-27 -246h-40l-27 246h94z" />
    <glyph glyph-name="parenleft" unicode="(" horiz-adv-x="257" 
d="M167 -204c-20.667 40.667 -38.334 79.835 -53.001 117.502s-26.834 74.667 -36.501 111s-16.667 72.833 -21 109.5s-6.5 74.667 -6.5 114s2.16699 77.333 6.5 114s11.333 73.167 21 109.5s21.834 73.166 36.501 110.499s32.334 76.666 53.001 117.999h70
c-12 -33.333 -23.5 -68.833 -34.5 -106.5s-19.833 -72.834 -26.5 -105.501c-7.33301 -33.333 -13.5 -71.666 -18.5 -114.999s-7.5 -85 -7.5 -125s2.5 -81.667 7.5 -125s11.167 -81.666 18.5 -114.999c6.66699 -32.667 15.5 -67.834 26.5 -105.501s22.5 -73.167 34.5 -106.5
h-70z" />
    <glyph glyph-name="parenright" unicode=")" horiz-adv-x="257" 
d="M90 700c20.667 -41.333 38.334 -80.6729 53.001 -118.006s26.834 -74.166 36.501 -110.499s16.667 -72.833 21 -109.5s6.5 -74.667 6.5 -114s-2.16699 -77.333 -6.5 -114s-11.333 -73.167 -21 -109.5s-21.834 -73.333 -36.501 -111s-32.334 -76.834 -53.001 -117.501h-70
c12 33.333 23.5 68.833 34.5 106.5s19.833 72.834 26.5 105.501c3.33301 16.667 6.66602 34.834 9.99902 54.501s6.16602 39.834 8.49902 60.501s4.16602 41.667 5.49902 63s2 42 2 62s-0.666992 40.667 -2 62s-3.16602 42.333 -5.49902 63s-5.16602 40.834 -8.49902 60.501
s-6.66602 37.834 -9.99902 54.501c-6.66699 32.667 -15.5 67.834 -26.5 105.501s-22.5 73.167 -34.5 106.5h70z" />
    <glyph glyph-name="asterisk" unicode="*" horiz-adv-x="393" 
d="M45 494l89 50l-87 50l28 53l88 -50l-2 103h66l-2 -103l90 55l33 -59l-95 -49l95 -46l-33 -63l-92 57l4 -107h-67l3 107l-87 -55z" />
    <glyph glyph-name="plus" unicode="+" horiz-adv-x="494" 
d="M207 331v157h80v-157h157v-80h-157v-157h-80v157h-157v80h157z" />
    <glyph glyph-name="comma" unicode="," horiz-adv-x="220" 
d="M160 110v-110l-110 -100v210h110z" />
    <glyph glyph-name="hyphenminus" unicode="-" horiz-adv-x="314" 
d="M269 351v-90h-224v90h224z" />
    <glyph glyph-name="period" unicode="." horiz-adv-x="220" 
d="M160 110v-110h-110v110h110z" />
    <glyph glyph-name="slash" unicode="/" horiz-adv-x="338" 
d="M353 700l-288 -700h-80l288 700h80z" />
    <glyph glyph-name="zero" unicode="0" horiz-adv-x="418" 
d="M55 549c0 8.66699 0.333984 18.3359 1.00098 29.0029s2.66699 21.667 6 33s8.16602 22.666 14.499 33.999s15.166 21.666 26.499 30.999c13.333 11.333 29.5 19.833 48.5 25.5s38.167 8.5 57.5 8.5c21.333 0 41.833 -3.33301 61.5 -10s37.834 -18.667 54.501 -36
c18 -19.333 28.833 -38.5 32.5 -57.5s5.5 -38.167 5.5 -57.5v-398c0 -10 -0.333008 -20.333 -1 -31s-2.66699 -21.5 -6 -32.5s-8.33301 -21.667 -15 -32s-15.667 -20.5 -27 -30.5c-15.333 -12.667 -31.833 -21.667 -49.5 -27s-36.167 -8 -55.5 -8c-23.333 0 -43.333 3 -60 9
s-30.667 13.667 -42 23c-22.667 18 -37 38.167 -43 60.5s-9 45.166 -9 68.499v398zM263.001 535.002c0 9.33301 -0.668945 19.1641 -2.00195 29.4971s-4.66602 19.166 -9.99902 26.499c-4 6 -9.66699 11 -17 15s-15.666 6 -24.999 6c-18 0 -32 -7 -42 -21
c-5.33301 -7.33301 -8.66602 -16.166 -9.99902 -26.499s-2 -20.166 -2 -29.499v-370c0 -9.33301 0.666992 -19 2 -29s4.66602 -19 9.99902 -27c6.66699 -9.33301 13.834 -15.166 21.501 -17.499s14.5 -3.5 20.5 -3.5c18.667 0 32.667 7 42 21
c5.33301 8.66699 8.66602 17.834 9.99902 27.501s2 19.167 2 28.5v370z" />
    <glyph glyph-name="one" unicode="1" horiz-adv-x="418" 
d="M183 593l-108 -78v103l112 82h96v-700h-100v593z" />
    <glyph glyph-name="two" unicode="2" horiz-adv-x="416" 
d="M54 545c0 31.333 4.33691 56.8291 13.0039 76.4961s18.667 35.5 30 47.5c17.333 18 36.166 29.333 56.499 34s38.833 7 55.5 7c22.667 0 43.834 -3.16699 63.501 -9.5s37.167 -19.166 52.5 -38.499c11.333 -13.333 20.166 -29.666 26.499 -48.999
s9.5 -40.666 9.5 -63.999v-37c0 -12 -0.5 -22.5 -1.5 -31.5s-3.5 -19.833 -7.5 -32.5c-4.66699 -15.333 -8.83398 -26.5 -12.501 -33.5s-7.83398 -14.5 -12.501 -22.5l-158 -297h192v-95h-307v92l177 326l12 26c4.66699 10 8 18.667 10 26s3.83301 17 5.5 29
s2.5 22.333 2.5 31v15c0 22 -5 39 -15 51c-3.33301 3.33301 -8 6.83301 -14 10.5s-14.333 5.5 -25 5.5c-12 0 -21.5 -2.5 -28.5 -7.5s-12.167 -10.5 -15.5 -16.5c-4.66699 -8 -7.33398 -16.667 -8.00098 -26s-1 -19.666 -1 -30.999v-27h-100v41z" />
    <glyph glyph-name="three" unicode="3" horiz-adv-x="418" 
d="M55 564c0 14.667 2.66699 32.3301 8 52.9971s19 40.334 41 59.001c26.667 22.667 60.667 34 102 34c18 0 36.667 -2.5 56 -7.5s36 -13.167 50 -24.5c12.667 -10 24.334 -24.5 35.001 -43.5s16 -42.5 16 -70.5v-101c0 -8 -0.666992 -16.833 -2 -26.5
s-4.16602 -19.334 -8.49902 -29.001s-10.5 -18.667 -18.5 -27s-18.667 -15.166 -32 -20.499c14.667 -6 26 -14 34 -24s14 -20.667 18 -32s6.5 -23.166 7.5 -35.499s1.5 -23.833 1.5 -34.5v-67c0 -28 -2 -52.833 -6 -74.5s-15.667 -42.167 -35 -61.5
c-17.333 -17.333 -36 -28.5 -56 -33.5s-40.667 -7.5 -62 -7.5c-18 0 -36.333 2.16699 -55 6.5s-36.667 14.833 -54 31.5c-10.667 10 -20 23.333 -28 40s-12 37 -12 61v71h100v-46c0 -7.33301 1 -15.666 3 -24.999s5.33301 -17 10 -23
c3.33301 -4.66699 8.5 -8.83398 15.5 -12.501s15.833 -5.5 26.5 -5.5c12.667 0 24.667 4 36 12s17 24 17 48v104c0 8 -0.666992 16.5 -2 25.5s-5.33301 17.167 -12 24.5s-13.5 11.5 -20.5 12.5s-14.833 1.5 -23.5 1.5h-24v89h23c7.33301 0 14.666 0.833008 21.999 2.5
s14.333 5.83398 21 12.501c7.33301 7.33301 11.833 15.5 13.5 24.5s2.5 16.167 2.5 21.5v89c0 9.33301 -1.5 17.5 -4.5 24.5s-6.83301 12.833 -11.5 17.5c-3.33301 4 -8.5 7.5 -15.5 10.5s-15.167 4.5 -24.5 4.5c-14.667 0 -27 -6 -37 -18
c-6.66699 -8 -10.834 -16.5 -12.501 -25.5s-2.5 -17.5 -2.5 -25.5v-40h-100v61z" />
    <glyph glyph-name="four" unicode="4" horiz-adv-x="418" 
d="M283 700l-146 -501h97v198h100v-199h48v-90h-48v-108h-100v108h-198v84l149 508h98z" />
    <glyph glyph-name="five" unicode="5" horiz-adv-x="418" 
d="M361 700l-0.000976562 -90.0049h-194v-184c9.33301 8.66699 20 15.334 32 20.001c14.667 6 30.334 9 47.001 9s32.667 -3.16699 48 -9.5s28 -15.166 38 -26.499c8.66699 -9.33301 15.667 -21.666 21 -36.999s8 -31.666 8 -48.999v-189
c0 -16.667 -2.16699 -34.834 -6.5 -54.501s-14.833 -38.167 -31.5 -55.5c-10 -11.333 -24 -21.5 -42 -30.5s-41.333 -13.5 -70 -13.5c-23.333 0 -43.833 3.5 -61.5 10.5s-33.167 16.167 -46.5 27.5c-19.333 17.333 -31.833 35.833 -37.5 55.5s-8.5 37.834 -8.5 54.501v31
h100v-19c0 -7.33301 0.5 -14.833 1.5 -22.5s3.83301 -14.5 8.5 -20.5c3.33301 -5.33301 8.66602 -9.83301 15.999 -13.5s15.666 -5.5 24.999 -5.5c10 0 18.167 1.5 24.5 4.5s11.5 7.16699 15.5 12.5c6 7.33301 9.66699 15.333 11 24s2 15.667 2 21v152
c0 7.33301 -0.666992 14.833 -2 22.5s-4.66602 14.834 -9.99902 21.501c-8 10 -19.667 15 -35 15c-7.33301 0 -14.166 -1 -20.499 -3s-12.5 -6.33301 -18.5 -13c-6 -6 -11.333 -14.333 -16 -25h-92v380h294z" />
    <glyph glyph-name="six" unicode="6" horiz-adv-x="418" 
d="M325 700l-124.001 -303.001c7.33301 5.33301 16 8.66602 26 9.99902s19 2 27 2c12.667 0 25.834 -2.66699 39.501 -8s26.167 -14.666 37.5 -27.999c5.33301 -6 11.666 -16.5 18.999 -31.5s11 -35.167 11 -60.5v-137c0 -28.667 -4 -52.167 -12 -70.5
s-17.333 -32.833 -28 -43.5c-13.333 -13.333 -30.333 -23.333 -51 -30s-41.667 -10 -63 -10c-19.333 0 -37.833 3 -55.5 9s-34.167 16 -49.5 30c-19.333 18.667 -31.666 37.834 -36.999 57.501s-8 39.5 -8 59.5v102c0 16 1 30.5 3 43.5s4.83301 25 8.5 36
s7.66699 21.5 12 31.5s8.5 20.333 12.5 31l125 310h107zM260.999 269.999c0 7.33301 -0.498047 14.332 -1.49805 20.999s-4.16699 13 -9.5 19c-9.33301 11.333 -21.333 17 -36 17c-6.66699 0 -13.334 -1.16699 -20.001 -3.5s-13 -6.5 -19 -12.5
c-4.66699 -4.66699 -8.83398 -10.667 -12.501 -18s-5.5 -16.333 -5.5 -27v-119c0 -6.66699 0.5 -13.5 1.5 -20.5s4.16699 -13.833 9.5 -20.5c2.66699 -3.33301 6.83398 -7.16602 12.501 -11.499s14.167 -6.5 25.5 -6.5c9.33301 0 17.666 1.5 24.999 4.5s13 7.16699 17 12.5
c6 7.33301 9.66699 15.333 11 24s2 17.667 2 27v114z" />
    <glyph glyph-name="seven" unicode="7" horiz-adv-x="420" 
d="M363 700v-92l-160 -608h-101l159 607h-108v-82h-90v175h300z" />
    <glyph glyph-name="eight" unicode="8" horiz-adv-x="418" 
d="M363 470c0 -19.333 -3 -37.166 -9 -53.499s-18.667 -34.166 -38 -53.499c13.333 -10 23.333 -20 30 -30s11.167 -20.167 13.5 -30.5s3.5 -20.833 3.5 -31.5v-32v-88c0 -4.66699 -0.833008 -15.667 -2.5 -33s-7.33398 -35.5 -17.001 -54.5s-25 -36 -46 -51
s-50.5 -22.5 -88.5 -22.5s-67.5 7.5 -88.5 22.5s-36.333 32 -46 51s-15.334 37.167 -17.001 54.5s-2.5 28.333 -2.5 33v88v32c0 10.667 1.16699 21.167 3.5 31.5s6.83301 20.5 13.5 30.5s16.667 20 30 30c-19.333 19.333 -32 37.166 -38 53.499s-9 34.166 -9 53.499v79
c0 4.66699 0.833008 15.667 2.5 33s7.33398 35.5 17.001 54.5s25 36 46 51s50.5 22.5 88.5 22.5s67.5 -7.5 88.5 -22.5s36.333 -32 46 -51s15.334 -37.167 17.001 -54.5s2.5 -28.333 2.5 -33v-79zM263 535c0 6.66699 -0.5 14.334 -1.5 23.001s-3.16699 17 -6.5 25
s-8.66602 14.833 -15.999 20.5s-17.333 8.5 -30 8.5s-22.667 -2.83301 -30 -8.5s-12.666 -12.5 -15.999 -20.5s-5.5 -16.333 -6.5 -25s-1.5 -16.334 -1.5 -23.001v-53c0 -6.66699 0.5 -14.334 1.5 -23.001s3.16699 -17 6.5 -25s8.66602 -14.833 15.999 -20.5
s17.333 -8.5 30 -8.5s22.667 2.83301 30 8.5s12.666 12.5 15.999 20.5s5.5 16.333 6.5 25s1.5 16.334 1.5 23.001v53zM263 255c0 6.66699 -0.5 14.334 -1.5 23.001s-3.16699 17 -6.5 25s-8.66602 14.833 -15.999 20.5s-17.333 8.5 -30 8.5s-22.667 -2.83301 -30 -8.5
s-12.666 -12.5 -15.999 -20.5s-5.5 -16.333 -6.5 -25s-1.5 -16.334 -1.5 -23.001v-90c0 -6.66699 0.5 -14.334 1.5 -23.001s3.16699 -17 6.5 -25s8.66602 -14.833 15.999 -20.5s17.333 -8.5 30 -8.5s22.667 2.83301 30 8.5s12.666 12.5 15.999 20.5s5.5 16.333 6.5 25
s1.5 16.334 1.5 23.001v90z" />
    <glyph glyph-name="nine" unicode="9" horiz-adv-x="418" 
d="M93 0l124.001 303.001c-7.33301 -5.33301 -16 -8.66602 -26 -9.99902s-19 -2 -27 -2c-12.667 0 -25.834 2.66699 -39.501 8s-26.167 14.666 -37.5 27.999c-5.33301 6 -11.666 16.5 -18.999 31.5s-11 35.167 -11 60.5v137c0 28.667 4 52.167 12 70.5
s17.333 32.833 28 43.5c13.333 13.333 30.333 23.333 51 30s41.667 10 63 10c19.333 0 37.833 -3 55.5 -9s34.167 -16 49.5 -30c19.333 -18.667 31.666 -37.834 36.999 -57.501s8 -39.5 8 -59.5v-102c0 -16 -1 -30.5 -3 -43.5s-4.83301 -25 -8.5 -36
s-7.66699 -21.5 -12 -31.5s-8.5 -20.333 -12.5 -31l-125 -310h-107zM157.001 430.001c0 -7.33301 0.499023 -14.332 1.49902 -20.999s4.16699 -13 9.5 -19c4 -5.33301 9 -9.5 15 -12.5s13 -4.5 21 -4.5c6.66699 0 13.334 1.16699 20.001 3.5s13 6.5 19 12.5
c4.66699 4.66699 8.83398 10.667 12.501 18s5.5 16.333 5.5 27v119c0 6.66699 -0.5 13.5 -1.5 20.5s-4.16699 13.833 -9.5 20.5c-2.66699 3.33301 -6.83398 7.16602 -12.501 11.499s-14.167 6.5 -25.5 6.5c-18.667 0 -32.667 -5.66699 -42 -17
c-6 -7.33301 -9.66699 -15.333 -11 -24s-2 -17.667 -2 -27v-114z" />
    <glyph glyph-name="colon" unicode=":" horiz-adv-x="215" 
d="M155 491v-105h-105v105h105zM155 105v-105h-105v105h105z" />
    <glyph glyph-name="semicolon" unicode=";" horiz-adv-x="215" 
d="M155 105v-105l-105 -100v205h105zM155 491v-105h-105v105h105z" />
    <glyph glyph-name="less" unicode="&#x3c;" horiz-adv-x="469" 
d="M25 323l394 183v-73l-290 -135l290 -135v-73l-394 183v50z" />
    <glyph glyph-name="equal" unicode="=" horiz-adv-x="494" 
d="M444 221v-80h-394v80h394zM444 361v-80h-394v80h394z" />
    <glyph glyph-name="greater" unicode="&#x3e;" horiz-adv-x="469" 
d="M50 90v73l290 135l-290 135v73l394 -183v-50z" />
    <glyph glyph-name="question" unicode="?" horiz-adv-x="354" 
d="M121 256c0 10.667 0.166016 19.666 0.499023 26.999s1.5 14.333 3.5 21s5.33301 14 10 22s11.334 18.667 20.001 32l57 90c8 12.667 12.833 25.167 14.5 37.5s2.5 21.833 2.5 28.5v42c0 7.33301 -0.833008 14.5 -2.5 21.5s-5.83398 13.833 -12.501 20.5
c-6 6 -12.667 9.83301 -20 11.5s-14.666 2.5 -21.999 2.5c-10 0 -18.333 -1.66699 -25 -5s-11.667 -7.33301 -15 -12s-6.16602 -10.834 -8.49902 -18.501s-3.5 -15.167 -3.5 -22.5v-48h-100v60c0 26 5.83301 49 17.5 69s24.5 35.333 38.5 46
c11.333 8.66699 24.833 15.667 40.5 21s33.167 8 52.5 8c49.333 0 87.666 -12.667 114.999 -38c8 -7.33301 17.5 -19.666 28.5 -36.999s16.5 -40 16.5 -68v-55c0 -18.667 -1.5 -36.667 -4.5 -54s-9.16699 -33.666 -18.5 -48.999l-70 -111c-8 -12.667 -12.5 -25 -13.5 -37
s-1.5 -22.333 -1.5 -31v-57h-100v83zM225.999 109.999v-110h-110v110h110z" />
    <glyph glyph-name="at" unicode="@" horiz-adv-x="667" 
d="M472 175c0 -2.66699 0.166992 -6.00488 0.5 -10.0049s1.33301 -8 3 -12s4 -7.33301 7 -10s7.5 -4 13.5 -4c10.667 0 18 5.16699 22 15.5s6 27.833 6 52.5v220c0 10.667 -0.333008 22.667 -1 36s-2.5 26.833 -5.5 40.5s-7.16699 26.834 -12.5 39.501s-13 24 -23 34
c-14 14 -33.833 25.833 -59.5 35.5s-55.5 14.5 -89.5 14.5c-32 0 -58.5 -3.33301 -79.5 -10s-38 -15 -51 -25s-22.833 -20.5 -29.5 -31.5s-11.334 -20.5 -14.001 -28.5c-2 -6.66699 -5.16699 -20.5 -9.5 -41.5s-6.5 -54.167 -6.5 -99.5v-242
c0 -45.333 4 -79.166 12 -101.499s17 -39.166 27 -50.499s22 -20 36 -26s28.167 -10.667 42.5 -14s27.666 -5.33301 39.999 -6s22.166 -1 29.499 -1c8 0 18.833 0.5 32.5 1.5s26.167 2.5 37.5 4.5c10.667 2 22.834 5 36.501 9s25.5 7.66699 35.5 11l19 -64
c-22 -9.33301 -41.667 -16.166 -59 -20.499s-30.333 -7.16602 -39 -8.49902c-11.333 -2 -24.666 -3.5 -39.999 -4.5s-28.333 -1.5 -39 -1.5c-12 0 -26.833 0.666992 -44.5 2s-36.167 4.33301 -55.5 9s-38.166 11.667 -56.499 21s-34.5 22 -48.5 38
c-12 14 -21.333 29.333 -28 46s-11.5 34 -14.5 52s-4.83301 36 -5.5 54s-1 35.333 -1 52v240c0 42 3 83.667 9 125s20 76 42 104c8 10 18.167 19.667 30.5 29s27.333 17.833 45 25.5s38.334 13.834 62.001 18.501s50.5 7 80.5 7c44 0 85.333 -4.83301 124 -14.5
s71.334 -28.5 98.001 -56.5c23.333 -24 38.5 -52.5 45.5 -85.5s10.5 -71.833 10.5 -116.5v-219c0 -28 -1.66699 -49.5 -5 -64.5s-7.33301 -26.5 -12 -34.5c-7.33301 -13.333 -18.833 -23.833 -34.5 -31.5s-33.167 -11.5 -52.5 -11.5c-10 0 -20.5 1.33301 -31.5 4
s-20.833 7.33398 -29.5 14.001c-8 6 -15.167 14.5 -21.5 25.5s-9.83301 24.167 -10.5 39.5c-1.33301 -14.667 -4.83301 -26 -10.5 -34s-13.167 -15.667 -22.5 -23c-10.667 -8.66699 -20.667 -15.167 -30 -19.5s-22.333 -6.5 -39 -6.5c-14 0 -28.667 2.16699 -44 6.5
s-29 13.833 -41 28.5c-12.667 15.333 -20.5 32.833 -23.5 52.5s-4.5 38.167 -4.5 55.5v138c0 10 0.333008 20.667 1 32s2.16699 22.666 4.5 33.999s6 22.166 11 32.499s11.5 19.5 19.5 27.5c7.33301 6.66699 16.5 12.167 27.5 16.5s23.167 6.5 36.5 6.5
c8.66699 0 18 -1.16699 28 -3.5s19.333 -5.83301 28 -10.5c7.33301 -4 14.166 -8.83301 20.499 -14.5s12.166 -11.5 17.499 -17.5v39h83v-314zM278 207.995c0 -8.66699 0.670898 -17.333 2.00391 -26s4.66602 -16.667 9.99902 -24s11.166 -12.333 17.499 -15
s13.166 -4 20.499 -4c11.333 0 20.833 2.5 28.5 7.5s13.167 10.5 16.5 16.5c5.33301 9.33301 8.5 21 9.5 35s1.5 28.667 1.5 44v105c0 8 -0.5 17.333 -1.5 28s-4.16699 20 -9.5 28c-4 5.33301 -9.33301 10 -16 14s-14.667 6 -24 6c-14.667 0 -27 -5.33301 -37 -16
c-8.66699 -9.33301 -13.834 -20.5 -15.501 -33.5s-2.5 -22.833 -2.5 -29.5v-136z" />
    <glyph glyph-name="A" unicode="A" horiz-adv-x="429" 
d="M304 0l-33 150h-128l-33 -150h-100l153 700h88l153 -700h-100zM205 505l-52 -266h106z" />
    <glyph glyph-name="B" unicode="B" horiz-adv-x="451" 
d="M195 700c7.33301 0 16.334 -0.334961 27.001 -1.00195s22 -2.16699 34 -4.5s24 -5.66602 36 -9.99902s23.667 -10.5 35 -18.5c16 -11.333 28.333 -24.166 37 -38.499s15 -28.833 19 -43.5s6.33301 -29 7 -43s1 -26 1 -36c0 -23.333 -1.66699 -43.5 -5 -60.5
s-11.666 -33.167 -24.999 -48.5c-6.66699 -8 -13.334 -14.5 -20.001 -19.5s-12.667 -9.16699 -18 -12.5c13.333 -6 23.5 -13 30.5 -21s12.833 -15.667 17.5 -23c10 -17.333 15.833 -32.166 17.5 -44.499s2.5 -26.833 2.5 -43.5v-53c0 -7.33301 -0.333008 -17 -1 -29
s-2.83398 -24.667 -6.50098 -38s-9.66699 -27 -18 -41s-19.833 -26.667 -34.5 -38c-11.333 -8.66699 -26.5 -16.334 -45.5 -23.001s-43.5 -10 -73.5 -10h-152v700h135zM160.001 409.998l48 0.000976562c17.333 0 31 2.83301 41 8.5s17.667 11.5 23 17.5
c6 7.33301 10.667 16.333 14 27s5 21.667 5 33v43c0 9.33301 -1.83301 18.166 -5.5 26.499s-8.16699 15.5 -13.5 21.5c-6 6 -14.167 11.333 -24.5 16s-23.833 7 -40.5 7h-47v-200zM160.001 89.999l44.999 0.00292969c7.33301 0 17.833 1.5 31.5 4.5
s25.834 11.833 36.501 26.5c4 6 7.33301 12.5 10 19.5s4.5 13.833 5.5 20.5s1.66699 12.667 2 18s0.5 9.66602 0.5 12.999v33c0 17.333 -1.66699 32.166 -5 44.499s-10.666 23.166 -21.999 32.499c-14.667 12 -32.334 18 -53.001 18h-51v-230z" />
    <glyph glyph-name="C" unicode="C" horiz-adv-x="434" 
d="M289 541c0 7.33301 -1.00195 15.167 -3.00195 23.5s-5.33301 15.833 -10 22.5c-2.66699 3.33301 -8 8.33301 -16 15s-20 10 -36 10c-13.333 0 -24 -2.33301 -32 -7s-14.667 -10 -20 -16c-8 -10 -12.833 -21 -14.5 -33s-2.5 -24 -2.5 -36v-345
c0 -11.333 0.5 -22.166 1.5 -32.499s4.83301 -20.166 11.5 -29.499c3.33301 -5.33301 9.16602 -10.833 17.499 -16.5s19.5 -8.5 33.5 -8.5c11.333 0 22 2 32 6s18 10 24 18c2.66699 3.33301 5.66699 9.33301 9 18s5 21.667 5 39v25h100v-29
c0 -34.667 -4.66699 -62.334 -14 -83.001s-18.666 -35.667 -27.999 -45c-10.667 -11.333 -26.5 -22 -47.5 -32s-48.833 -15 -83.5 -15c-33.333 0 -59.833 5.5 -79.5 16.5s-35.167 23.167 -46.5 36.5c-18 21.333 -28.333 43.166 -31 65.499s-4 42.5 -4 60.5v363
c0 22.667 2.83301 46.334 8.5 71.001s19.834 46.667 42.501 66c15.333 14 33.5 24.333 54.5 31s40.833 10 59.5 10c21.333 0 43 -3.83301 65 -11.5s40.667 -18.834 56 -33.501c12.667 -12.667 23.334 -29 32.001 -49s13 -42.333 13 -67v-48h-97v40z" />
    <glyph glyph-name="D" unicode="D" horiz-adv-x="450" 
d="M195 700c10.667 0 22.167 -0.332031 34.5 -0.999023s25 -2.33398 38 -5.00098s25.667 -6.83398 38 -12.501s24.166 -13.5 35.499 -23.5c12.667 -12 22.667 -25.167 30 -39.5s12.666 -28.5 15.999 -42.5s5.5 -27.167 6.5 -39.5s1.5 -22.166 1.5 -29.499v-309
c0 -24 -2.5 -48.333 -7.5 -73s-17.5 -48 -37.5 -70c-11.333 -12 -23.166 -21.667 -35.499 -29s-24.666 -12.833 -36.999 -16.5s-24.333 -6.16699 -36 -7.5s-22.5 -2 -32.5 -2h-149v700h135zM160 98.001l45.001 -0.000976562c10.667 0 22 1.33301 34 4s23 9.33398 33 20.001
c10.667 11.333 17.167 25 19.5 41s3.5 29.667 3.5 41v310c0 10 -1.16699 20.833 -3.5 32.5s-7.5 22.5 -15.5 32.5c-9.33301 11.333 -19.333 18 -30 20s-22.334 3 -35.001 3h-51v-504z" />
    <glyph glyph-name="E" unicode="E" horiz-adv-x="395" 
d="M60 700h297v-95h-197v-206h174v-90h-174v-214h200v-95h-300v700z" />
    <glyph glyph-name="F" unicode="F" horiz-adv-x="389" 
d="M60 700h304v-95h-204v-210h179v-95h-179v-300h-100v700z" />
    <glyph glyph-name="G" unicode="G" horiz-adv-x="461" 
d="M329 54c-7.33301 -12.667 -15.3301 -22.6641 -23.9971 -29.9971s-16.667 -13 -24 -17c-14.667 -8 -29.167 -12.833 -43.5 -14.5s-25.833 -2.5 -34.5 -2.5c-18 0 -36.833 3.16699 -56.5 9.5s-37.834 19.833 -54.501 40.5c-16 20 -26 41.333 -30 64s-6 42 -6 58v354
c0 21.333 1.66699 42.666 5 63.999s12.666 42.666 27.999 63.999c10 14 21.167 25.333 33.5 34s24.833 15.334 37.5 20.001s25.167 7.83398 37.5 9.50098s23.166 2.5 32.499 2.5c26 0 49.667 -4 71 -12s39 -19 53 -33c13.333 -13.333 25.166 -31.333 35.499 -54
s15.5 -50.334 15.5 -83.001v-28h-100v35c0 8.66699 -1 18 -3 28s-7.66699 19.667 -17 29c-5.33301 5.33301 -12.333 10 -21 14s-19.667 6 -33 6s-24.5 -2.33301 -33.5 -7s-16.5 -10.667 -22.5 -18c-9.33301 -11.333 -14.833 -23.333 -16.5 -36s-2.5 -25.334 -2.5 -38.001
v-328c0 -10.667 0.833008 -22.667 2.5 -36s6.5 -25.333 14.5 -36c6 -7.33301 13.833 -13.333 23.5 -18s20.5 -7 32.5 -7c10.667 0 21.334 2.5 32.001 7.5s19.334 11.833 26.001 20.5c9.33301 11.333 14.666 24.666 15.999 39.999s2 29.333 2 42v94h-85v90h185v-382h-50z" />
    <glyph glyph-name="H" unicode="H" horiz-adv-x="455" 
d="M160 700v-301h135v301h100v-700h-100v309h-135v-309h-100v700h100z" />
    <glyph glyph-name="I" unicode="I" horiz-adv-x="220" 
d="M160 700v-700h-100v700h100z" />
    <glyph glyph-name="J" unicode="J" horiz-adv-x="361" 
d="M301 700l0.000976562 -502.001c0 -12.667 -0.333008 -26 -1 -40s-2.66699 -28 -6 -42s-8.5 -28 -15.5 -42s-16.5 -27 -28.5 -39c-20 -20 -41.167 -32.5 -63.5 -37.5s-43.833 -7.5 -64.5 -7.5c-6.66699 0 -15 0.5 -25 1.5s-21 3.5 -33 7.5s-24.333 10 -37 18
s-25 19 -37 33l77 65c8.66699 -12 18.334 -19.5 29.001 -22.5s19.667 -4.5 27 -4.5c11.333 0 22.166 1.83301 32.499 5.5s19.166 10.5 26.499 20.5c8 10.667 13.167 22.334 15.5 35.001s3.5 24.667 3.5 36v515h100z" />
    <glyph glyph-name="K" unicode="K" horiz-adv-x="475" 
d="M160 700v-337l159 337h105l-142 -287l168 -413h-109l-119 313l-62 -108v-205h-100v700h100z" />
    <glyph glyph-name="L" unicode="L" horiz-adv-x="407" 
d="M160 700v-605h212v-95h-312v700h100z" />
    <glyph glyph-name="M" unicode="M" horiz-adv-x="593" 
d="M60 700h100l138 -386h4l131 386h100v-700h-100v438h-5l-105 -316h-53l-105 316h-5v-438h-100v700z" />
    <glyph glyph-name="N" unicode="N" horiz-adv-x="487" 
d="M160 700l167 -440v440h100v-700h-100l-167 440v-440h-100v700h100z" />
    <glyph glyph-name="O" unicode="O" horiz-adv-x="462" 
d="M56 516c0 26.667 2.66699 52.5 8 77.5s20 48.833 44 71.5c15.333 14 33.166 25 53.499 33s43.5 12 69.5 12s49.167 -4 69.5 -12s38.166 -19 53.499 -33c24 -22.667 38.667 -46.5 44 -71.5s8 -50.833 8 -77.5v-332c0 -26.667 -2.66699 -52.5 -8 -77.5
s-20 -48.833 -44 -71.5c-15.333 -14 -33.166 -25 -53.499 -33s-43.5 -12 -69.5 -12s-49.167 4 -69.5 12s-38.166 19 -53.499 33c-24 22.667 -38.667 46.5 -44 71.5s-8 50.833 -8 77.5v332zM306 531c0 10.667 -1.16699 21.167 -3.5 31.5s-8.16602 20.166 -17.499 29.499
c-5.33301 5.33301 -12.5 10 -21.5 14s-19.833 6 -32.5 6s-23.5 -2 -32.5 -6s-16.167 -8.66699 -21.5 -14c-9.33301 -9.33301 -15.166 -19.166 -17.499 -29.499s-3.5 -20.833 -3.5 -31.5v-362c0 -10.667 1.16699 -21.167 3.5 -31.5s8.16602 -20.166 17.499 -29.499
c5.33301 -5.33301 12.5 -10 21.5 -14s19.833 -6 32.5 -6s23.5 2 32.5 6s16.167 8.66699 21.5 14c9.33301 9.33301 15.166 19.166 17.499 29.499s3.5 20.833 3.5 31.5v362z" />
    <glyph glyph-name="P" unicode="P" horiz-adv-x="430" 
d="M60 700h148.999c10.667 0 22 -0.333008 34 -1s24 -2.5 36 -5.5s23.833 -7.66699 35.5 -14s23.167 -14.833 34.5 -25.5c22.667 -23.333 36.834 -49.333 42.501 -78s8.5 -56 8.5 -82v-20c0 -10 -0.333008 -20.833 -1 -32.5s-2.5 -23.834 -5.5 -36.501
s-7.33301 -25.167 -13 -37.5s-13.5 -24.166 -23.5 -35.499c-10 -12 -20.833 -21.5 -32.5 -28.5s-23.5 -12.5 -35.5 -16.5s-24 -6.66699 -36 -8s-23.333 -2 -34 -2h-59v-277h-100v700zM159.999 367l54.001 0.00195312c9.33301 0 20.166 1.5 32.499 4.5
s23.833 10.167 34.5 21.5s16.5 23 17.5 35s1.5 24.333 1.5 37v46c0 12 -1 25.667 -3 41s-10 28.666 -24 39.999c-11.333 9.33301 -23.833 14.666 -37.5 15.999s-27.167 2 -40.5 2h-35v-243z" />
    <glyph glyph-name="Q" unicode="Q" horiz-adv-x="482" 
d="M60 516c0 26.667 2.66797 52.5 8.00098 77.5s20 48.833 44 71.5c15.333 14 33.166 25 53.499 33s43.5 12 69.5 12s49.167 -4 69.5 -12s38.166 -19 53.499 -33c24 -22.667 38.667 -46.5 44 -71.5s8 -50.833 8 -77.5v-332c0 -20 -0.833008 -36.833 -2.5 -50.5
s-6.16699 -28.167 -13.5 -43.5l63 -50l-51 -62l-62 49c-12.667 -11.333 -27.167 -20.5 -43.5 -27.5s-38.166 -10.167 -65.499 -9.5c-22 0.666992 -43.5 4.16699 -64.5 10.5s-40.5 17.833 -58.5 34.5c-24 22.667 -38.667 46.5 -44 71.5s-8 50.833 -8 77.5v332zM214.001 130
l50.999 61.999l45 -36v375c0 10.667 -1.16699 21.167 -3.5 31.5s-8.16602 20.166 -17.499 29.499c-5.33301 5.33301 -12.5 10 -21.5 14s-19.833 6 -32.5 6s-23.5 -2 -32.5 -6s-16.167 -8.66699 -21.5 -14c-9.33301 -9.33301 -15.166 -19.166 -17.499 -29.499
s-3.5 -20.833 -3.5 -31.5v-362c0 -10.667 1.16699 -21.167 3.5 -31.5s8.16602 -20.166 17.499 -29.499c5.33301 -5.33301 12.5 -10 21.5 -14s19.833 -6 32.5 -6c10 0 19 1.33301 27 4z" />
    <glyph glyph-name="R" unicode="R" horiz-adv-x="445" 
d="M191 700c12.667 0 26.498 -0.167969 41.498 -0.500977s30.333 -2.16602 46 -5.49902s30.667 -8.66602 45 -15.999s27.5 -18.333 39.5 -33c11.333 -14 20.333 -31.333 27 -52s10 -44 10 -70v-53c0 -22.667 -3.5 -43.834 -10.5 -63.501s-15.833 -35.5 -26.5 -47.5
c-7.33301 -8.66699 -15.666 -16 -24.999 -22s-18.666 -10.667 -27.999 -14l110 -323h-104l-97 302h-59v-302h-100v700h131zM159.998 391.999l57.002 0.000976562c11.333 0 22.166 1.5 32.499 4.5s20.166 9.16699 29.499 18.5c10 9.33301 16 18.833 18 28.5s3 21.167 3 34.5
v50c0 13.333 -2.16699 25.666 -6.5 36.999s-9.83301 20.333 -16.5 27c-10 10 -20.667 15.5 -32 16.5s-22.333 1.5 -33 1.5h-52v-218z" />
    <glyph glyph-name="S" unicode="S" horiz-adv-x="440" 
d="M291 525c0 7.33301 -0.833008 17.3311 -2.5 29.998s-6.5 24 -14.5 34c-4.66699 5.33301 -11 10.5 -19 15.5s-19.333 7.5 -34 7.5c-7.33301 0 -15.333 -1.16699 -24 -3.5s-17 -7.5 -25 -15.5c-9.33301 -10 -15.166 -21.5 -17.499 -34.5s-3.5 -25.167 -3.5 -36.5
c0 -9.33301 1 -21.5 3 -36.5s6.33301 -27.167 13 -36.5c5.33301 -8.66699 12.5 -15.167 21.5 -19.5l24.5 -11.5l61 -22c15.333 -5.33301 31 -12.166 47 -20.499s30.667 -21.5 44 -39.5c13.333 -18.667 21.666 -38 24.999 -58s5 -41 5 -63v-24c0 -36 -4.33301 -67 -13 -93
s-20.334 -46.667 -35.001 -62c-13.333 -13.333 -31 -24.333 -53 -33s-47.667 -13 -77 -13c-36 0 -65.5 6.16699 -88.5 18.5s-40.167 26.5 -51.5 42.5c-8 10.667 -14.167 22.334 -18.5 35.001s-7.5 24.834 -9.5 36.501s-3.16699 21.834 -3.5 30.501s-0.5 14 -0.5 16v23h100
v-19c0 -8 0.833008 -18 2.5 -30s6.16699 -22.667 13.5 -32c8.66699 -10.667 18.334 -17.167 29.001 -19.5s19.334 -3.5 26.001 -3.5c19.333 0 33.666 2.83301 42.999 8.5s16 11.167 20 16.5c7.33301 9.33301 11.833 20.5 13.5 33.5s2.5 24.833 2.5 35.5v26
c0 12 -1 24.667 -3 38s-6.33301 24.666 -13 33.999s-15 16.333 -25 21s-17.667 8 -23 10l-73 26c-18 6.66699 -35.333 15.5 -52 26.5s-30 28.167 -40 51.5c-7.33301 16 -11.666 32.667 -12.999 50s-2 34.666 -2 51.999v20c0 29.333 5 54.833 15 76.5s22.333 39.5 37 53.5
c16.667 16 35.167 27.167 55.5 33.5s42.166 9.5 65.499 9.5c50 0 90.333 -15.5 121 -46.5s46 -75.833 46 -134.5v-23h-100v19z" />
    <glyph glyph-name="T" unicode="T" horiz-adv-x="388" 
d="M368 700v-95h-124v-605h-100v605h-124v95h348z" />
    <glyph glyph-name="U" unicode="U" horiz-adv-x="454" 
d="M160 700v-531c0 -24 5.66699 -43.5 17 -58.5s28 -22.5 50 -22.5s38.667 7.5 50 22.5s17 34.5 17 58.5v531h100v-516c0 -38.667 -5.16699 -70.5 -15.5 -95.5s-23.666 -44.833 -39.999 -59.5s-34.333 -24.834 -54 -30.501s-38.834 -8.5 -57.501 -8.5
s-37.834 2.83301 -57.501 8.5s-37.667 15.834 -54 30.501s-29.666 34.5 -39.999 59.5s-15.5 56.833 -15.5 95.5v516h100z" />
    <glyph glyph-name="V" unicode="V" horiz-adv-x="404" 
d="M246 0h-88l-148 700h110l81 -484h4l84 484h105z" />
    <glyph glyph-name="W" unicode="W" horiz-adv-x="597" 
d="M121 700l56 -436h4l80 436h75l80 -436h6l54 436h106l-110 -700h-90l-80 452h-7l-80 -452h-90l-110 700h106z" />
    <glyph glyph-name="X" unicode="X" horiz-adv-x="437" 
d="M137 700l80 -220l81 220h110l-138 -330l152 -370h-106l-99 253l-92 -253h-110l150 370l-134 330h106z" />
    <glyph glyph-name="Y" unicode="Y" horiz-adv-x="414" 
d="M257 295v-295h-100v298l-147 402h110l87 -278h6l85 278h106z" />
    <glyph glyph-name="Z" unicode="Z" horiz-adv-x="405" 
d="M360 700v-77l-210 -533h205v-90h-310v88l205 522h-191v90h301z" />
    <glyph glyph-name="bracketleft" unicode="[" horiz-adv-x="252" 
d="M242 626h-92v-756h91v-74h-181v904h182v-74z" />
    <glyph glyph-name="backslash" unicode="\" horiz-adv-x="338" 
d="M353 0h-80l-288 700h80z" />
    <glyph glyph-name="bracketright" unicode="]" horiz-adv-x="296" 
d="M242 700v-904h-181v74h91v756h-92v74h182z" />
    <glyph glyph-name="asciicircum" unicode="^" horiz-adv-x="590" 
d="M262 700h66l217 -429h-80l-170 339l-170 -339h-80z" />
    <glyph glyph-name="underscore" unicode="_" horiz-adv-x="535" 
d="M535 -142v-62h-535v62h535z" />
    <glyph glyph-name="grave" unicode="`" horiz-adv-x="241" 
d="M20 700h107l44 -122h-57z" />
    <glyph glyph-name="a" unicode="a" horiz-adv-x="405" 
d="M251 49l-1.99902 -0.00488281c-3.33301 -5.33301 -8 -11.666 -14 -18.999s-12.667 -13.666 -20 -18.999c-9.33301 -7.33301 -18.666 -12.333 -27.999 -15s-19.333 -4 -30 -4c-10 0 -22 1.5 -36 4.5s-27.333 10.167 -40 21.5
c-15.333 14.667 -25.166 32.334 -29.499 53.001s-6.5 41 -6.5 61c0 8.66699 0.333008 18.5 1 29.5s2 22 4 33s5 21.833 9 32.5s9.66699 20.334 17 29.001c8 10 17.333 17.833 28 23.5s21.5 10 32.5 13s21.5 4.83301 31.5 5.5s18.667 1 26 1
c3.33301 0 9.83301 -0.166992 19.5 -0.5s22.167 -1.16602 37.5 -2.49902v52c0 7.33301 -0.666992 14.5 -2 21.5s-5 13.833 -11 20.5c-10 10.667 -23.333 16 -40 16c-7.33301 0 -14.5 -1.33301 -21.5 -4s-13.167 -7.33398 -18.5 -14.001
c-8 -8.66699 -12.333 -19.334 -13 -32.001h-95c-0.666992 22.667 3.16602 43.334 11.499 62.001s18.166 33.667 29.499 45c12.667 12.667 28.667 22.667 48 30s40.666 11 63.999 11c22.667 0 43 -3.66699 61 -11s33.333 -17 46 -29c18 -18 29.333 -37.667 34 -59
s7 -40.666 7 -57.999v-347h-100v49zM251.001 215.995c-12 2 -23.665 3 -34.998 3c-8 0 -17.333 -1.16699 -28 -3.5s-20 -8.16602 -28 -17.499c-6.66699 -7.33301 -10.834 -15.833 -12.501 -25.5s-2.5 -18.5 -2.5 -26.5c0 -7.33301 0.666992 -14.333 2 -21
s4 -13.334 8 -20.001c9.33301 -15.333 22.666 -23 39.999 -23c15.333 0 28.5 5.16699 39.5 15.5s16.5 26.5 16.5 48.5v70z" />
    <glyph glyph-name="b" unicode="b" 
d="M54 0v699.999h100v-244c9.33301 12 20.333 21.667 33 29c9.33301 5.33301 19 9.83301 29 13.5s22.333 5.5 37 5.5s28.167 -2.16699 40.5 -6.5s23.5 -11.833 33.5 -22.5c13.333 -13.333 21.5 -27.666 24.5 -42.999s4.5 -29 4.5 -41v-258c0 -16 -1 -33.333 -3 -52
s-8.66699 -35.667 -20 -51c-2 -2.66699 -5.16699 -6.16699 -9.5 -10.5s-9.83301 -8.5 -16.5 -12.5s-14.667 -7.5 -24 -10.5s-20.333 -4.5 -33 -4.5c-10 0 -20.333 1.33301 -31 4s-20.667 7 -30 13c-6.66699 4.66699 -13 10 -19 16s-11 12.333 -15 19h-1v-44h-100z
M154 155.999c0 -8 0.833008 -16.333 2.5 -25s6.16699 -17 13.5 -25c3.33301 -3.33301 8.16602 -6.83301 14.499 -10.5s14.166 -5.5 23.499 -5.5c14 0 25.667 5 35 15c6.66699 7.33301 10.5 14.5 11.5 21.5s1.5 14.833 1.5 23.5v201c0 6 -0.666992 12.5 -2 19.5
s-5 13.833 -11 20.5c-9.33301 10 -21 15 -35 15c-9.33301 0 -17.166 -1.83301 -23.499 -5.5s-11.166 -7.16699 -14.499 -10.5c-7.33301 -8 -11.833 -16.333 -13.5 -25s-2.5 -17 -2.5 -25v-184z" />
    <glyph glyph-name="c" unicode="c" horiz-adv-x="384" 
d="M254 346l-0.00683594 1.99805c0 6 -0.666992 12.333 -2 19s-4.33301 13.334 -9 20.001c-3.33301 5.33301 -8.33301 9.83301 -15 13.5s-15 5.5 -25 5.5c-6 0 -12.5 -1 -19.5 -3s-13.5 -6.66699 -19.5 -14s-9.83301 -15 -11.5 -23s-2.5 -16.333 -2.5 -25v-192
c0 -7.33301 0.833008 -14.833 2.5 -22.5s4.83398 -14.167 9.50098 -19.5c2.66699 -3.33301 7.16699 -7 13.5 -11s15.5 -6 27.5 -6c7.33301 0 14.5 1 21.5 3s13.167 6.66699 18.5 14c5.33301 6.66699 8.5 13.834 9.5 21.501s1.5 13.834 1.5 18.501v1h100v-9
c0 -14.667 -1.5 -28 -4.5 -40s-7 -22.5 -12 -31.5s-10.5 -17 -16.5 -24s-11.667 -12.833 -17 -17.5c-11.333 -9.33301 -25.166 -17.333 -41.499 -24s-35.833 -10 -58.5 -10s-44.167 3.66699 -64.5 11s-37.166 18 -50.499 32c-10 10 -17.667 20.5 -23 31.5
s-9.16602 22.167 -11.499 33.5s-3.66602 22.666 -3.99902 33.999s-0.5 22.333 -0.5 33v171c0 10 0.5 20.5 1.5 31.5s3 22.167 6 33.5s7.5 22.5 13.5 33.5s14.333 21.167 25 30.5s24.334 17.833 41.001 25.5s37.334 11.5 62.001 11.5c24 0 46 -3.83301 66 -11.5
s36.333 -18.167 49 -31.5c13.333 -14 23.333 -31.333 30 -52s10 -40.667 10 -60v-3h-100z" />
    <glyph glyph-name="d" unicode="d" 
d="M256 44l-1 0.000976562c-4 -6.66699 -9 -13 -15 -19s-12.333 -11.333 -19 -16c-9.33301 -6 -19.333 -10.333 -30 -13s-21 -4 -31 -4c-12.667 0 -23.667 1.5 -33 4.5s-17.333 6.5 -24 10.5s-12.167 8.16699 -16.5 12.5s-7.5 7.83301 -9.5 10.5
c-11.333 15.333 -18 32.333 -20 51s-3 36 -3 52v258c0 12 1.5 25.667 4.5 41s11.167 29.666 24.5 42.999c10 10.667 21.167 18.167 33.5 22.5s25.833 6.5 40.5 6.5s27 -1.83301 37 -5.5s19.667 -8.16699 29 -13.5c12.667 -7.33301 23.667 -17 33 -29v244h100v-700h-100v44z
M256 340.001c0 8 -0.833008 16.333 -2.5 25s-6.16699 17 -13.5 25c-3.33301 3.33301 -8.16602 6.83301 -14.499 10.5s-14.166 5.5 -23.499 5.5c-14.667 0 -26.334 -5 -35.001 -15c-6 -6.66699 -9.66699 -13.5 -11 -20.5s-2 -13.5 -2 -19.5v-201
c0 -8.66699 0.5 -16.5 1.5 -23.5s4.83301 -14.167 11.5 -21.5c8.66699 -10 20.334 -15 35.001 -15c9.33301 0 17.166 1.83301 23.499 5.5s11.166 7.16699 14.499 10.5c7.33301 8 11.833 16.333 13.5 25s2.5 17 2.5 25v184z" />
    <glyph glyph-name="e" unicode="e" horiz-adv-x="397" 
d="M150 147c0 -7.33301 0.664062 -14.834 1.99707 -22.501s5 -14.5 11 -20.5c8 -9.33301 20.667 -14 38 -14s30.666 7 39.999 21c6 10 9 21.333 9 34h100v-4c0 -9.33301 -0.666992 -19.166 -2 -29.499s-4 -20.833 -8 -31.5s-9.66699 -21.167 -17 -31.5
s-17 -19.833 -29 -28.5c-12.667 -9.33301 -27 -16.333 -43 -21s-32.667 -7 -50 -7c-23.333 0 -45 4.33301 -65 13s-36.667 20.334 -50 35.001c-8.66699 10 -15.5 20.333 -20.5 31s-8.66699 21.334 -11 32.001s-3.66602 21 -3.99902 31s-0.5 18.667 -0.5 26v190
c0 8.66699 0.5 18.167 1.5 28.5s3.33301 20.666 7 30.999s8.66699 20.666 15 30.999s14.833 20.166 25.5 29.499c11.333 10 25.333 18.167 42 24.5s35.667 9.5 57 9.5s40.833 -3.16699 58.5 -9.5s32.834 -15.166 45.501 -26.499c10.667 -9.33301 19.334 -19.5 26.001 -30.5
s11.834 -22 15.501 -33s6 -21.833 7 -32.5s1.5 -21 1.5 -31v-130h-202v-64zM251.997 287.999l-0.00195312 64.999c0 6.66699 -0.833008 13.334 -2.5 20.001s-5.5 13 -11.5 19c-9.33301 9.33301 -21.666 14 -36.999 14c-16.667 0 -29.667 -5.66699 -39 -17
c-5.33301 -6 -8.66602 -12.5 -9.99902 -19.5s-2 -13.833 -2 -20.5v-61h102z" />
    <glyph glyph-name="f" unicode="f" horiz-adv-x="268" 
d="M77 416l-51.9961 0.00195312v80h52v66c0 17.333 2 35.666 6 54.999s14.667 36.666 32 51.999c15.333 13.333 32.666 21.833 51.999 25.5s37.666 5.5 54.999 5.5h36v-88h-20c-8.66699 0 -16.834 -0.833008 -24.501 -2.5s-15.167 -6.5 -22.5 -14.5
c-6.66699 -7.33301 -10.834 -14.833 -12.501 -22.5s-2.5 -16.167 -2.5 -25.5v-51h81v-80h-80v-416h-100v416z" />
    <glyph glyph-name="g" unicode="g" horiz-adv-x="406" 
d="M352 496v-542.001c0 -20 -2 -40.167 -6 -60.5s-14.667 -39.5 -32 -57.5c-10 -11.333 -24.333 -21.666 -43 -30.999s-42.667 -14 -72 -14c-28.667 0 -52 4.83301 -70 14.5s-31.667 20.167 -41 31.5c-10.667 12 -19.334 27.333 -26.001 46s-10.667 37.667 -12 57h100
c-0.666992 -7.33301 0.333008 -14.166 3 -20.499s6 -11.833 10 -16.5c5.33301 -6 11.5 -9.83301 18.5 -11.5s13.167 -2.5 18.5 -2.5c10.667 0 19.334 1.83301 26.001 5.5s11.667 8.16699 15 13.5c4.66699 6.66699 7.66699 14.667 9 24s2 19 2 29v84
c-9.33301 -12 -20.333 -21.667 -33 -29c-9.33301 -5.33301 -19 -9.83301 -29 -13.5s-22.333 -5.5 -37 -5.5s-28.167 2.16699 -40.5 6.5s-23.5 11.833 -33.5 22.5c-13.333 13.333 -21.5 27.666 -24.5 42.999s-4.5 29 -4.5 41v253c0 16 1 33.333 3 52s8.66699 35.667 20 51
c2 2.66699 5.16699 6.16699 9.5 10.5s9.83301 8.5 16.5 12.5s14.667 7.5 24 10.5s20.333 4.5 33 4.5c10 0 20.333 -1.33301 31 -4s20.667 -7 30 -13c6.66699 -4.66699 13 -10 19 -16s11 -12.333 15 -19h1v44h100zM252 339.999c0 8 -0.833008 16.332 -2.5 24.999
s-6.16699 17 -13.5 25c-3.33301 3.33301 -8.16602 6.83301 -14.499 10.5s-14.166 5.5 -23.499 5.5c-14 0 -25.667 -5 -35 -15c-6 -7.33301 -9.66699 -14.666 -11 -21.999s-2 -15 -2 -23v-196c0 -5.33301 0.666992 -11.5 2 -18.5s5 -14.167 11 -21.5
c9.33301 -10 21 -15 35 -15c9.33301 0 17.166 1.83301 23.499 5.5s11.166 7.16699 14.499 10.5c7.33301 8 11.833 16.333 13.5 25s2.5 17 2.5 25v179z" />
    <glyph glyph-name="h" unicode="h" 
d="M54 700l99.998 -0.000976562v-244c9.33301 12 20.333 21.667 33 29c9.33301 5.33301 19 9.83301 29 13.5s22.333 5.5 37 5.5s28.167 -2.16699 40.5 -6.5s23.5 -11.833 33.5 -22.5c13.333 -13.333 21.5 -27.666 24.5 -42.999s4.5 -29 4.5 -41v-391h-100v351
c0 6 -0.666992 12.5 -2 19.5s-5 13.833 -11 20.5c-9.33301 10 -21 15 -35 15c-9.33301 0 -17.166 -1.83301 -23.499 -5.5s-11.166 -7.16699 -14.499 -10.5c-7.33301 -8 -11.833 -16.333 -13.5 -25s-2.5 -17 -2.5 -25v-340h-100v700z" />
    <glyph glyph-name="i" unicode="i" horiz-adv-x="208" 
d="M54 496h100v-496h-100v496zM154 686v-98h-100v98h100z" />
    <glyph glyph-name="j" unicode="j" horiz-adv-x="210" 
d="M156 -47c0 -18.667 -0.999023 -38.499 -2.99902 -59.499s-11.667 -41.167 -29 -60.5c-16.667 -18 -34.5 -28.667 -53.5 -32s-36.833 -5 -53.5 -5h-32v98h18c10.667 0 19.167 1.66699 25.5 5s11.166 6.66602 14.499 9.99902c6.66699 7.33301 10.5 15 11.5 23
s1.5 15 1.5 21v543h100v-543zM156.001 686.001v-98h-100v98h100z" />
    <glyph glyph-name="k" unicode="k" horiz-adv-x="403" 
d="M54 700h100v-420h2l120 216h100l-119 -202l143 -294h-108l-90 214l-48 -75v-139h-100v700z" />
    <glyph glyph-name="l" unicode="l" horiz-adv-x="230" 
d="M154 700l-0.00195312 -558.999c0 -6 0.833008 -12.5 2.5 -19.5s5.5 -13.167 11.5 -18.5c5.33301 -4.66699 11 -7.5 17 -8.5s11 -1.5 15 -1.5h10v-93h-29c-6 0 -13.167 0.333008 -21.5 1s-17.166 2.5 -26.499 5.5s-18.666 7.16699 -27.999 12.5s-18 13 -26 23
c-12 15.333 -19.167 31.166 -21.5 47.499s-3.5 31.833 -3.5 46.5v564h100z" />
    <glyph glyph-name="m" unicode="m" horiz-adv-x="608" 
d="M154 496l0.000976562 -45.001c4.66699 6 9.66699 11.667 15 17s10.666 10 15.999 14c8.66699 6.66699 18.5 12 29.5 16s23.833 6 38.5 6c19.333 0 37.333 -5.33301 54 -16c9.33301 -6 16.833 -12.667 22.5 -20s10.167 -15 13.5 -23
c5.33301 9.33301 11.666 17.833 18.999 25.5s15.666 14.167 24.999 19.5c16 9.33301 34.333 14 55 14c15.333 0 31 -2.33301 47 -7s30.333 -15.667 43 -33c10 -14 16.167 -28.5 18.5 -43.5s3.5 -29.167 3.5 -42.5v-378h-100v351c0 6.66699 -0.833008 13.334 -2.5 20.001
s-5.16699 13.334 -10.5 20.001c-9.33301 10 -20.666 15 -33.999 15c-14.667 0 -27 -5.33301 -37 -16c-7.33301 -8 -11.833 -16.333 -13.5 -25s-2.5 -17 -2.5 -25v-340h-100v351c0 6.66699 -0.666992 13.167 -2 19.5s-5 13.166 -11 20.499c-9.33301 10 -20.666 15 -33.999 15
c-6 0 -12.167 -1 -18.5 -3s-12.5 -6.33301 -18.5 -13c-7.33301 -8 -11.833 -16.333 -13.5 -25s-2.5 -17 -2.5 -25v-340h-100v496h100z" />
    <glyph glyph-name="n" unicode="n" 
d="M54 496l99.998 -0.000976562v-45c8.66699 12 17.834 21.5 27.501 28.5s19 12.333 28 16s17.167 6 24.5 7s13.666 1.5 18.999 1.5c17.333 0 32 -2.66699 44 -8s22 -12.333 30 -21c13.333 -13.333 21.5 -27.666 24.5 -42.999s4.5 -29 4.5 -41v-391h-100v351
c0 6 -0.666992 12.5 -2 19.5s-5 13.833 -11 20.5c-9.33301 10 -21 15 -35 15c-9.33301 0 -17.166 -1.83301 -23.499 -5.5s-11.166 -7.16699 -14.499 -10.5c-7.33301 -8 -11.833 -16.333 -13.5 -25s-2.5 -17 -2.5 -25v-340h-100v496z" />
    <glyph glyph-name="o" unicode="o" horiz-adv-x="402" 
d="M50 336c0 10 0.333008 20.667 1 32s2.66699 22.833 6 34.5s8.33301 23.167 15 34.5s15.667 22 27 32c13.333 11.333 29 20 47 26s36.333 9 55 9s37 -3 55 -9s33.667 -14.667 47 -26c11.333 -10 20.333 -20.667 27 -32s11.667 -22.833 15 -34.5s5.33301 -23.167 6 -34.5
s1 -22 1 -32v-176c0 -10 -0.333008 -20.667 -1 -32s-2.66699 -22.833 -6 -34.5s-8.33301 -23.167 -15 -34.5s-15.667 -22 -27 -32c-13.333 -11.333 -29 -20 -47 -26s-36.333 -9 -55 -9s-37 3 -55 9s-33.667 14.667 -47 26c-11.333 10 -20.333 20.667 -27 32
s-11.667 22.833 -15 34.5s-5.33301 23.167 -6 34.5s-1 22 -1 32v176zM252 342c0 22 -4.99902 38.667 -14.999 50c-9.33301 9.33301 -21.333 14 -36 14s-26.667 -4.66699 -36 -14c-10 -11.333 -15 -28 -15 -50v-188c0 -22 5 -38.667 15 -50
c9.33301 -9.33301 21.333 -14 36 -14c7.33301 0 14.166 1.33301 20.499 4s11.5 6 15.5 10c10 11.333 15 28 15 50v188z" />
    <glyph glyph-name="p" unicode="p" 
d="M154 452l1 -0.000976562c4 6.66699 9 13 15 19s12.333 11.333 19 16c9.33301 6 19.333 10.333 30 13s21 4 31 4c12.667 0 23.667 -1.5 33 -4.5s17.333 -6.5 24 -10.5s12.167 -8.16699 16.5 -12.5s7.5 -7.83301 9.5 -10.5c11.333 -15.333 18 -32.333 20 -51s3 -36 3 -52
v-258c0 -12 -1.5 -25.667 -4.5 -41s-11.167 -29.666 -24.5 -42.999c-10 -10.667 -21.167 -18.167 -33.5 -22.5s-25.833 -6.5 -40.5 -6.5s-27 1.83301 -37 5.5s-19.667 8.16699 -29 13.5c-12.667 7.33301 -23.667 17 -33 29v-244h-100v700h100v-44zM154 155.999
c0 -8 0.833008 -16.333 2.5 -25s6.16699 -17 13.5 -25c3.33301 -3.33301 8.16602 -6.83301 14.499 -10.5s14.166 -5.5 23.499 -5.5c14 0 25.667 5 35 15c6 6.66699 9.66699 13.5 11 20.5s2 13.5 2 19.5v201c0 8.66699 -0.5 16.5 -1.5 23.5s-4.83301 14.167 -11.5 21.5
c-9.33301 10 -21 15 -35 15c-9.33301 0 -17.166 -1.83301 -23.499 -5.5s-11.166 -7.16699 -14.499 -10.5c-7.33301 -8 -11.833 -16.333 -13.5 -25s-2.5 -17 -2.5 -25v-184z" />
    <glyph glyph-name="q" unicode="q" 
d="M356 496v-699.999h-100v244c-9.33301 -12 -20.333 -21.667 -33 -29c-9.33301 -5.33301 -19 -9.83301 -29 -13.5s-22.333 -5.5 -37 -5.5s-28.167 2.16699 -40.5 6.5s-23.5 11.833 -33.5 22.5c-13.333 13.333 -21.5 27.666 -24.5 42.999s-4.5 29 -4.5 41v258
c0 16 1 33.333 3 52s8.66699 35.667 20 51c2 2.66699 5.16699 6.16699 9.5 10.5s9.83301 8.5 16.5 12.5s14.667 7.5 24 10.5s20.333 4.5 33 4.5c10 0 20.333 -1.33301 31 -4s20.667 -7 30 -13c6.66699 -4.66699 13 -10 19 -16s11 -12.333 15 -19h1v44h100zM256 340.001
c0 8 -0.833008 16.333 -2.5 25s-6.16699 17 -13.5 25c-3.33301 3.33301 -8.16602 6.83301 -14.499 10.5s-14.166 5.5 -23.499 5.5c-14.667 0 -26.334 -5 -35.001 -15c-6.66699 -7.33301 -10.5 -14.5 -11.5 -21.5s-1.5 -14.833 -1.5 -23.5v-201c0 -6 0.666992 -12.5 2 -19.5
s5 -13.833 11 -20.5c8.66699 -10 20.334 -15 35.001 -15c9.33301 0 17.166 1.83301 23.499 5.5s11.166 7.16699 14.499 10.5c7.33301 8 11.833 16.333 13.5 25s2.5 17 2.5 25v184z" />
    <glyph glyph-name="r" unicode="r" horiz-adv-x="297" 
d="M154 496l-0.000976562 -53.001l2 -1c10 12.667 20.833 23 32.5 31s23.334 14.333 35.001 19s23 7.83398 34 9.50098s20.833 2.5 29.5 2.5v-107c-12 2 -25.667 2.33301 -41 1s-29.833 -5.83301 -43.5 -13.5s-25.167 -19.5 -34.5 -35.5s-14 -37.667 -14 -65v-284h-100v496
h100z" />
    <glyph glyph-name="s" unicode="s" horiz-adv-x="371" 
d="M238 362c-1.33301 14.667 -6.33594 26.6699 -15.0029 36.0029c-8.66699 8.66699 -20.667 13 -36 13c-12.667 0 -24 -4 -34 -12s-15 -20.667 -15 -38c0 -4.66699 0.666992 -9.83398 2 -15.501s4 -11.167 8 -16.5c5.33301 -7.33301 11.5 -12.833 18.5 -16.5
s13.833 -6.83398 20.5 -9.50098l60 -25c12.667 -5.33301 24.667 -12.333 36 -21s20.666 -17.667 27.999 -27s13.333 -21.5 18 -36.5s7 -33.167 7 -54.5c0 -12 -2 -27 -6 -45s-12.667 -35.333 -26 -52c-10.667 -13.333 -25.5 -25 -44.5 -35s-44.5 -15 -76.5 -15
c-30 0 -54.333 4.5 -73 13.5s-33 19.167 -43 30.5c-12.667 13.333 -22 29.333 -28 48s-9 37 -9 55h100c0 -6.66699 1 -13.334 3 -20.001s5.33301 -12.667 10 -18s10.834 -9.33301 18.501 -12s15.167 -4 22.5 -4s14.333 1.33301 21 4s12.667 7 18 13s8.83301 12.5 10.5 19.5
s2.5 13.833 2.5 20.5c0 13.333 -3 24.833 -9 34.5s-19.667 19.167 -41 28.5l-59 25c-19.333 8 -33.666 16.167 -42.999 24.5s-15.666 14.166 -18.999 17.499c-11.333 13.333 -18.666 27.5 -21.999 42.5s-5 28.833 -5 41.5c0 24.667 3.5 46 10.5 64s15.833 32.667 26.5 44
c10 10 23.5 19.167 40.5 27.5s39.167 12.5 66.5 12.5c32 0 57.167 -4.33301 75.5 -13s31.833 -17.667 40.5 -27c12 -12 21.333 -27.167 28 -45.5s10 -37.166 10 -56.499h-98z" />
    <glyph glyph-name="t" unicode="t" horiz-adv-x="255" 
d="M166 647v-150.999h64v-80h-64v-272c0 -5.33301 0.666992 -12.333 2 -21s5.33301 -15.667 12 -21c5.33301 -4.66699 11.666 -7.33398 18.999 -8.00098s13.333 -1 18 -1h13v-93h-27c-7.33301 0 -15.666 0.166992 -24.999 0.5s-18.833 1.66602 -28.5 3.99902
s-19.167 5.83301 -28.5 10.5s-18 11.334 -26 20.001c-14 15.333 -22.333 32 -25 50s-4 34.667 -4 50v281h-51v80h51v151h100z" />
    <glyph glyph-name="u" unicode="u" 
d="M356 0l-100.002 -0.000976562v50c-1.33301 -1.33301 -5.16602 -6 -11.499 -14s-14.166 -15.667 -23.499 -23c-20 -14 -43 -21 -69 -21c-21.333 0 -38.166 4 -50.499 12s-21.5 16.333 -27.5 25c-8 11.333 -13.333 23.833 -16 37.5s-4 26.5 -4 38.5v391h100v-351
c0 -7.33301 0.666992 -14.666 2 -21.999s4.66602 -14 9.99902 -20c3.33301 -3.33301 7.5 -6.33301 12.5 -9s11.5 -4 19.5 -4c9.33301 0 17.5 1.66699 24.5 5s12.833 7.66602 17.5 12.999c7.33301 8 11.833 16.333 13.5 25s2.5 16.334 2.5 23.001v340h100v-496z" />
    <glyph glyph-name="v" unicode="v" horiz-adv-x="357" 
d="M220 0h-80l-132 496h105l67 -315h5l67 315h100z" />
    <glyph glyph-name="w" unicode="w" horiz-adv-x="545" 
d="M110 496l64 -314l59 314h83l61 -314l62 314h100l-118 -496h-85l-60 304h-5l-60 -304h-85l-118 496h102z" />
    <glyph glyph-name="x" unicode="x" horiz-adv-x="358" 
d="M129 253l-116 243h105l62 -141l62 141h105l-118 -243l124 -253h-105l-68 152l-68 -152h-105z" />
    <glyph glyph-name="y" unicode="y" horiz-adv-x="372" 
d="M118 496l81.001 -307.998h4l62 308h100l-136 -563c-3.33301 -14.667 -8.16602 -32.334 -14.499 -53.001s-16.833 -38.334 -31.5 -53.001c-15.333 -14.667 -32 -23.5 -50 -26.5s-34.667 -4.5 -50 -4.5h-26l-2 93h19c7.33301 0 15.166 1.16699 23.499 3.5
s16.166 8.16602 23.499 17.499c2 2.66699 4.5 7.33398 7.5 14.001s6.5 18 10.5 34l16 65l-145 473h108z" />
    <glyph glyph-name="z" unicode="z" horiz-adv-x="339" 
d="M38 496h276v-72l-183 -339h183v-85h-289v82l177 329h-164v85z" />
    <glyph glyph-name="braceleft" unicode="{" horiz-adv-x="266" 
d="M185 408c0 -52.667 -8 -91.3252 -24 -115.992c-4.66699 -7.33301 -11.834 -15.333 -21.501 -24s-23.167 -15.334 -40.5 -20.001c17.333 -4.66699 30.833 -11.334 40.5 -20.001s16.834 -16.667 21.501 -24c8 -12.667 14 -28.334 18 -47.001s6 -41.667 6 -69v-130
c0 -7.33301 0.5 -15.833 1.5 -25.5s3.66699 -18.667 8 -27s10.5 -15.333 18.5 -21s19 -8.5 33 -8.5h10v-80h-16c-19.333 0 -38.833 4 -58.5 12s-36.167 19.333 -49.5 34c-8.66699 9.33301 -15.5 19.5 -20.5 30.5s-8.66699 21.833 -11 32.5s-3.83301 21.167 -4.5 31.5
s-1 19.833 -1 28.5v122c0 9.33301 -0.5 20.666 -1.5 33.999s-3.5 24.666 -7.5 33.999c-5.33301 13.333 -14.166 24.833 -26.499 34.5s-28.833 14.167 -49.5 13.5v90c20.667 -0.666992 37.167 3.83301 49.5 13.5s21.166 21.167 26.499 34.5c4 9.33301 6.5 20.666 7.5 33.999
s1.5 24.666 1.5 33.999v122c0 5.33301 0.166992 12.833 0.5 22.5s1.66602 20.167 3.99902 31.5s6 23 11 35s12.167 23.333 21.5 34c8.66699 10 21.834 20.167 39.501 30.5s40.5 15.5 68.5 15.5h16v-80h-10c-4.66699 0 -11.167 -0.833008 -19.5 -2.5
s-16.166 -6.5 -23.499 -14.5c-8.66699 -9.33301 -13.834 -20.333 -15.501 -33s-2.5 -23.334 -2.5 -32.001v-130z" />
    <glyph glyph-name="bar" unicode="|" horiz-adv-x="190" 
d="M130 710v-914h-70v914h70z" />
    <glyph glyph-name="braceright" unicode="}" horiz-adv-x="266" 
d="M81 538c0 8.66699 -0.830078 19.3252 -2.49707 31.9922s-6.83398 23.667 -15.501 33c-7.33301 8 -15.166 12.833 -23.499 14.5s-14.833 2.5 -19.5 2.5h-10v80h16c28 0 50.833 -5.16699 68.5 -15.5s30.834 -20.5 39.501 -30.5c9.33301 -10.667 16.5 -22 21.5 -34
s8.66699 -23.667 11 -35s3.66602 -21.833 3.99902 -31.5s0.5 -17.167 0.5 -22.5v-122c0 -9.33301 0.5 -20.666 1.5 -33.999s3.5 -24.666 7.5 -33.999c5.33301 -13.333 14.166 -24.833 26.499 -34.5s28.833 -14.167 49.5 -13.5v-90
c-20.667 0.666992 -37.167 -3.83301 -49.5 -13.5s-21.166 -21.167 -26.499 -34.5c-4 -9.33301 -6.5 -20.666 -7.5 -33.999s-1.5 -24.666 -1.5 -33.999v-122c0 -8.66699 -0.333008 -18.167 -1 -28.5s-2.33398 -20.833 -5.00098 -31.5s-6.33398 -21.5 -11.001 -32.5
s-11.334 -21.167 -20.001 -30.5c-13.333 -14.667 -29.833 -26 -49.5 -34s-39.167 -12 -58.5 -12h-16v80h10c14 0 25 2.83301 33 8.5s14.167 12.667 18.5 21s7 17.333 8 27s1.5 18.167 1.5 25.5v130c0 27.333 2 50.333 6 69s10 34.334 18 47.001
c4.66699 7.33301 11.834 15.333 21.501 24s23.167 15.334 40.5 20.001c-17.333 4.66699 -30.833 11.334 -40.5 20.001s-16.834 16.667 -21.501 24c-16 24.667 -24 63.334 -24 116.001v130z" />
    <glyph glyph-name="asciitilde" unicode="~" horiz-adv-x="442" 
d="M388 374v-3c0 -10.667 -1.33301 -23.167 -4 -37.5s-7.66699 -27.166 -15 -38.499c-6 -9.33301 -15.167 -18.333 -27.5 -27s-29.166 -13 -50.499 -13c-12.667 0 -24.334 1.5 -35.001 4.5s-19.667 5.83301 -27 8.5l-20 7c-8 3.33301 -15.667 6.16602 -23 8.49902
s-14.666 3.5 -21.999 3.5c-9.33301 0 -16.333 -1.5 -21 -4.5s-8 -5.83301 -10 -8.5c-2.66699 -3.33301 -4.83398 -7.83301 -6.50098 -13.5s-2.5 -11.167 -2.5 -16.5h-70v3c0 10.667 1.33301 23.167 4 37.5s7.66699 27.166 15 38.499c6 9.33301 15.167 18.333 27.5 27
s29.166 13 50.499 13c12.667 0 24.334 -1.5 35.001 -4.5s19.667 -5.83301 27 -8.5l20 -7c8 -3.33301 15.667 -6.16602 23 -8.49902s14.666 -3.5 21.999 -3.5c9.33301 0 16.333 1.5 21 4.5s8 5.83301 10 8.5c2.66699 3.33301 4.83398 7.83301 6.50098 13.5
s2.5 11.167 2.5 16.5h70z" />
    <glyph glyph-name="afii10052" horiz-adv-x="359" 
d="M60 700h304v-95h-204v-605h-100v700zM133 764l50 105h121l-106 -105h-65z" />
    <glyph glyph-name="afii10061" horiz-adv-x="462" 
d="M160 700v-299.999h57c15.333 0 27.666 7 36.999 21c6.66699 9.33301 11.334 20.833 14.001 34.5s5.33398 32.834 8.00098 57.501l7 63c2 19.333 5.33301 38.5 10 57.5s14.667 35.167 30 48.5c14.667 12.667 30.5 20.167 47.5 22.5s32.167 3.5 45.5 3.5h15v-90h-13
c-4 0 -8.5 -1 -13.5 -3s-9.16699 -4.66699 -12.5 -8c-5.33301 -5.33301 -9.33301 -13.333 -12 -24s-5.33398 -27.334 -8.00098 -50.001l-7 -67c-1.33301 -13.333 -2.83301 -26.333 -4.5 -39s-4.83398 -24.667 -9.50098 -36
c-5.33301 -12.667 -12.666 -22.334 -21.999 -29.001l108 -362h-109l-87 310h-81v-310h-100v700h100zM165 764.001l50 105h121l-106 -105h-65z" />
    <glyph glyph-name="afii10060" horiz-adv-x="519" 
d="M140 0v606.001h-120v94h348v-94h-128v-182h58c8.66699 0 18.5 -0.333008 29.5 -1s22.167 -2.5 33.5 -5.5s22.5 -7.33301 33.5 -13s21.167 -13.5 30.5 -23.5c16.667 -18 27.334 -38.667 32.001 -62s7 -44 7 -62v-257h-100v235c0 10.667 -0.833008 24.167 -2.5 40.5
s-7.83398 29.833 -18.501 40.5c-10 9.33301 -22.167 14.666 -36.5 15.999s-27.833 2 -40.5 2h-26v-334h-100z" />
    <glyph glyph-name="afii10145" horiz-adv-x="400" 
d="M60 700h100v-610h130v610h100v-700h-115v-118h-100v118h-115v700z" />
    <glyph glyph-name="afii10099" horiz-adv-x="458" 
d="M102 549h-48v60h48v91h100v-91h104v-60h-104v-93c9.33301 12 20.333 21.667 33 29c9.33301 5.33301 19 9.83301 29 13.5s22.333 5.5 37 5.5s28.167 -2.16699 40.5 -6.5s23.5 -11.833 33.5 -22.5c13.333 -13.333 21.5 -27.666 24.5 -42.999s4.5 -29 4.5 -41v-438
c0 -20 -0.833008 -39.5 -2.5 -58.5s-8.83398 -36.833 -21.501 -53.5c-8 -10.667 -16.833 -19 -26.5 -25s-19.5 -10.5 -29.5 -13.5s-20 -4.83301 -30 -5.5s-19.667 -1 -29 -1h-32v93h18c10.667 0 19.167 1.66699 25.5 5s11.166 6.66602 14.499 9.99902
c6.66699 7.33301 10.5 15 11.5 23s1.5 15 1.5 21v403c0 6 -0.666992 12.5 -2 19.5s-5 13.833 -11 20.5c-9.33301 10 -21 15 -35 15c-9.33301 0 -17.166 -1.83301 -23.499 -5.5s-11.166 -7.16699 -14.499 -10.5c-7.33301 -8 -11.833 -16.333 -13.5 -25s-2.5 -17 -2.5 -25
v-340h-100v549z" />
    <glyph glyph-name="afii10109" horiz-adv-x="403" 
d="M186 296c10.667 0 18.998 1.5 24.998 4.5s11.667 9.5 17 19.5c4 8 6.83301 16.167 8.5 24.5s3.16699 16.166 4.5 23.499l6 36c1.33301 9.33301 3.66602 20 6.99902 32s8.66602 22.667 15.999 32c10.667 14.667 23.667 23.834 39 27.501s31 5.5 47 5.5h23v-85h-13
c-6 0 -11.167 -1 -15.5 -3s-7.83301 -4.33301 -10.5 -7c-2 -2.66699 -4 -6.5 -6 -11.5s-3.66699 -12.5 -5 -22.5l-5 -37c-1.33301 -11.333 -2.66602 -21.666 -3.99902 -30.999s-3.66602 -17.666 -6.99902 -24.999c-3.33301 -6.66699 -6.66602 -11.834 -9.99902 -15.501
s-6.66602 -6.83398 -9.99902 -9.50098l90 -254h-101l-72 212h-56v-212h-100v496h100v-200h32zM150.998 578l44 122h107l-94 -122h-57z" />
    <glyph glyph-name="afii10108" horiz-adv-x="458" 
d="M102 549l-48.002 -0.000976562v60h48v91h100v-91h104v-60h-104v-93c9.33301 12 20.333 21.667 33 29c9.33301 5.33301 19 9.83301 29 13.5s22.333 5.5 37 5.5s28.167 -2.16699 40.5 -6.5s23.5 -11.833 33.5 -22.5c13.333 -13.333 21.5 -27.666 24.5 -42.999
s4.5 -29 4.5 -41v-391h-100v351c0 6 -0.666992 12.5 -2 19.5s-5 13.833 -11 20.5c-9.33301 10 -21 15 -35 15c-9.33301 0 -17.166 -1.83301 -23.499 -5.5s-11.166 -7.16699 -14.499 -10.5c-7.33301 -8 -11.833 -16.333 -13.5 -25s-2.5 -17 -2.5 -25v-340h-100v549z" />
    <glyph glyph-name="nonbreakingspace" unicode="&#xa0;" horiz-adv-x="233" 
 />
    <glyph glyph-name="afii10062" unicode="&#xa1;" horiz-adv-x="382" 
d="M117 700l95.999 -343.002h3c1.33301 9.33301 3 20.166 5 32.499s4.16699 25 6.5 38s4.83301 25.833 7.5 38.5l7 34l44 200h103l-119 -478c-5.33301 -19.333 -10.333 -39.166 -15 -59.499s-10.167 -39.666 -16.5 -57.999s-14.333 -35 -24 -50
s-21.834 -26.833 -36.501 -35.5c-15.333 -9.33301 -30.166 -14.833 -44.499 -16.5s-28.166 -2.5 -41.499 -2.5h-36v95h25c20.667 0 36 5.66699 46 17c4 4 8 10.333 12 19s6.66699 16.334 8 23.001l13 59l-157 487h114zM327.999 856.998c0 -20 -3.16699 -36.5 -9.5 -49.5
s-13.166 -23.167 -20.499 -30.5c-10 -9.33301 -23 -16.333 -39 -21s-33.667 -7 -53 -7s-37 2.33301 -53 7s-29 11.667 -39 21c-7.33301 7.33301 -14.166 17.5 -20.499 30.5s-9.5 29.5 -9.5 49.5v12h80v-9c0 -4 0.666992 -8.5 2 -13.5s4.66602 -9.83301 9.99902 -14.5
c4.66699 -4 9.5 -6.5 14.5 -7.5s10.167 -1.5 15.5 -1.5s10.5 0.5 15.5 1.5s9.83301 3.5 14.5 7.5c5.33301 4.66699 8.66602 9.5 9.99902 14.5s2 9.5 2 13.5v9h80v-12z" />
    <glyph glyph-name="afii10110" unicode="&#xa2;" horiz-adv-x="372" 
d="M118 496l81.001 -307.998h4l62 308h100l-136 -563c-3.33301 -14.667 -8.16602 -32.334 -14.499 -53.001s-16.833 -38.334 -31.5 -53.001c-15.333 -14.667 -32 -23.5 -50 -26.5s-34.667 -4.5 -50 -4.5h-26l-2 93h19c7.33301 0 15.166 1.16699 23.499 3.5
s16.166 8.16602 23.499 17.499c2 2.66699 4.5 7.33398 7.5 14.001s6.5 18 10.5 34l16 65l-145 473h108zM298.001 681.002c0 -13.333 -1.66699 -27.833 -5 -43.5s-11.666 -30.167 -24.999 -43.5c-12.667 -12.667 -26.834 -20.5 -42.501 -23.5s-29.5 -4.5 -41.5 -4.5
s-25.833 1.5 -41.5 4.5s-29.834 10.833 -42.501 23.5c-13.333 13.333 -21.666 27.833 -24.999 43.5s-5 30.167 -5 43.5v13h74v-15c0 -3.33301 0.333008 -7.16602 1 -11.499s1.66699 -7.83301 3 -10.5c1.33301 -4 4.83301 -8.33301 10.5 -13s14.167 -7 25.5 -7
s19.833 2.33301 25.5 7s9.16699 9 10.5 13c1.33301 2.66699 2.33301 6.16699 3 10.5s1 8.16602 1 11.499v15h74v-13z" />
    <glyph glyph-name="afii10057" unicode="&#xa3;" horiz-adv-x="361" 
d="M301 700l0.000976562 -502.001c0 -12.667 -0.333008 -26 -1 -40s-2.66699 -28 -6 -42s-8.5 -28 -15.5 -42s-16.5 -27 -28.5 -39c-20 -20 -41.167 -32.5 -63.5 -37.5s-43.833 -7.5 -64.5 -7.5c-6.66699 0 -15 0.5 -25 1.5s-21 3.5 -33 7.5s-24.333 10 -37 18
s-25 19 -37 33l77 65c8.66699 -12 18.334 -19.5 29.001 -22.5s19.667 -4.5 27 -4.5c11.333 0 22.166 1.83301 32.499 5.5s19.166 10.5 26.499 20.5c8 10.667 13.167 22.334 15.5 35.001s3.5 24.667 3.5 36v515h100z" />
    <glyph glyph-name="currency" unicode="&#xa4;" horiz-adv-x="592" 
d="M125 236c-14 22.667 -22.5039 43.667 -25.5039 63s-4.5 33.666 -4.5 42.999s1.5 23.666 4.5 42.999s11.5 40.333 25.5 63l-74 73l63 64l74 -74c6.66699 5.33301 18.5 12 35.5 20s41.167 12 72.5 12s55.5 -4 72.5 -12s28.833 -14.667 35.5 -20l74 74l63 -64l-74 -73
c2.66699 -3.33301 5.83398 -7.66602 9.50098 -12.999s7 -12 10 -20s5.5 -18 7.5 -30s3 -26.333 3 -43c0 -33.333 -3.66699 -57.666 -11 -72.999s-13.666 -26.333 -18.999 -33l74 -74l-63 -63l-74 74c-7.33301 -5.33301 -19.666 -12 -36.999 -20s-41 -12 -71 -12
s-53.667 4 -71 12s-29.666 14.667 -36.999 20l-74 -74l-63 63zM172.996 342c0 -17.333 3.33105 -33.5 9.99805 -48.5s15.5 -28 26.5 -39s24 -19.667 39 -26s30.833 -9.5 47.5 -9.5s32.5 3.16699 47.5 9.5s28 15 39 26s19.833 24 26.5 39s10 31.167 10 48.5
c0 16.667 -3.16699 32.5 -9.5 47.5s-15.166 28 -26.499 39s-24.5 19.833 -39.5 26.5s-30.833 10 -47.5 10c-17.333 0 -33.333 -3.33301 -48 -10s-27.667 -15.5 -39 -26.5s-20.166 -24 -26.499 -39s-9.5 -30.833 -9.5 -47.5z" />
    <glyph glyph-name="afii10050" unicode="&#xa5;" horiz-adv-x="389" 
d="M60 700h204v64h100v-159h-204v-605h-100v700z" />
    <glyph glyph-name="brokenbar" unicode="&#xa6;" horiz-adv-x="190" 
d="M130 163v-367h-70v367h70zM130 710v-367h-70v367h70z" />
    <glyph glyph-name="section" unicode="&#xa7;" horiz-adv-x="406" 
d="M262 551c0 5.33301 -0.999023 11 -2.99902 17s-4.66699 11 -8 15c-3.33301 5.33301 -8.83301 9.83301 -16.5 13.5s-17.167 5.5 -28.5 5.5c-14 0 -24.667 -3 -32 -9c-11.333 -8 -17 -19.333 -17 -34c0 -9.33301 2.33301 -17.5 7 -24.5s10.334 -13 17.001 -18
s14 -9.33301 22 -13s15 -7.16699 21 -10.5l41 -21c15.333 -8 30.666 -17 45.999 -27s28.666 -23.667 39.999 -41c7.33301 -11.333 12.5 -23.333 15.5 -36s4.5 -25.667 4.5 -39c0 -16.667 -2.33301 -30.5 -7 -41.5s-9.66699 -20.167 -15 -27.5
c-6 -8 -13.167 -15.5 -21.5 -22.5s-15.833 -12.5 -22.5 -16.5c16 -16 27.333 -31.833 34 -47.5s10 -33.834 10 -54.501c0 -28 -5.66699 -50 -17 -66s-23 -28.333 -35 -37c-11.333 -7.33301 -25 -13.5 -41 -18.5s-34.333 -7.5 -55 -7.5c-21.333 0 -41.333 3.16699 -60 9.5
s-36 17.5 -52 33.5c-15.333 15.333 -25.833 31.333 -31.5 48s-8.5 34.667 -8.5 54v13h95v-9c0 -5.33301 1 -11 3 -17s4.66699 -11 8 -15c3.33301 -5.33301 8.83301 -9.83301 16.5 -13.5s17.167 -5.5 28.5 -5.5c14 0 24.667 3 32 9c11.333 8 17 19.333 17 34
c0 9.33301 -2.33301 17.5 -7 24.5s-10.334 13 -17.001 18s-14 9.33301 -22 13s-15 7.16699 -21 10.5l-41 21c-15.333 8 -30.666 17 -45.999 27s-28.666 23.667 -39.999 41c-6 9.33301 -10.833 20.333 -14.5 33s-5.5 26.667 -5.5 42c0 13.333 2.16699 26.333 6.5 39
s11.166 24.667 20.499 36c5.33301 6 11.5 11.833 18.5 17.5s13.833 10.834 20.5 15.501c-15.333 13.333 -26.5 27.833 -33.5 43.5s-10.5 35.167 -10.5 58.5c0 28 5.83301 50.167 17.5 66.5s23.167 28.5 34.5 36.5c11.333 7.33301 25 13.5 41 18.5s34.333 7.5 55 7.5
c21.333 0 41.333 -3.16699 60 -9.5s36 -17.5 52 -33.5c15.333 -15.333 25.833 -31.333 31.5 -48s8.5 -34.667 8.5 -54v-13h-95v9zM168.001 420c-4 -3.33301 -8.49902 -7.66602 -13.499 -12.999s-9.16699 -10.666 -12.5 -15.999c-4.66699 -8.66699 -7 -17.667 -7 -27
c0 -13.333 4 -25 12 -35c5.33301 -6.66699 12.333 -12.5 21 -17.5l21 -12.5l47 -24c10 6.66699 18 14 24 22c5.33301 7.33301 8.5 14.166 9.5 20.499s1.5 10.166 1.5 11.499c0 5.33301 -0.833008 11.333 -2.5 18s-4.83398 12.667 -9.50098 18
c-5.33301 6.66699 -12.333 12.5 -21 17.5l-21 12.5z" />
    <glyph glyph-name="afii10023" unicode="&#xa8;" horiz-adv-x="395" 
d="M60 700h297v-95h-197v-206h174v-90h-174v-214h200v-95h-300v700zM183 870v-106h-102v106h102zM339 870v-106h-102v106h102z" />
    <glyph glyph-name="copyright" unicode="&#xa9;" horiz-adv-x="682" 
d="M450 460h-75.999v10c0 3.33301 -0.333008 7.33301 -1 12s-2.66699 9 -6 13c-6 7.33301 -14.667 11 -26 11s-20 -3.66699 -26 -11c-3.33301 -4 -5.33301 -8.33301 -6 -13s-1 -8.66699 -1 -12v-112c0 -3.33301 0.333008 -7.33301 1 -12s2.66699 -9 6 -13
c6 -7.33301 14.667 -11 26 -11c5.33301 0 10.333 1 15 3s8.66699 4.66699 12 8s5.16602 7.5 5.49902 12.5s0.5 9.16699 0.5 12.5v10h76v-9c0 -16 -1.83301 -30.333 -5.5 -43s-12.167 -24.334 -25.5 -35.001c-12 -10 -24.667 -16.667 -38 -20s-26.666 -5 -39.999 -5
s-26.666 1.66699 -39.999 5s-26 10 -38 20c-13.333 10.667 -21.833 22.334 -25.5 35.001s-5.5 27 -5.5 43v110c0 16 1.83301 30.333 5.5 43s12.167 24.334 25.5 35.001c12 10 24.667 16.667 38 20s26.666 5 39.999 5s26.666 -1.66699 39.999 -5s26 -10 38 -20
c13.333 -10.667 21.833 -22.334 25.5 -35.001s5.5 -27 5.5 -43v-9zM107.001 414c0 -32.667 6.16699 -63.167 18.5 -91.5s29 -53 50 -74s45.667 -37.667 74 -50s58.833 -18.5 91.5 -18.5s63.167 6.16699 91.5 18.5s53 29 74 50s37.667 45.667 50 74s18.5 58.833 18.5 91.5
s-6.16699 63.167 -18.5 91.5s-29 53 -50 74s-45.667 37.667 -74 50s-58.833 18.5 -91.5 18.5s-63.167 -6.16699 -91.5 -18.5s-53 -29 -74 -50s-37.667 -45.667 -50 -74s-18.5 -58.833 -18.5 -91.5zM45.001 414c0 40.667 7.83301 79 23.5 115s36.834 67.333 63.501 94
s58 47.834 94 63.501s74.333 23.5 115 23.5s79 -7.83301 115 -23.5s67.333 -36.834 94 -63.501s47.834 -58 63.501 -94s23.5 -74.333 23.5 -115s-7.83301 -79 -23.5 -115s-36.834 -67.333 -63.501 -94s-58 -47.834 -94 -63.501s-74.333 -23.5 -115 -23.5
s-79 7.83301 -115 23.5s-67.333 36.834 -94 63.501s-47.834 58 -63.501 94s-23.5 74.333 -23.5 115z" />
    <glyph glyph-name="afii10053" unicode="&#xaa;" horiz-adv-x="414" 
d="M284 501l-0.000976562 42.002c0 20 -5.66699 36.5 -17 49.5s-27.333 19.5 -48 19.5c-19.333 0 -35.666 -5.16699 -48.999 -15.5s-20 -24.166 -20 -41.499v-145h124v-90h-124v-157c0 -6 0.166992 -13.167 0.5 -21.5s2.5 -16.5 6.5 -24.5s10.5 -14.833 19.5 -20.5
s22.167 -8.5 39.5 -8.5c21.333 0 38 5.16699 50 15.5s18 27.166 18 50.499v40h100v-65c0 -15.333 -2.5 -31.166 -7.5 -47.499s-13.833 -31.333 -26.5 -45s-29.334 -24.834 -50.001 -33.501s-46.667 -13 -78 -13c-41.333 0 -73.5 6.33301 -96.5 19s-40.167 28.167 -51.5 46.5
s-18.166 37.666 -20.499 57.999s-3.5 38.166 -3.5 53.499v397c0 26.667 5 49.334 15 68.001s23 33.667 39 45s34.167 19.666 54.5 24.999s40.833 8 61.5 8s41 -3 61 -9s37.5 -15 52.5 -27s27.167 -27.167 36.5 -45.5s14 -39.833 14 -64.5v-63h-100z" />
    <glyph glyph-name="guillemotleft" unicode="&#xab;" horiz-adv-x="448" 
d="M423 377l-101 -100l101 -100v-102l-203 202l203 202v-102zM238 377l-101 -100l101 -100v-102l-203 202l203 202v-102z" />
    <glyph glyph-name="logicalnot" unicode="&#xac;" horiz-adv-x="686" 
d="M549 162h-80v164h-328v61h408v-225z" />
    <glyph glyph-name="hyphen" unicode="&#xad;" horiz-adv-x="314" 
d="M269 351v-90h-224v90h224z" />
    <glyph glyph-name="registered" unicode="&#xae;" horiz-adv-x="682" 
d="M107 414c0 -32.667 6.16699 -63.167 18.5 -91.5s29 -53 50 -74s45.667 -37.667 74 -50s58.833 -18.5 91.5 -18.5s63.167 6.16699 91.5 18.5s53 29 74 50s37.667 45.667 50 74s18.5 58.833 18.5 91.5s-6.16699 63.167 -18.5 91.5s-29 53 -50 74s-45.667 37.667 -74 50
s-58.833 18.5 -91.5 18.5s-63.167 -6.16699 -91.5 -18.5s-53 -29 -74 -50s-37.667 -45.667 -50 -74s-18.5 -58.833 -18.5 -91.5zM241 572l110 -0.000976562c12 0 24.833 -1 38.5 -3s26.5 -7.66699 38.5 -17c13.333 -10 21.833 -21.167 25.5 -33.5s5.5 -24.833 5.5 -37.5v-19
c0 -8 -1 -17.167 -3 -27.5s-7.33301 -20.166 -16 -29.499c-1.33301 -2 -4 -4.5 -8 -7.5s-9 -5.83301 -15 -8.5l56 -133h-82l-45 117h-29v-117h-76v316zM344 437.999c3.33301 0 8 0.332031 14 0.999023s11.333 3.33398 16 8.00098c6 6 9 14 9 24
c0 12.667 -3.66699 21.667 -11 27c-4.66699 3.33301 -9.5 5.5 -14.5 6.5s-9.5 1.5 -13.5 1.5h-27v-68h27zM45 413.998c0 40.667 7.83301 79 23.5 115s36.834 67.333 63.501 94s58 47.834 94 63.501s74.333 23.5 115 23.5s79 -7.83301 115 -23.5s67.333 -36.834 94 -63.501
s47.834 -58 63.501 -94s23.5 -74.333 23.5 -115s-7.83301 -79 -23.5 -115s-36.834 -67.333 -63.501 -94s-58 -47.834 -94 -63.501s-74.333 -23.5 -115 -23.5s-79 7.83301 -115 23.5s-67.333 36.834 -94 63.501s-47.834 58 -63.501 94s-23.5 74.333 -23.5 115z" />
    <glyph glyph-name="afii10056" unicode="&#xaf;" horiz-adv-x="220" 
d="M160 700v-700h-100v700h100zM79 764h-95v100h95v-100zM141 864h95v-100h-95v100z" />
    <glyph glyph-name="degree" unicode="&#xb0;" horiz-adv-x="330" 
d="M25 543c0 13.333 2.66699 29.333 8 48s16.666 36.334 33.999 53.001c14.667 14 30.5 24 47.5 30s33.833 9 50.5 9c18 0 36 -3.33301 54 -10s34 -17.667 48 -33c11.333 -12 20.5 -26.167 27.5 -42.5s10.5 -34.5 10.5 -54.5c0 -19.333 -3.16699 -37 -9.5 -53
s-14.5 -29.667 -24.5 -41c-11.333 -13.333 -26.333 -24.333 -45 -33s-39 -13 -61 -13c-19.333 0 -37.166 3.16699 -53.499 9.5s-30.166 14.833 -41.499 25.5c-12.667 11.333 -23.334 26.166 -32.001 44.499s-13 38.5 -13 60.5zM85 543c0 -22 7.83301 -40.833 23.5 -56.5
s34.5 -23.5 56.5 -23.5s40.833 7.83301 56.5 23.5s23.5 34.5 23.5 56.5s-7.83301 40.833 -23.5 56.5s-34.5 23.5 -56.5 23.5s-40.833 -7.83301 -56.5 -23.5s-23.5 -34.5 -23.5 -56.5z" />
    <glyph glyph-name="plusminus" unicode="&#xb1;" horiz-adv-x="514" 
d="M217 331v157h80v-157h157v-80h-157v-127h-80v127h-157v80h157zM454 80v-80h-394v80h394z" />
    <glyph glyph-name="afii10055" unicode="&#xb2;" horiz-adv-x="220" 
d="M160 700v-700h-100v700h100z" />
    <glyph glyph-name="afii10103" unicode="&#xb3;" horiz-adv-x="208" 
d="M54 496h100v-496h-100v496zM154 686v-98h-100v98h100z" />
    <glyph glyph-name="afii10098" unicode="&#xb4;" horiz-adv-x="318" 
d="M54 496h149v48h100v-146h-149v-398h-100v496z" />
    <glyph glyph-name="mu" unicode="&#xb5;" horiz-adv-x="420" 
d="M366 0l-99.999 0.000976562v50c-2 -4.66699 -4.83301 -10.334 -8.5 -17.001s-8.33398 -13 -14.001 -19s-12.667 -11.167 -21 -15.5s-18.166 -6.5 -29.499 -6.5c-8.66699 0 -16 1.33301 -22 4s-11.667 5.66699 -17 9v-209h-100v700h100v-351
c0 -6 0.666992 -12.833 2 -20.5s5.66602 -14.834 12.999 -21.501c8.66699 -8.66699 20 -13 34 -13c8 0 16.167 1.5 24.5 4.5s15.5 7.5 21.5 13.5c8 8 12.833 16.333 14.5 25s2.5 16.334 2.5 23.001v340h100v-496z" />
    <glyph glyph-name="paragraph" unicode="&#xb6;" horiz-adv-x="490" 
d="M475 630l-61.001 0.00195312v-834h-72v834h-74v-834h-72v491h-12c-7.33301 0 -15.5 0.5 -24.5 1.5s-18.167 2.83301 -27.5 5.5s-18.666 6.5 -27.999 11.5s-18.333 11.833 -27 20.5c-18 17.333 -29.167 36 -33.5 56s-6.5 37 -6.5 51v120c0 31.333 5.5 55.666 16.5 72.999
s21.167 29.666 30.5 36.999c13.333 11.333 30.833 20.333 52.5 27s43.167 10 64.5 10h274v-70z" />
    <glyph glyph-name="periodcentered" unicode="&#xb7;" horiz-adv-x="340" 
d="M100 350c0 19.333 6.83301 35.833 20.5 49.5s30.167 20.5 49.5 20.5s35.833 -6.83301 49.5 -20.5s20.5 -30.167 20.5 -49.5s-6.83301 -35.833 -20.5 -49.5s-30.167 -20.5 -49.5 -20.5s-35.833 6.83301 -49.5 20.5s-20.5 30.167 -20.5 49.5z" />
    <glyph glyph-name="periodcentered" unicode="&#x2219;" horiz-adv-x="340" 
d="M100 350c0 19.333 6.83301 35.833 20.5 49.5s30.167 20.5 49.5 20.5s35.833 -6.83301 49.5 -20.5s20.5 -30.167 20.5 -49.5s-6.83301 -35.833 -20.5 -49.5s-30.167 -20.5 -49.5 -20.5s-35.833 6.83301 -49.5 20.5s-20.5 30.167 -20.5 49.5z" />
    <glyph glyph-name="afii10071" unicode="&#xb8;" horiz-adv-x="399" 
d="M150 147c0 -7.33301 0.664062 -14.834 1.99707 -22.501s5 -14.5 11 -20.5c8 -9.33301 20.667 -14 38 -14s30.666 7 39.999 21c6 10 9 21.333 9 34h100v-4c0 -9.33301 -0.666992 -19.166 -2 -29.499s-4 -20.833 -8 -31.5s-9.66699 -21.167 -17 -31.5
s-17 -19.833 -29 -28.5c-12.667 -9.33301 -27 -16.333 -43 -21s-32.667 -7 -50 -7c-23.333 0 -45 4.33301 -65 13s-36.667 20.334 -50 35.001c-8.66699 10 -15.5 20.333 -20.5 31s-8.66699 21.334 -11 32.001s-3.66602 21 -3.99902 31s-0.5 18.667 -0.5 26v190
c0 8.66699 0.5 18.167 1.5 28.5s3.33301 20.666 7 30.999s8.66699 20.666 15 30.999s14.833 20.166 25.5 29.499c11.333 10 25.333 18.167 42 24.5s35.667 9.5 57 9.5s40.833 -3.16699 58.5 -9.5s32.834 -15.166 45.501 -26.499c10.667 -9.33301 19.334 -19.5 26.001 -30.5
s11.834 -22 15.501 -33s6 -21.833 7 -32.5s1.5 -21 1.5 -31v-130h-202v-64zM251.997 287.999l-0.00195312 64.999c0 6.66699 -0.833008 13.334 -2.5 20.001s-5.5 13 -11.5 19c-9.33301 9.33301 -21.666 14 -36.999 14c-16.667 0 -29.667 -5.66699 -39 -17
c-5.33301 -6 -8.66602 -12.5 -9.99902 -19.5s-2 -13.833 -2 -20.5v-61h102zM173.995 684.998v-106h-102v106h102zM329.995 684.998v-106h-102v106h102z" />
    <glyph glyph-name="afii61352" unicode="&#xb9;" horiz-adv-x="757" 
d="M160 700l167 -440v440h100v-700h-100l-167 440v-440h-100v700h100zM712 350c0 -15.333 -2 -29.666 -6 -42.999s-12 -25.666 -24 -36.999c-11.333 -10.667 -23.666 -17.667 -36.999 -21s-26.333 -5 -39 -5s-25.667 1.66699 -39 5s-25.666 10.333 -36.999 21
c-12 11.333 -20 23.666 -24 36.999s-6 27.666 -6 42.999v153c0 15.333 2 29.666 6 42.999s12 25.666 24 36.999c11.333 10.667 23.666 17.667 36.999 21s26.333 5 39 5s25.667 -1.66699 39 -5s25.666 -10.333 36.999 -21c12 -11.333 20 -23.666 24 -36.999
s6 -27.666 6 -42.999v-153zM578 349c0 -2.66699 0.166992 -6.33398 0.5 -11.001s2.16602 -8.66699 5.49902 -12c6 -6 13.333 -9 22 -9s16 3 22 9c3.33301 3.33301 5.16602 7.33301 5.49902 12s0.5 8.33398 0.5 11.001v155c0 2.66699 -0.166992 6.33398 -0.5 11.001
s-2.16602 8.66699 -5.49902 12c-6 6 -13.333 9 -22 9s-16 -3 -22 -9c-3.33301 -3.33301 -5.16602 -7.33301 -5.49902 -12s-0.5 -8.33398 -0.5 -11.001v-155zM712 187v-73h-212v73h212z" />
    <glyph glyph-name="afii10101" unicode="&#xba;" horiz-adv-x="379" 
d="M249 346l-0.00683594 8.00195c0 5.33301 -1 11 -3 17s-4.66699 11.333 -8 16c-3.33301 5.33301 -8.33301 9.83301 -15 13.5s-15 5.5 -25 5.5c-6 0 -12.5 -1 -19.5 -3s-13.5 -6.66699 -19.5 -14s-9.83301 -15 -11.5 -23s-2.5 -16.333 -2.5 -25v-45h98v-90h-98v-57
c0 -7.33301 0.833008 -14.833 2.5 -22.5s4.83398 -14.167 9.50098 -19.5c2.66699 -3.33301 7.16699 -7 13.5 -11s15.5 -6 27.5 -6c5.33301 0 11.833 1 19.5 3s14.5 6.66699 20.5 14c3.33301 4 6 9.16699 8 15.5s3 12.166 3 17.499v8h100v-9c0 -14.667 -1.5 -28 -4.5 -40
s-7 -22.5 -12 -31.5s-10.5 -17 -16.5 -24s-11.667 -12.833 -17 -17.5c-11.333 -9.33301 -25.166 -17.333 -41.499 -24s-35.833 -10 -58.5 -10s-44.167 3.66699 -64.5 11s-37.166 18 -50.499 32c-10 10 -17.667 20.5 -23 31.5s-9.16602 22.167 -11.499 33.5
s-3.66602 22.666 -3.99902 33.999s-0.5 22.333 -0.5 33v171c0 10 0.5 20.5 1.5 31.5s3 22.167 6 33.5s7.5 22.5 13.5 33.5s14.333 21.167 25 30.5s24.334 17.833 41.001 25.5s37.334 11.5 62.001 11.5c24 0 46 -3.83301 66 -11.5s36.333 -18.167 49 -31.5
c13.333 -14 23.333 -31.333 30 -52s10 -40.667 10 -60v-3h-100z" />
    <glyph glyph-name="guillemotright" unicode="&#xbb;" horiz-adv-x="448" 
d="M228 277l-203 -202v102l101 100l-101 100v102zM413 277l-203 -202v102l101 100l-101 100v102z" />
    <glyph glyph-name="afii10105" unicode="&#xbc;" horiz-adv-x="210" 
d="M156 -47c0 -18.667 -0.999023 -38.499 -2.99902 -59.499s-11.667 -41.167 -29 -60.5c-16.667 -18 -34.5 -28.667 -53.5 -32s-36.833 -5 -53.5 -5h-32v98h18c10.667 0 19.167 1.66699 25.5 5s11.166 6.66602 14.499 9.99902c6.66699 7.33301 10.5 15 11.5 23
s1.5 15 1.5 21v543h100v-543zM156.001 686.001v-98h-100v98h100z" />
    <glyph glyph-name="afii10054" unicode="&#xbd;" horiz-adv-x="440" 
d="M291 525c0 7.33301 -0.833008 17.3311 -2.5 29.998s-6.5 24 -14.5 34c-4.66699 5.33301 -11 10.5 -19 15.5s-19.333 7.5 -34 7.5c-7.33301 0 -15.333 -1.16699 -24 -3.5s-17 -7.5 -25 -15.5c-9.33301 -10 -15.166 -21.5 -17.499 -34.5s-3.5 -25.167 -3.5 -36.5
c0 -9.33301 1 -21.5 3 -36.5s6.33301 -27.167 13 -36.5c5.33301 -8.66699 12.5 -15.167 21.5 -19.5l24.5 -11.5l61 -22c15.333 -5.33301 31 -12.166 47 -20.499s30.667 -21.5 44 -39.5c13.333 -18.667 21.666 -38 24.999 -58s5 -41 5 -63v-24c0 -36 -4.33301 -67 -13 -93
s-20.334 -46.667 -35.001 -62c-13.333 -13.333 -31 -24.333 -53 -33s-47.667 -13 -77 -13c-36 0 -65.5 6.16699 -88.5 18.5s-40.167 26.5 -51.5 42.5c-8 10.667 -14.167 22.334 -18.5 35.001s-7.5 24.834 -9.5 36.501s-3.16699 21.834 -3.5 30.501s-0.5 14 -0.5 16v23h100
v-19c0 -8 0.833008 -18 2.5 -30s6.16699 -22.667 13.5 -32c8.66699 -10.667 18.334 -17.167 29.001 -19.5s19.334 -3.5 26.001 -3.5c19.333 0 33.666 2.83301 42.999 8.5s16 11.167 20 16.5c7.33301 9.33301 11.833 20.5 13.5 33.5s2.5 24.833 2.5 35.5v26
c0 12 -1 24.667 -3 38s-6.33301 24.666 -13 33.999s-15 16.333 -25 21s-17.667 8 -23 10l-73 26c-18 6.66699 -35.333 15.5 -52 26.5s-30 28.167 -40 51.5c-7.33301 16 -11.666 32.667 -12.999 50s-2 34.666 -2 51.999v20c0 29.333 5 54.833 15 76.5s22.333 39.5 37 53.5
c16.667 16 35.167 27.167 55.5 33.5s42.166 9.5 65.499 9.5c50 0 90.333 -15.5 121 -46.5s46 -75.833 46 -134.5v-23h-100v19z" />
    <glyph glyph-name="afii10102" unicode="&#xbe;" horiz-adv-x="371" 
d="M238 362c-1.33301 14.667 -6.33594 26.6699 -15.0029 36.0029c-8.66699 8.66699 -20.667 13 -36 13c-12.667 0 -24 -4 -34 -12s-15 -20.667 -15 -38c0 -4.66699 0.666992 -9.83398 2 -15.501s4 -11.167 8 -16.5c5.33301 -7.33301 11.5 -12.833 18.5 -16.5
s13.833 -6.83398 20.5 -9.50098l60 -25c12.667 -5.33301 24.667 -12.333 36 -21s20.666 -17.667 27.999 -27s13.333 -21.5 18 -36.5s7 -33.167 7 -54.5c0 -12 -2 -27 -6 -45s-12.667 -35.333 -26 -52c-10.667 -13.333 -25.5 -25 -44.5 -35s-44.5 -15 -76.5 -15
c-30 0 -54.333 4.5 -73 13.5s-33 19.167 -43 30.5c-12.667 13.333 -22 29.333 -28 48s-9 37 -9 55h100c0 -6.66699 1 -13.334 3 -20.001s5.33301 -12.667 10 -18s10.834 -9.33301 18.501 -12s15.167 -4 22.5 -4s14.333 1.33301 21 4s12.667 7 18 13s8.83301 12.5 10.5 19.5
s2.5 13.833 2.5 20.5c0 13.333 -3 24.833 -9 34.5s-19.667 19.167 -41 28.5l-59 25c-19.333 8 -33.666 16.167 -42.999 24.5s-15.666 14.166 -18.999 17.499c-11.333 13.333 -18.666 27.5 -21.999 42.5s-5 28.833 -5 41.5c0 24.667 3.5 46 10.5 64s15.833 32.667 26.5 44
c10 10 23.5 19.167 40.5 27.5s39.167 12.5 66.5 12.5c32 0 57.167 -4.33301 75.5 -13s31.833 -17.667 40.5 -27c12 -12 21.333 -27.167 28 -45.5s10 -37.166 10 -56.499h-98z" />
    <glyph glyph-name="afii10104" unicode="&#xbf;" horiz-adv-x="208" 
d="M54 496h100v-496h-100v496zM73 588h-95v95h95v-95zM135 683h95v-95h-95v95z" />
    <glyph glyph-name="afii10017" unicode="&#xc0;" horiz-adv-x="411" 
d="M304 0l-33 150h-128l-33 -150h-100l153 700h88l153 -700h-100zM205 505l-52 -266h106z" />
    <glyph glyph-name="afii10018" unicode="&#xc1;" horiz-adv-x="431" 
d="M364 700l0.00292969 -95.0029h-204v-188h49c10 0 20.667 -0.166992 32 -0.5s23 -1.66602 35 -3.99902s24.167 -6.16602 36.5 -11.499s24.166 -13.333 35.499 -24c10.667 -10 19 -20.5 25 -31.5s10.333 -21.667 13 -32s4.16699 -20 4.5 -29s0.5 -16.833 0.5 -23.5v-82
c0 -17.333 -1.5 -35.5 -4.5 -54.5s-11.167 -38.5 -24.5 -58.5c-4.66699 -7.33301 -10.834 -14.833 -18.501 -22.5s-17.334 -14.667 -29.001 -21s-26 -11.666 -43 -15.999s-36.833 -6.5 -59.5 -6.5h-152v700h304zM160.003 89.9971l44.998 0.00195312
c7.33301 0 17.833 1.5 31.5 4.5s25.834 11.833 36.501 26.5c6.66699 9.33301 11.334 20.833 14.001 34.5s4 26.5 4 38.5v38c0 17.333 -1.66699 32.166 -5 44.499s-10.666 23.166 -21.999 32.499c-14.667 12 -32.334 18 -53.001 18h-51v-237z" />
    <glyph glyph-name="afii10019" unicode="&#xc2;" horiz-adv-x="441" 
d="M195 700c7.33301 0 16.334 -0.334961 27.001 -1.00195s22 -2.16699 34 -4.5s24 -5.66602 36 -9.99902s23.667 -10.5 35 -18.5c16 -11.333 28.333 -24.166 37 -38.499s15 -28.833 19 -43.5s6.33301 -29 7 -43s1 -26 1 -36c0 -23.333 -1.66699 -43.5 -5 -60.5
s-11.666 -33.167 -24.999 -48.5c-6.66699 -8 -13.334 -14.5 -20.001 -19.5s-12.667 -9.16699 -18 -12.5c13.333 -6 23.5 -13 30.5 -21s12.833 -15.667 17.5 -23c10 -17.333 15.833 -32.166 17.5 -44.499s2.5 -26.833 2.5 -43.5v-53c0 -7.33301 -0.333008 -17 -1 -29
s-2.83398 -24.667 -6.50098 -38s-9.66699 -27 -18 -41s-19.833 -26.667 -34.5 -38c-11.333 -8.66699 -26.5 -16.334 -45.5 -23.001s-43.5 -10 -73.5 -10h-152v700h135zM160.001 409.998l48 0.000976562c17.333 0 31 2.83301 41 8.5s17.667 11.5 23 17.5
c6 7.33301 10.667 16.333 14 27s5 21.667 5 33v43c0 9.33301 -1.83301 18.166 -5.5 26.499s-8.16699 15.5 -13.5 21.5c-6 6 -14.167 11.333 -24.5 16s-23.833 7 -40.5 7h-47v-200zM160.001 89.999l44.999 0.00292969c7.33301 0 17.833 1.5 31.5 4.5
s25.834 11.833 36.501 26.5c4 6 7.33301 12.5 10 19.5s4.5 13.833 5.5 20.5s1.66699 12.667 2 18s0.5 9.66602 0.5 12.999v33c0 17.333 -1.66699 32.166 -5 44.499s-10.666 23.166 -21.999 32.499c-14.667 12 -32.334 18 -53.001 18h-51v-230z" />
    <glyph glyph-name="afii10020" unicode="&#xc3;" horiz-adv-x="359" 
d="M60 700h304v-95h-204v-605h-100v700z" />
    <glyph glyph-name="afii10021" unicode="&#xc4;" horiz-adv-x="448" 
d="M443 90v-198h-95v108h-258v-108h-95v198h47c11.333 24.667 21.333 50.667 30 78s15.667 57 21 89c4 24 7.5 52.167 10.5 84.5s5.16699 66.166 6.5 101.499s2.33301 70.833 3 106.5s1 68.834 1 99.501v51h272v-610h57zM208 610v-55
c0 -42.667 -0.666992 -80.834 -2 -114.501s-3 -63.834 -5 -90.501s-4.33301 -50.167 -7 -70.5s-5.33398 -38.166 -8.00098 -53.499c-4 -24 -9.16699 -47.167 -15.5 -69.5s-15.166 -46.166 -26.499 -71.499h142v525h-78z" />
    <glyph glyph-name="afii10022" unicode="&#xc5;" horiz-adv-x="395" 
d="M60 700h297v-95h-197v-206h174v-90h-174v-214h200v-95h-300v700z" />
    <glyph glyph-name="afii10024" unicode="&#xc6;" horiz-adv-x="654" 
d="M414 400c15.333 0 27.666 7 36.999 21c6.66699 9.33301 11.334 20.833 14.001 34.5s5.33398 32.834 8.00098 57.501l7 63c2 19.333 5.33301 38.5 10 57.5s14.667 35.167 30 48.5c14.667 12.667 30.5 20.167 47.5 22.5s32.167 3.5 45.5 3.5h18v-90h-16
c-4 0 -8.5 -1 -13.5 -3s-9.16699 -4.66699 -12.5 -8c-5.33301 -5.33301 -9.33301 -13.333 -12 -24s-5.33398 -27.334 -8.00098 -50.001l-7 -67c-1.33301 -13.333 -2.83301 -26.333 -4.5 -39s-4.83398 -24.667 -9.50098 -36
c-5.33301 -12.667 -12.666 -22.334 -21.999 -29.001l104 -362h-109l-85 314h-59v-314h-100v314h-59l-85 -314h-109l104 362c-9.33301 6.66699 -16.666 16.334 -21.999 29.001c-4.66699 11.333 -7.83398 23.333 -9.50098 36s-3.16699 25.667 -4.5 39l-7 67
c-2.66699 22.667 -5.33398 39.334 -8.00098 50.001s-6.66699 18.667 -12 24c-3.33301 3.33301 -7.5 6 -12.5 8s-9.5 3 -13.5 3h-16v90h18c13.333 0 28.5 -1.16699 45.5 -3.5s32.833 -9.83301 47.5 -22.5c15.333 -13.333 25.333 -29.5 30 -48.5s8 -38.167 10 -57.5l7 -63
c2.66699 -24.667 5.33398 -43.834 8.00098 -57.501s7.33398 -25.167 14.001 -34.5c9.33301 -14 21.666 -21 36.999 -21h37v300h100v-300h37z" />
    <glyph glyph-name="afii10025" unicode="&#xc7;" horiz-adv-x="414" 
d="M30 564c0 6.66699 0.498047 14.6699 1.49805 24.0029s3.33301 19 7 29s9 20 16 30s16.5 19.667 28.5 29c11.333 9.33301 26.166 17.333 44.499 24s40.5 10 66.5 10c20 0 40.333 -2.5 61 -7.5s38.667 -13.167 54 -24.5c4.66699 -3.33301 10.167 -8 16.5 -14
s12.333 -13.667 18 -23s10.5 -20.333 14.5 -33s6 -27.334 6 -44.001v-59c0 -18.667 -1.5 -37.334 -4.5 -56.001s-11.5 -36.334 -25.5 -53.001c-12 -12.667 -25.333 -23.334 -40 -32.001c14.667 -7.33301 25.834 -15 33.501 -23s13.167 -15 16.5 -21
c9.33301 -15.333 15 -30.333 17 -45s3 -29.667 3 -45v-82c0 -19.333 -2.5 -39.166 -7.5 -59.499s-17.167 -39.5 -36.5 -57.5c-18.667 -17.333 -39 -28.5 -61 -33.5s-44.333 -7.5 -67 -7.5c-18.667 0 -38.667 2.16699 -60 6.5s-41 14.833 -59 31.5
c-2 1.33301 -5.33301 4.5 -10 9.5s-9.5 11.833 -14.5 20.5s-9.33301 18.834 -13 30.501s-5.5 25.167 -5.5 40.5v65h100v-40c0 -7.33301 1.33301 -15.833 4 -25.5s6.66699 -17.167 12 -22.5c6 -6.66699 14.167 -11.334 24.5 -14.001s19.5 -4 27.5 -4
c12.667 0 22.834 1.5 30.501 4.5s13.5 6.5 17.5 10.5c9.33301 8.66699 14.666 18 15.999 28s2 20.667 2 32v62c0 4.66699 -0.166992 10.5 -0.5 17.5s-1.5 14.333 -3.5 22s-4.83301 15 -8.5 22s-8.5 13.167 -14.5 18.5c-3.33301 3.33301 -9.16602 6.66602 -17.499 9.99902
s-20.166 5 -35.499 5h-30v90h27c13.333 0 25.5 2.16699 36.5 6.5s20.167 10.166 27.5 17.499c9.33301 10 14.833 21.167 16.5 33.5s2.5 21.833 2.5 28.5v45c0 7.33301 -0.833008 16.333 -2.5 27s-7.5 20.334 -17.5 29.001c-12 10 -28.333 15 -49 15
c-18.667 0 -34 -6 -46 -18c-8.66699 -8 -14 -16.667 -16 -26s-3 -17.666 -3 -24.999v-42h-100v63z" />
    <glyph glyph-name="afii10026" unicode="&#xc8;" horiz-adv-x="485" 
d="M160 700v-430l165 350v80h100v-700h-100v430l-165 -350v-80h-100v700h100z" />
    <glyph glyph-name="afii10027" unicode="&#xc9;" horiz-adv-x="485" 
d="M160 700v-430l165 350v80h100v-700h-100v430l-165 -350v-80h-100v700h100zM365 856c0 -20 -3.16699 -36.5 -9.5 -49.5s-13.166 -23.167 -20.499 -30.5c-10 -9.33301 -23 -16.333 -39 -21s-33.667 -7 -53 -7s-37 2.33301 -53 7s-29 11.667 -39 21
c-7.33301 7.33301 -14.166 17.5 -20.499 30.5s-9.5 29.5 -9.5 49.5v12h80v-9c0 -4 0.666992 -8.5 2 -13.5s4.66602 -9.83301 9.99902 -14.5c4.66699 -4 9.5 -6.5 14.5 -7.5s10.167 -1.5 15.5 -1.5s10.5 0.5 15.5 1.5s9.83301 3.5 14.5 7.5
c5.33301 4.66699 8.66602 9.5 9.99902 14.5s2 9.5 2 13.5v9h80v-12z" />
    <glyph glyph-name="afii10028" unicode="&#xca;" horiz-adv-x="462" 
d="M160 700v-299.999h57c15.333 0 27.666 7 36.999 21c6.66699 9.33301 11.334 20.833 14.001 34.5s5.33398 32.834 8.00098 57.501l7 63c2 19.333 5.33301 38.5 10 57.5s14.667 35.167 30 48.5c14.667 12.667 30.5 20.167 47.5 22.5s32.167 3.5 45.5 3.5h15v-90h-13
c-4 0 -8.5 -1 -13.5 -3s-9.16699 -4.66699 -12.5 -8c-5.33301 -5.33301 -9.33301 -13.333 -12 -24s-5.33398 -27.334 -8.00098 -50.001l-7 -67c-1.33301 -13.333 -2.83301 -26.333 -4.5 -39s-4.83398 -24.667 -9.50098 -36
c-5.33301 -12.667 -12.666 -22.334 -21.999 -29.001l108 -362h-109l-87 310h-81v-310h-100v700h100z" />
    <glyph glyph-name="afii10029" unicode="&#xcb;" horiz-adv-x="450" 
d="M390 0l-100 -0.00292969v610h-80l-3 -98c-1.33301 -30.667 -2.33301 -57.5 -3 -80.5s-1.16699 -43.5 -1.5 -61.5s-1 -34.333 -2 -49s-1.83301 -29 -2.5 -43c-2.66699 -37.333 -5.33398 -66 -8.00098 -86s-5 -34.667 -7 -44
c-3.33301 -17.333 -8.33301 -34.166 -15 -50.499s-17.667 -33.166 -33 -50.499c-18.667 -20 -37.667 -32.833 -57 -38.5s-39.333 -8.5 -60 -8.5h-23v95h11c5.33301 0 11.333 0.5 18 1.5s13.667 3.83301 21 8.5c12 7.33301 20.5 16 25.5 26s8.16699 16.667 9.5 20
c2.66699 8.66699 5.16699 20.834 7.5 36.501s4.33301 32.167 6 49.5s3 33.833 4 49.5s1.83301 27.834 2.5 36.501l2 40.5l2 41c0.666992 14.333 1.33398 30.166 2.00098 47.499s1 37.333 1 60l3 188h280v-700z" />
    <glyph glyph-name="afii10030" unicode="&#xcc;" horiz-adv-x="593" 
d="M60 700h100l138 -386h4l131 386h100v-700h-100v438h-5l-105 -316h-53l-105 316h-5v-438h-100v700z" />
    <glyph glyph-name="afii10031" unicode="&#xcd;" horiz-adv-x="455" 
d="M160 700v-301h135v301h100v-700h-100v309h-135v-309h-100v700h100z" />
    <glyph glyph-name="afii10032" unicode="&#xce;" horiz-adv-x="450" 
d="M50 516c0 26.667 2.66699 52.5 8 77.5s20 48.833 44 71.5c15.333 14 33.166 25 53.499 33s43.5 12 69.5 12s49.167 -4 69.5 -12s38.166 -19 53.499 -33c24 -22.667 38.667 -46.5 44 -71.5s8 -50.833 8 -77.5v-332c0 -26.667 -2.66699 -52.5 -8 -77.5
s-20 -48.833 -44 -71.5c-15.333 -14 -33.166 -25 -53.499 -33s-43.5 -12 -69.5 -12s-49.167 4 -69.5 12s-38.166 19 -53.499 33c-24 22.667 -38.667 46.5 -44 71.5s-8 50.833 -8 77.5v332zM300 531c0 10.667 -1.16699 21.167 -3.5 31.5s-8.16602 20.166 -17.499 29.499
c-5.33301 5.33301 -12.5 10 -21.5 14s-19.833 6 -32.5 6s-23.5 -2 -32.5 -6s-16.167 -8.66699 -21.5 -14c-9.33301 -9.33301 -15.166 -19.166 -17.499 -29.499s-3.5 -20.833 -3.5 -31.5v-362c0 -10.667 1.16699 -21.167 3.5 -31.5s8.16602 -20.166 17.499 -29.499
c5.33301 -5.33301 12.5 -10 21.5 -14s19.833 -6 32.5 -6s23.5 2 32.5 6s16.167 8.66699 21.5 14c9.33301 9.33301 15.166 19.166 17.499 29.499s3.5 20.833 3.5 31.5v362z" />
    <glyph glyph-name="afii10033" unicode="&#xcf;" horiz-adv-x="450" 
d="M390 700v-700h-100v610h-130v-610h-100v700h330z" />
    <glyph glyph-name="afii10034" unicode="&#xd0;" horiz-adv-x="430" 
d="M60 700h148.999c10.667 0 22 -0.333008 34 -1s24 -2.5 36 -5.5s23.833 -7.66699 35.5 -14s23.167 -14.833 34.5 -25.5c22.667 -23.333 36.834 -49.333 42.501 -78s8.5 -56 8.5 -82v-20c0 -10 -0.333008 -20.833 -1 -32.5s-2.5 -23.834 -5.5 -36.501
s-7.33301 -25.167 -13 -37.5s-13.5 -24.166 -23.5 -35.499c-10 -12 -20.833 -21.5 -32.5 -28.5s-23.5 -12.5 -35.5 -16.5s-24 -6.66699 -36 -8s-23.333 -2 -34 -2h-59v-277h-100v700zM159.999 367l54.001 0.00195312c9.33301 0 20.166 1.5 32.499 4.5
s23.833 10.167 34.5 21.5s16.5 23 17.5 35s1.5 24.333 1.5 37v46c0 12 -1 25.667 -3 41s-10 28.666 -24 39.999c-11.333 9.33301 -23.833 14.666 -37.5 15.999s-27.167 2 -40.5 2h-35v-243z" />
    <glyph glyph-name="afii10035" unicode="&#xd1;" horiz-adv-x="419" 
d="M284 541c0 7.33301 -1.00195 15.167 -3.00195 23.5s-5.33301 15.833 -10 22.5c-2.66699 3.33301 -8 8.33301 -16 15s-20 10 -36 10c-13.333 0 -24 -2.33301 -32 -7s-14.667 -10 -20 -16c-8 -10 -12.833 -21 -14.5 -33s-2.5 -24 -2.5 -36v-345
c0 -11.333 0.5 -22.166 1.5 -32.499s4.83301 -20.166 11.5 -29.499c3.33301 -5.33301 9.16602 -10.833 17.499 -16.5s19.5 -8.5 33.5 -8.5c11.333 0 22 2 32 6s18 10 24 18c2.66699 3.33301 5.66699 9.33301 9 18s5 21.667 5 39v25h100v-29
c0 -34.667 -4.66699 -62.334 -14 -83.001s-18.666 -35.667 -27.999 -45c-10.667 -11.333 -26.5 -22 -47.5 -32s-48.833 -15 -83.5 -15c-33.333 0 -59.833 5.5 -79.5 16.5s-35.167 23.167 -46.5 36.5c-18 21.333 -28.333 43.166 -31 65.499s-4 42.5 -4 60.5v363
c0 22.667 2.83301 46.334 8.5 71.001s19.834 46.667 42.501 66c15.333 14 33.5 24.333 54.5 31s40.833 10 59.5 10c21.333 0 43 -3.83301 65 -11.5s40.667 -18.834 56 -33.501c12.667 -12.667 23.334 -29 32.001 -49s13 -42.333 13 -67v-48h-97v40z" />
    <glyph glyph-name="afii10036" unicode="&#xd2;" horiz-adv-x="354" 
d="M351 700v-95h-124v-605h-100v605h-124v95h348z" />
    <glyph glyph-name="afii10037" unicode="&#xd3;" horiz-adv-x="382" 
d="M117 700l95.999 -343.002h3c1.33301 9.33301 3 20.166 5 32.499s4.16699 25 6.5 38s4.83301 25.833 7.5 38.5l7 34l44 200h103l-119 -478c-5.33301 -19.333 -10.333 -39.166 -15 -59.499s-10.167 -39.666 -16.5 -57.999s-14.333 -35 -24 -50
s-21.834 -26.833 -36.501 -35.5c-15.333 -9.33301 -30.166 -14.833 -44.499 -16.5s-28.166 -2.5 -41.499 -2.5h-36v95h25c20.667 0 36 5.66699 46 17c4 4 8 10.333 12 19s6.66699 16.334 8 23.001l13 59l-157 487h114z" />
    <glyph glyph-name="afii10038" unicode="&#xd4;" horiz-adv-x="610" 
d="M355 620h23.999c10.667 0 22 -0.333008 34 -1s24 -2.5 36 -5.5s23.833 -7.66699 35.5 -14s23.167 -14.833 34.5 -25.5c22.667 -23.333 36.834 -49.333 42.501 -78s8.5 -56 8.5 -82v-121c0 -10 -0.333008 -20.833 -1 -32.5s-2.5 -23.834 -5.5 -36.501
s-7.33301 -25.334 -13 -38.001s-13.5 -24.334 -23.5 -35.001c-11.333 -13.333 -23.5 -23.666 -36.5 -30.999s-25.833 -12.833 -38.5 -16.5s-24.5 -6 -35.5 -7s-20.167 -1.5 -27.5 -1.5h-34v-95h-100v95h-34c-7.33301 0 -16.5 0.5 -27.5 1.5s-22.833 3.33301 -35.5 7
s-25.5 9.16699 -38.5 16.5s-25.167 17.666 -36.5 30.999c-10 10.667 -17.833 22.334 -23.5 35.001s-10 25.334 -13 38.001s-4.83301 24.834 -5.5 36.501s-1 22.5 -1 32.5v121c0 12.667 0.5 26 1.5 40s3.16699 28 6.5 42s8.5 27.5 15.5 40.5s16.167 25.5 27.5 37.5
c10.667 10.667 22 19.167 34 25.5s24 11 36 14s24 4.83301 36 5.5s23.333 1 34 1h24v90h100v-90zM354.999 187l29 0.000976562c10 0 20.833 1.16699 32.5 3.5s23.167 9.5 34.5 21.5c10.667 12 16.5 23.833 17.5 35.5s1.5 23.834 1.5 36.501v146c0 12 -1 25.667 -3 41
s-10 28.666 -24 39.999c-11.333 9.33301 -23.833 14.666 -37.5 15.999s-27.167 2 -40.5 2h-10v-342zM244.999 529.001c-13.333 0 -26.833 -0.667969 -40.5 -2.00098s-26.167 -6.66602 -37.5 -15.999c-14 -11.333 -22 -24.666 -24 -39.999s-3 -29 -3 -41v-146
c0 -12.667 0.5 -24.834 1.5 -36.501s6.83301 -23.5 17.5 -35.5c11.333 -12 22.833 -19.167 34.5 -21.5s22.5 -3.5 32.5 -3.5h29v342h-10z" />
    <glyph glyph-name="afii10039" unicode="&#xd5;" horiz-adv-x="437" 
d="M137 700l80 -220l81 220h110l-135 -330l149 -370h-106l-99 253l-92 -253h-110l147 370l-131 330h106z" />
    <glyph glyph-name="afii10040" unicode="&#xd6;" horiz-adv-x="452" 
d="M60 700h100v-610h125v610h100v-610h62v-198h-95v108h-292v700z" />
    <glyph glyph-name="afii10041" unicode="&#xd7;" horiz-adv-x="429" 
d="M369 700l0.00292969 -700.002h-100v290c-10.667 -4 -22.167 -7.33301 -34.5 -10s-26.5 -4 -42.5 -4c-16.667 0 -31.334 1.5 -44.001 4.5s-23.5 6.66699 -32.5 11s-16.5 9 -22.5 14s-10.333 9.16699 -13 12.5c-8 8.66699 -14.333 18.5 -19 29.5
s-8.16699 22.167 -10.5 33.5s-3.83301 22.333 -4.5 33s-1 20.334 -1 29.001v257h100v-235c0 -10.667 0.833008 -24.167 2.5 -40.5s7.16699 -29.833 16.5 -40.5c7.33301 -7.33301 15.5 -12.166 24.5 -14.499s17.167 -3.5 24.5 -3.5c9.33301 0 18.666 1 27.999 3
s18.666 5.66699 27.999 11v320h100z" />
    <glyph glyph-name="afii10042" unicode="&#xd8;" horiz-adv-x="640" 
d="M60 700h100v-610h110v610h100v-610h110v610h100v-700h-520v700z" />
    <glyph glyph-name="afii10043" unicode="&#xd9;" horiz-adv-x="647" 
d="M160 90h110v610h100v-610h110v610h100v-610h62v-198h-95v108h-487v700h100v-610z" />
    <glyph glyph-name="afii10044" unicode="&#xda;" horiz-adv-x="508" 
d="M286 417c10 0 20.6699 -0.169922 32.0029 -0.50293s23 -1.66602 35 -3.99902s24.167 -6.16602 36.5 -11.499s24.166 -13.333 35.499 -24c10.667 -10 19 -20.5 25 -31.5s10.333 -21.667 13 -32s4.16699 -20 4.5 -29s0.5 -16.833 0.5 -23.5v-82
c0 -17.333 -1.5 -35.5 -4.5 -54.5s-11.167 -38.5 -24.5 -58.5c-4.66699 -7.33301 -10.834 -14.833 -18.501 -22.5s-17.334 -14.667 -29.001 -21s-26 -11.666 -43 -15.999s-36.833 -6.5 -59.5 -6.5h-152v605h-127v95h227v-283h49zM237.003 89.9971l44.999 0.000976562
c6.66699 0 14.834 0.833008 24.501 2.5s19 6 28 13s16.833 17.333 23.5 31s10 32.834 10 57.501v38c0 17.333 -1.66699 32.166 -5 44.499s-10.666 23.166 -21.999 32.499c-14.667 12 -32.334 18 -53.001 18h-51v-237z" />
    <glyph glyph-name="afii10045" unicode="&#xdb;" horiz-adv-x="632" 
d="M160 700l0.00292969 -283.003h49c10 0 20.667 -0.166992 32 -0.5s23 -1.66602 35 -3.99902s24.167 -6.16602 36.5 -11.499s24.166 -13.333 35.499 -24c10.667 -10 19 -20.5 25 -31.5s10.333 -21.667 13 -32s4.16699 -20 4.5 -29s0.5 -16.833 0.5 -23.5v-82
c0 -17.333 -1.5 -35.5 -4.5 -54.5s-11.167 -38.5 -24.5 -58.5c-4.66699 -7.33301 -10.834 -14.833 -18.501 -22.5s-17.334 -14.667 -29.001 -21s-26 -11.666 -43 -15.999s-36.833 -6.5 -59.5 -6.5h-152v700h100zM160.003 89.9971l44.999 0.000976562
c6.66699 0 14.834 0.833008 24.501 2.5s19 6 28 13s16.833 17.333 23.5 31s10 32.834 10 57.501v38c0 17.333 -1.66699 32.166 -5 44.499s-10.666 23.166 -21.999 32.499c-14.667 12 -32.334 18 -53.001 18h-51v-237zM572.002 699.998v-700h-100v700h100z" />
    <glyph glyph-name="afii10046" unicode="&#xdc;" horiz-adv-x="431" 
d="M160 700l0.00292969 -283.003h49c10 0 20.667 -0.166992 32 -0.5s23 -1.66602 35 -3.99902s24.167 -6.16602 36.5 -11.499s24.166 -13.333 35.499 -24c10.667 -10 19 -20.5 25 -31.5s10.333 -21.667 13 -32s4.16699 -20 4.5 -29s0.5 -16.833 0.5 -23.5v-82
c0 -17.333 -1.5 -35.5 -4.5 -54.5s-11.167 -38.5 -24.5 -58.5c-4.66699 -7.33301 -10.834 -14.833 -18.501 -22.5s-17.334 -14.667 -29.001 -21s-26 -11.666 -43 -15.999s-36.833 -6.5 -59.5 -6.5h-152v700h100zM160.003 89.9971l44.999 0.000976562
c6.66699 0 14.834 0.833008 24.501 2.5s19 6 28 13s16.833 17.333 23.5 31s10 32.834 10 57.501v38c0 17.333 -1.66699 32.166 -5 44.499s-10.666 23.166 -21.999 32.499c-14.667 12 -32.334 18 -53.001 18h-51v-237z" />
    <glyph glyph-name="afii10047" unicode="&#xdd;" horiz-adv-x="414" 
d="M30 564c0 24.667 4.66602 46.165 13.999 64.498s21.5 33.5 36.5 45.5s32.333 21 52 27s40.167 9 61.5 9c20.667 0 41.167 -2.66699 61.5 -8s38.5 -13.666 54.5 -24.999s29 -26.333 39 -45s15 -41.334 15 -68.001v-397c0 -15.333 -1.16699 -33.166 -3.5 -53.499
s-9.16602 -39.666 -20.499 -57.999s-28.5 -33.833 -51.5 -46.5s-55.167 -19 -96.5 -19c-31.333 0 -57.333 4.33301 -78 13s-37.334 19.834 -50.001 33.501s-21.5 28.667 -26.5 45s-7.5 32.166 -7.5 47.499v65h100v-40c0 -23.333 6 -40.166 18 -50.499s28.667 -15.5 50 -15.5
c17.333 0 30.5 2.83301 39.5 8.5s15.5 12.5 19.5 20.5s6.16699 16.167 6.5 24.5s0.5 15.5 0.5 21.5v157h-124v90h124v145c0 17.333 -6.66699 31.166 -20 41.499s-29.666 15.5 -48.999 15.5c-20.667 0 -36.667 -6.5 -48 -19.5s-17 -29.5 -17 -49.5v-42h-100v63z" />
    <glyph glyph-name="afii10048" unicode="&#xde;" horiz-adv-x="643" 
d="M243 309h-83v-309h-100v700h100v-301h83v117c0 26.667 2.66699 52.5 8 77.5s20 48.833 44 71.5c15.333 14 33.166 25 53.499 33s43.5 12 69.5 12s49.167 -4 69.5 -12s38.166 -19 53.499 -33c24 -22.667 38.667 -46.5 44 -71.5s8 -50.833 8 -77.5v-332
c0 -26.667 -2.66699 -52.5 -8 -77.5s-20 -48.833 -44 -71.5c-15.333 -14 -33.166 -25 -53.499 -33s-43.5 -12 -69.5 -12s-49.167 4 -69.5 12s-38.166 19 -53.499 33c-24 22.667 -38.667 46.5 -44 71.5s-8 50.833 -8 77.5v125zM493 531c0 10.667 -1.16699 21.167 -3.5 31.5
s-8.16602 20.166 -17.499 29.499c-5.33301 5.33301 -12.5 10 -21.5 14s-19.833 6 -32.5 6s-23.5 -2 -32.5 -6s-16.167 -8.66699 -21.5 -14c-9.33301 -9.33301 -15.166 -19.166 -17.499 -29.499s-3.5 -20.833 -3.5 -31.5v-362c0 -10.667 1.16699 -21.167 3.5 -31.5
s8.16602 -20.166 17.499 -29.499c5.33301 -5.33301 12.5 -10 21.5 -14s19.833 -6 32.5 -6s23.5 2 32.5 6s16.167 8.66699 21.5 14c9.33301 9.33301 15.166 19.166 17.499 29.499s3.5 20.833 3.5 31.5v362z" />
    <glyph glyph-name="afii10049" unicode="&#xdf;" horiz-adv-x="444" 
d="M384 0l-99.999 0.000976562v302h-62l-90 -302h-107l104 325c-12 5.33301 -21.833 11.5 -29.5 18.5s-13.834 13.5 -18.501 19.5c-9.33301 12.667 -17 28.834 -23 48.501s-9 39.167 -9 58.5v53c0 26 3.33301 49.333 10 70s15.667 38 27 52c12 14.667 25.167 25.667 39.5 33
s29.333 12.666 45 15.999s31 5.16602 46 5.49902s28.833 0.5 41.5 0.5h126v-700zM237.001 610.001c-10.667 0 -21.665 -0.500977 -32.998 -1.50098s-22 -6.5 -32 -16.5c-6.66699 -6.66699 -12.167 -15.667 -16.5 -27s-6.5 -23.666 -6.5 -36.999v-50
c0 -13.333 1 -24.833 3 -34.5s8 -19.167 18 -28.5c9.33301 -9.33301 19.166 -15.5 29.499 -18.5s21.166 -4.5 32.499 -4.5h52v218h-47z" />
    <glyph glyph-name="afii10065" unicode="&#xe0;" horiz-adv-x="405" 
d="M251 49l-1.99902 -0.00488281c-3.33301 -5.33301 -8 -11.666 -14 -18.999s-12.667 -13.666 -20 -18.999c-9.33301 -7.33301 -18.666 -12.333 -27.999 -15s-19.333 -4 -30 -4c-10 0 -22 1.5 -36 4.5s-27.333 10.167 -40 21.5
c-15.333 14.667 -25.166 32.334 -29.499 53.001s-6.5 41 -6.5 61c0 8.66699 0.333008 18.5 1 29.5s2 22 4 33s5 21.833 9 32.5s9.66699 20.334 17 29.001c8 10 17.333 17.833 28 23.5s21.5 10 32.5 13s21.5 4.83301 31.5 5.5s18.667 1 26 1
c3.33301 0 9.83301 -0.166992 19.5 -0.5s22.167 -1.16602 37.5 -2.49902v52c0 7.33301 -0.666992 14.5 -2 21.5s-5 13.833 -11 20.5c-10 10.667 -23.333 16 -40 16c-7.33301 0 -14.5 -1.33301 -21.5 -4s-13.167 -7.33398 -18.5 -14.001
c-8 -8.66699 -12.333 -19.334 -13 -32.001h-95c-0.666992 22.667 3.16602 43.334 11.499 62.001s18.166 33.667 29.499 45c12.667 12.667 28.667 22.667 48 30s40.666 11 63.999 11c22.667 0 43 -3.66699 61 -11s33.333 -17 46 -29c18 -18 29.333 -37.667 34 -59
s7 -40.666 7 -57.999v-347h-100v49zM251.001 215.995c-12 2 -23.665 3 -34.998 3c-8 0 -17.333 -1.16699 -28 -3.5s-20 -8.16602 -28 -17.499c-6.66699 -7.33301 -10.834 -15.833 -12.501 -25.5s-2.5 -18.5 -2.5 -26.5c0 -7.33301 0.666992 -14.333 2 -21
s4 -13.334 8 -20.001c9.33301 -15.333 22.666 -23 39.999 -23c15.333 0 28.5 5.16699 39.5 15.5s16.5 26.5 16.5 48.5v70z" />
    <glyph glyph-name="afii10066" unicode="&#xe1;" horiz-adv-x="396" 
d="M47 412c0 24.667 1.83398 50.002 5.50098 76.002s12.167 49.667 25.5 71c11.333 18 24.5 31.5 39.5 40.5s29.833 16.5 44.5 22.5l16.5 6.5l11.5 4.5l9 3.5l9 3.5c5.33301 2 11 4.5 17 7.5s11 6.83301 15 11.5c6 6 9 14.333 9 25v16h92v-30
c0 -9.33301 -0.5 -18.833 -1.5 -28.5s-3.5 -18.834 -7.5 -27.501c-6 -14 -13.833 -24 -23.5 -30s-19.5 -10.667 -29.5 -14c-12.667 -4.66699 -24 -8.33398 -34 -11.001l-22 -6c-7.33301 -2 -14.666 -4.33301 -21.999 -7c-8 -3.33301 -16.833 -7.5 -26.5 -12.5
s-17.834 -12.167 -24.501 -21.5c-6.66699 -8.66699 -11.334 -18.5 -14.001 -29.5s-4 -21.167 -4 -30.5v-17h3c8 18 21.167 32.667 39.5 44s38.833 17 61.5 17c18 0 33.333 -2.66699 46 -8s23.667 -12.333 33 -21c9.33301 -9.33301 17.333 -21.333 24 -36s10 -30.667 10 -48
v-223c0 -10 -0.333008 -20.667 -1 -32s-2.66699 -22.833 -6 -34.5s-8.33301 -23.167 -15 -34.5s-15.667 -22 -27 -32c-13.333 -11.333 -29 -20 -47 -26s-36.333 -9 -55 -9s-37 3 -55 9s-33.667 14.667 -47 26c-11.333 10 -20.333 20.667 -27 32s-11.667 22.833 -15 34.5
s-5.33301 23.167 -6 34.5s-1 22 -1 32v252zM249.001 342.002c0 22 -4.99902 38.667 -14.999 50c-9.33301 9.33301 -21.333 14 -36 14s-26.667 -4.66699 -36 -14c-10 -11.333 -15 -28 -15 -50v-188c0 -22 5 -38.667 15 -50c9.33301 -9.33301 21.333 -14 36 -14
c7.33301 0 14.166 1.33301 20.499 4s11.5 6 15.5 10c10 11.333 15 28 15 50v188z" />
    <glyph glyph-name="afii10067" unicode="&#xe2;" horiz-adv-x="399" 
d="M219 496c21.333 0 40.334 -3.33594 57.001 -10.0029s30.334 -15.334 41.001 -26.001c11.333 -11.333 19.666 -25.166 24.999 -41.499s8 -31.166 8 -44.499v-24c0 -10.667 -1.33301 -22.5 -4 -35.5s-9.33398 -25.5 -20.001 -37.5
c-2.66699 -3.33301 -7.16699 -7.5 -13.5 -12.5s-14.833 -9.16699 -25.5 -12.5c6 -2 13.167 -5.33301 21.5 -10s16.5 -12.334 24.5 -23.001c8.66699 -11.333 14.334 -23.166 17.001 -35.499s4 -24.166 4 -35.499v-23c0 -23.333 -4.33301 -42.666 -13 -57.999
s-17.667 -27 -27 -35c-16 -14.667 -33.333 -23.667 -52 -27s-37.334 -5 -56.001 -5h-152v496h165zM154.001 291.997l43.999 0.00195312c7.33301 0 14.333 0.833008 21 2.5s13 6.16699 19 13.5c5.33301 6.66699 8.66602 13.5 9.99902 20.5s2 13.5 2 19.5v10
c0 11.333 -1.66699 19.666 -5 24.999s-5.66602 8.66602 -6.99902 9.99902c-5.33301 6 -11.666 9.66699 -18.999 11s-14.333 2 -21 2h-44v-114zM154 89.999l45.998 0.000976562c6.66699 0 14 1 22 3s15 6.66699 21 14c5.33301 5.33301 8.5 11.166 9.5 17.499
s1.5 12.166 1.5 17.499v18c0 5.33301 -0.666992 11.5 -2 18.5s-4.66602 13.167 -9.99902 18.5c-6 6.66699 -12.667 10.834 -20 12.501s-14.666 2.5 -21.999 2.5h-46v-122z" />
    <glyph glyph-name="afii10068" unicode="&#xe3;" horiz-adv-x="306" 
d="M54 496h249v-98h-149v-398h-100v496z" />
    <glyph glyph-name="afii10069" unicode="&#xe4;" horiz-adv-x="414" 
d="M414 90v-190h-95v100h-226v-100h-95v190h52c11.333 24.667 20 48 26 70s10.667 45.333 14 70c2 14 3.66699 29.833 5 47.5s2.5 35.5 3.5 53.5s1.83301 35.833 2.5 53.5s1 34.167 1 49.5v62h255v-406h57zM193 406l-0.000976562 -36.001
c0 -27.333 -0.666992 -54.666 -2 -81.999s-4.66602 -56 -9.99902 -86c-3.33301 -18.667 -7.5 -37.5 -12.5 -56.5s-12.167 -39.167 -21.5 -60.5h110v321h-64z" />
    <glyph glyph-name="afii10070" unicode="&#xe5;" horiz-adv-x="397" 
d="M150 147c0 -7.33301 0.664062 -14.834 1.99707 -22.501s5 -14.5 11 -20.5c8 -9.33301 20.667 -14 38 -14s30.666 7 39.999 21c6 10 9 21.333 9 34h100v-4c0 -9.33301 -0.666992 -19.166 -2 -29.499s-4 -20.833 -8 -31.5s-9.66699 -21.167 -17 -31.5
s-17 -19.833 -29 -28.5c-12.667 -9.33301 -27 -16.333 -43 -21s-32.667 -7 -50 -7c-23.333 0 -45 4.33301 -65 13s-36.667 20.334 -50 35.001c-8.66699 10 -15.5 20.333 -20.5 31s-8.66699 21.334 -11 32.001s-3.66602 21 -3.99902 31s-0.5 18.667 -0.5 26v190
c0 8.66699 0.5 18.167 1.5 28.5s3.33301 20.666 7 30.999s8.66699 20.666 15 30.999s14.833 20.166 25.5 29.499c11.333 10 25.333 18.167 42 24.5s35.667 9.5 57 9.5s40.833 -3.16699 58.5 -9.5s32.834 -15.166 45.501 -26.499c10.667 -9.33301 19.334 -19.5 26.001 -30.5
s11.834 -22 15.501 -33s6 -21.833 7 -32.5s1.5 -21 1.5 -31v-130h-202v-64zM251.997 287.999l-0.00195312 64.999c0 6.66699 -0.833008 13.334 -2.5 20.001s-5.5 13 -11.5 19c-9.33301 9.33301 -21.666 14 -36.999 14c-16.667 0 -29.667 -5.66699 -39 -17
c-5.33301 -6 -8.66602 -12.5 -9.99902 -19.5s-2 -13.833 -2 -20.5v-61h102z" />
    <glyph glyph-name="afii10072" unicode="&#xe6;" horiz-adv-x="576" 
d="M357 294c12.667 0 21.667 1.83301 27 5.5s10.333 10.5 15 20.5c4.66699 9.33301 7.66699 17.5 9 24.5s2.66602 14.833 3.99902 23.5l6 36c1.33301 9.33301 3.66602 20 6.99902 32s8.66602 22.667 15.999 32c10.667 14.667 23.667 23.834 39 27.501s31 5.5 47 5.5h25v-85
h-15c-6 0 -11.167 -1 -15.5 -3s-7.83301 -4.33301 -10.5 -7c-2 -2.66699 -4 -6.5 -6 -11.5s-3.66699 -12.5 -5 -22.5l-5 -37c-1.33301 -11.333 -2.66602 -21.5 -3.99902 -30.5s-3.66602 -17.5 -6.99902 -25.5c-5.33301 -11.333 -12.666 -19.666 -21.999 -24.999l94 -254
h-103l-72 214h-43v-214h-100v214h-43l-72 -214h-103l94 254c-9.33301 5.33301 -16.666 13.666 -21.999 24.999c-3.33301 8 -5.66602 16.5 -6.99902 25.5s-2.66602 19.167 -3.99902 30.5l-5 37c-1.33301 10 -3 17.5 -5 22.5s-4 8.83301 -6 11.5
c-2.66699 2.66699 -6.16699 5 -10.5 7s-9.5 3 -15.5 3h-15v85h25c16 0 31.667 -1.83301 47 -5.5s28.333 -12.834 39 -27.501c7.33301 -9.33301 12.666 -20 15.999 -32s5.66602 -22.667 6.99902 -32l6 -36c1.33301 -8.66699 2.66602 -16.5 3.99902 -23.5
s4.33301 -15.167 9 -24.5c4.66699 -10 9.66699 -16.833 15 -20.5s14.333 -5.5 27 -5.5h19v202h100v-202h19z" />
    <glyph glyph-name="afii10073" unicode="&#xe7;" horiz-adv-x="377" 
d="M30 356c0 26 4.16406 47.666 12.4971 64.999s16.833 30.666 25.5 39.999c13.333 13.333 29.666 23.833 48.999 31.5s41.333 11.5 66 11.5c24 0 44.5 -3.83301 61.5 -11.5s30.833 -16.167 41.5 -25.5c9.33301 -9.33301 18.666 -22.166 27.999 -38.499s14 -37.833 14 -64.5
v-14c0 -13.333 -1.5 -25.5 -4.5 -36.5s-7.16699 -20.5 -12.5 -28.5c-3.33301 -5.33301 -8.16602 -11 -14.499 -17s-14.5 -11.333 -24.5 -16c10 -4 18.333 -9 25 -15s12 -12 16 -18c8.66699 -12 14 -24.5 16 -37.5s3 -24.167 3 -33.5v-13c0 -18.667 -3.66699 -37 -11 -55
s-16.666 -33 -27.999 -45c-13.333 -13.333 -30 -23.833 -50 -31.5s-41.667 -11.5 -65 -11.5c-17.333 0 -36 3.16699 -56 9.5s-36.667 15.833 -50 28.5c-11.333 10.667 -21.166 24.667 -29.499 42s-12.5 36.333 -12.5 57v19h96v-10c0 -12 3.66699 -22.333 11 -31
c6 -7.33301 12.667 -12 20 -14s14 -3 20 -3c12 0 21.333 1.83301 28 5.5s11.667 7.5 15 11.5c4.66699 5.33301 7.83398 11.833 9.50098 19.5s2.5 15.167 2.5 22.5v9c0 10.667 -1.66699 18.834 -5 24.501s-6.66602 9.83398 -9.99902 12.501
c-5.33301 4.66699 -11.5 8 -18.5 10s-13.5 3 -19.5 3h-35v86h32c9.33301 0 17.333 1.5 24 4.5s12 6.83301 16 11.5c8 9.33301 12 21.666 12 36.999v5c0 14.667 -4 27 -12 37c-5.33301 7.33301 -11.5 12 -18.5 14s-13.167 3 -18.5 3c-9.33301 0 -17.333 -1.5 -24 -4.5
s-12 -6.83301 -16 -11.5c-5.33301 -6 -8.83301 -12.167 -10.5 -18.5s-2.5 -12.5 -2.5 -18.5v-7h-96v10z" />
    <glyph glyph-name="afii10074" unicode="&#xe8;" horiz-adv-x="431" 
d="M154 496v-277l123 216v61h100v-496h-100v277l-123 -216v-61h-100v496h100z" />
    <glyph glyph-name="afii10075" unicode="&#xe9;" horiz-adv-x="431" 
d="M329 681c0 -13.333 -1.66699 -27.833 -5 -43.5s-11.666 -30.167 -24.999 -43.5c-12.667 -12.667 -26.834 -20.5 -42.501 -23.5s-29.5 -4.5 -41.5 -4.5s-25.833 1.5 -41.5 4.5s-29.834 10.833 -42.501 23.5c-13.333 13.333 -21.666 27.833 -24.999 43.5s-5 30.167 -5 43.5
v13h74v-15c0 -3.33301 0.333008 -7.16602 1 -11.499s1.66699 -7.83301 3 -10.5c1.33301 -4 4.83301 -8.33301 10.5 -13s14.167 -7 25.5 -7s19.833 2.33301 25.5 7s9.16699 9 10.5 13c1.33301 2.66699 2.33301 6.16699 3 10.5s1 8.16602 1 11.499v15h74v-13zM154 496v-277
l123 216v61h100v-496h-100v277l-123 -216v-61h-100v496h100z" />
    <glyph glyph-name="afii10076" unicode="&#xea;" horiz-adv-x="403" 
d="M186 296c10.667 0 18.998 1.5 24.998 4.5s11.667 9.5 17 19.5c4 8 6.83301 16.167 8.5 24.5s3.16699 16.166 4.5 23.499l6 36c1.33301 9.33301 3.66602 20 6.99902 32s8.66602 22.667 15.999 32c10.667 14.667 23.667 23.834 39 27.501s31 5.5 47 5.5h23v-85h-13
c-6 0 -11.167 -1 -15.5 -3s-7.83301 -4.33301 -10.5 -7c-2 -2.66699 -4 -6.5 -6 -11.5s-3.66699 -12.5 -5 -22.5l-5 -37c-1.33301 -11.333 -2.66602 -21.666 -3.99902 -30.999s-3.66602 -17.666 -6.99902 -24.999c-3.33301 -6.66699 -6.66602 -11.834 -9.99902 -15.501
s-6.66602 -6.83398 -9.99902 -9.50098l90 -254h-101l-72 212h-56v-212h-100v496h100v-200h32z" />
    <glyph glyph-name="afii10077" unicode="&#xeb;" horiz-adv-x="407" 
d="M353 0h-100v406h-64l-1 -32c0 -8.66699 -0.333008 -21.5 -1 -38.5s-1.66699 -35.833 -3 -56.5s-3 -41.667 -5 -63s-4.33301 -40.333 -7 -57c-2 -10.667 -4.33301 -21.834 -7 -33.501s-6.16699 -23.167 -10.5 -34.5s-9.66602 -22.166 -15.999 -32.499
s-14.166 -19.5 -23.499 -27.5c-10.667 -8.66699 -23.834 -16 -39.501 -22s-33.167 -9 -52.5 -9h-23v84h12c10.667 0 20.5 3 29.5 9s16.167 13 21.5 21c6 8.66699 10.667 21.5 14 38.5s6.66602 44.167 9.99902 81.5c0.666992 8 1.5 19.833 2.5 35.5s1.83301 31.667 2.5 48
l2 47c0.666992 15 1 26.167 1 33.5l2 98h256v-496z" />
    <glyph glyph-name="afii10078" unicode="&#xec;" horiz-adv-x="506" 
d="M252 219h2l106 277h92v-496h-94v282l-84 -211h-42l-84 211v-282h-94v496h92z" />
    <glyph glyph-name="afii10079" unicode="&#xed;" 
d="M54 496h100v-200h102v200h100v-496h-100v206h-102v-206h-100v496z" />
    <glyph glyph-name="afii10080" unicode="&#xee;" horiz-adv-x="392" 
d="M45 336c0 10 0.333008 20.667 1 32s2.66699 22.833 6 34.5s8.33301 23.167 15 34.5s15.667 22 27 32c13.333 11.333 29 20 47 26s36.333 9 55 9s37 -3 55 -9s33.667 -14.667 47 -26c11.333 -10 20.333 -20.667 27 -32s11.667 -22.833 15 -34.5s5.33301 -23.167 6 -34.5
s1 -22 1 -32v-176c0 -10 -0.333008 -20.667 -1 -32s-2.66699 -22.833 -6 -34.5s-8.33301 -23.167 -15 -34.5s-15.667 -22 -27 -32c-13.333 -11.333 -29 -20 -47 -26s-36.333 -9 -55 -9s-37 3 -55 9s-33.667 14.667 -47 26c-11.333 10 -20.333 20.667 -27 32
s-11.667 22.833 -15 34.5s-5.33301 23.167 -6 34.5s-1 22 -1 32v176zM247 342c0 22 -4.99902 38.667 -14.999 50c-9.33301 9.33301 -21.333 14 -36 14s-26.667 -4.66699 -36 -14c-10 -11.333 -15 -28 -15 -50v-188c0 -22 5 -38.667 15 -50
c9.33301 -9.33301 21.333 -14 36 -14c7.33301 0 14.166 1.33301 20.499 4s11.5 6 15.5 10c10 11.333 15 28 15 50v188z" />
    <glyph glyph-name="afii10081" unicode="&#xef;" horiz-adv-x="404" 
d="M54 496h296v-496h-100v406h-96v-406h-100v496z" />
    <glyph glyph-name="afii10082" unicode="&#xf0;" 
d="M154 452l1 -0.000976562c4 6.66699 9 13 15 19s12.333 11.333 19 16c9.33301 6 19.333 10.333 30 13s21 4 31 4c12.667 0 23.667 -1.5 33 -4.5s17.333 -6.5 24 -10.5s12.167 -8.16699 16.5 -12.5s7.5 -7.83301 9.5 -10.5c11.333 -15.333 18 -32.333 20 -51s3 -36 3 -52
v-258c0 -12 -1.5 -25.667 -4.5 -41s-11.167 -29.666 -24.5 -42.999c-10 -10.667 -21.167 -18.167 -33.5 -22.5s-25.833 -6.5 -40.5 -6.5s-27 1.83301 -37 5.5s-19.667 8.16699 -29 13.5c-12.667 7.33301 -23.667 17 -33 29v-244h-100v700h100v-44zM154 155.999
c0 -8 0.833008 -16.333 2.5 -25s6.16699 -17 13.5 -25c3.33301 -3.33301 8.16602 -6.83301 14.499 -10.5s14.166 -5.5 23.499 -5.5c14 0 25.667 5 35 15c6 6.66699 9.66699 13.5 11 20.5s2 13.5 2 19.5v201c0 8.66699 -0.5 16.5 -1.5 23.5s-4.83301 14.167 -11.5 21.5
c-9.33301 10 -21 15 -35 15c-9.33301 0 -17.166 -1.83301 -23.499 -5.5s-11.166 -7.16699 -14.499 -10.5c-7.33301 -8 -11.833 -16.333 -13.5 -25s-2.5 -17 -2.5 -25v-184z" />
    <glyph glyph-name="afii10083" unicode="&#xf1;" horiz-adv-x="384" 
d="M254 346l-0.00683594 7.00195c0 13.333 -3.66699 24.666 -11 33.999c-3.33301 5.33301 -8.33301 9.83301 -15 13.5s-15 5.5 -25 5.5c-6 0 -12.5 -1 -19.5 -3s-13.5 -6.66699 -19.5 -14s-9.83301 -15 -11.5 -23s-2.5 -16.333 -2.5 -25v-192
c0 -7.33301 0.833008 -14.833 2.5 -22.5s4.83398 -14.167 9.50098 -19.5c2.66699 -3.33301 7.16699 -7 13.5 -11s15.5 -6 27.5 -6c7.33301 0 14.5 1 21.5 3s13.167 6.66699 18.5 14c4.66699 5.33301 7.66699 10.833 9 16.5s2 11.167 2 16.5v8h100v-9
c0 -14.667 -1.5 -28 -4.5 -40s-7 -22.5 -12 -31.5s-10.5 -17 -16.5 -24s-11.667 -12.833 -17 -17.5c-11.333 -9.33301 -25.166 -17.333 -41.499 -24s-35.833 -10 -58.5 -10s-44.167 3.66699 -64.5 11s-37.166 18 -50.499 32c-10 10 -17.667 20.5 -23 31.5
s-9.16602 22.167 -11.499 33.5s-3.66602 22.666 -3.99902 33.999s-0.5 22.333 -0.5 33v171c0 10 0.5 20.5 1.5 31.5s3 22.167 6 33.5s7.5 22.5 13.5 33.5s14.333 21.167 25 30.5s24.334 17.833 41.001 25.5s37.334 11.5 62.001 11.5c24 0 46 -3.83301 66 -11.5
s36.333 -18.167 49 -31.5c13.333 -14 23.333 -31.333 30 -52s10 -40.667 10 -60v-3h-100z" />
    <glyph glyph-name="afii10084" unicode="&#xf2;" horiz-adv-x="320" 
d="M210 406v-406h-100v406h-100v90h300v-90h-100z" />
    <glyph glyph-name="afii10085" unicode="&#xf3;" horiz-adv-x="372" 
d="M118 496l81.001 -307.998h4l62 308h100l-136 -563c-3.33301 -14.667 -8.16602 -32.334 -14.499 -53.001s-16.833 -38.334 -31.5 -53.001c-15.333 -14.667 -32 -23.5 -50 -26.5s-34.667 -4.5 -50 -4.5h-26l-2 93h19c7.33301 0 15.166 1.16699 23.499 3.5
s16.166 8.16602 23.499 17.499c2 2.66699 4.5 7.33398 7.5 14.001s6.5 18 10.5 34l16 65l-145 473h108z" />
    <glyph glyph-name="afii10086" unicode="&#xf4;" horiz-adv-x="554" 
d="M227 -204l-0.0078125 235.999c-4 -6 -8 -10.667 -12 -14s-8.66699 -6.66602 -14 -9.99902c-9.33301 -5.33301 -17.666 -9.33301 -24.999 -12s-17 -4 -29 -4c-10 0 -21.167 1.5 -33.5 4.5s-24.166 10.167 -35.499 21.5c-9.33301 9.33301 -17.166 21.333 -23.499 36
s-9.5 31.667 -9.5 51v258c0 17.333 1.16699 34.5 3.5 51.5s10.166 34.167 23.499 51.5c13.333 16.667 27.333 27.167 42 31.5s27.334 6.5 38.001 6.5c9.33301 0 17.833 -1.33301 25.5 -4s14.5 -5.66699 20.5 -9c5.33301 -3.33301 10.333 -7 15 -11
s9.33398 -9.33301 14.001 -16v236h100v-236c4.66699 6.66699 9.33398 12 14.001 16s9.66699 7.66699 15 11c6 3.33301 12.833 6.33301 20.5 9s16.167 4 25.5 4c10.667 0 23.334 -2.16699 38.001 -6.5s28.667 -14.833 42 -31.5c13.333 -17.333 21.166 -34.5 23.499 -51.5
s3.5 -34.167 3.5 -51.5v-258c0 -19.333 -3.16699 -36.333 -9.5 -51s-14.166 -26.667 -23.499 -36c-7.33301 -6.66699 -16.5 -12.667 -27.5 -18s-24.833 -8 -41.5 -8c-13.333 0 -27.666 3.33301 -42.999 10s-27.666 16.667 -36.999 30v-236h-100zM322.992 147.999
c0 -8.66699 0.666992 -17.002 2 -25.002s5.33301 -16 12 -24c5.33301 -6 11 -10.333 17 -13s12 -4 18 -4c12.667 0 23 4.33301 31 13c6 6.66699 9.66699 13.5 11 20.5s2 14.167 2 21.5v217c0 8 -0.666992 16 -2 24s-5 15.333 -11 22c-8 9.33301 -19 14 -33 14
c-8.66699 0 -15.667 -1.66699 -21 -5s-9.33301 -6.66602 -12 -9.99902c-6.66699 -7.33301 -10.667 -15.666 -12 -24.999s-2 -18 -2 -26v-200zM230.992 347.997c0 8 -0.666992 16.6689 -2 26.002s-5.33301 17.666 -12 24.999c-2.66699 3.33301 -6.66699 6.66602 -12 9.99902
s-12.333 5 -21 5c-14 0 -25 -4.66699 -33 -14c-6 -6.66699 -9.66699 -14 -11 -22s-2 -16 -2 -24v-217c0 -7.33301 0.666992 -14.5 2 -21.5s5 -13.833 11 -20.5c8 -8.66699 18.333 -13 31 -13c6 0 12 1.33301 18 4s11.667 7 17 13c6.66699 8 10.667 16 12 24s2 16.333 2 25
v200z" />
    <glyph glyph-name="afii10087" unicode="&#xf5;" horiz-adv-x="358" 
d="M129 253l-116 243h105l62 -141l62 141h105l-118 -243l124 -253h-105l-68 152l-68 -152h-105z" />
    <glyph glyph-name="afii10088" unicode="&#xf6;" horiz-adv-x="428" 
d="M54 496h100v-406h102v406h100v-406h62v-190h-95v100h-269v496z" />
    <glyph glyph-name="afii10089" unicode="&#xf7;" horiz-adv-x="381" 
d="M227 200c-26.667 -12.667 -55.667 -19.001 -87 -19.001c-11.333 0 -24.666 1.5 -39.999 4.5s-29.333 10.833 -42 23.5c-13.333 13.333 -21.333 27.5 -24 42.5s-4 29.167 -4 42.5v202h100v-177c0 -5.33301 0.666992 -11.333 2 -18s4.66602 -12.667 9.99902 -18
s11.333 -8.66602 18 -9.99902s12.667 -2 18 -2c11.333 0 21 1 29 3s14.667 4.66699 20 8v214h100v-496h-100v200z" />
    <glyph glyph-name="afii10090" unicode="&#xf8;" horiz-adv-x="598" 
d="M154 496v-406h95v406h100v-406h95v406h100v-496h-490v496h100z" />
    <glyph glyph-name="afii10091" unicode="&#xf9;" horiz-adv-x="606" 
d="M154 496v-406h95v406h100v-406h95v406h100v-406h62v-190h-95v100h-457v496h100z" />
    <glyph glyph-name="afii10092" unicode="&#xfa;" horiz-adv-x="435" 
d="M252 312c18.667 0 37.333 -1.66797 56 -5.00098s36 -12.333 52 -27c9.33301 -8 18.333 -19.667 27 -35s13 -34.666 13 -57.999v-56c0 -6 -0.333008 -12.833 -1 -20.5s-2.33398 -16 -5.00098 -25s-6.66699 -18.167 -12 -27.5s-12.666 -18 -21.999 -26
c-16.667 -14.667 -34.167 -23.667 -52.5 -27s-36.833 -5 -55.5 -5h-152v398h-105v98h205v-184h52zM199.999 89.999l45.998 0.000976562c6.66699 0 14 1 22 3s15 6.66699 21 14c5.33301 5.33301 8.5 11.166 9.5 17.499s1.5 12.166 1.5 17.499v28
c0 5.33301 -0.666992 11.5 -2 18.5s-4.66602 13.167 -9.99902 18.5c-6 6.66699 -12.667 10.834 -20 12.501s-14.666 2.5 -21.999 2.5h-46v-132z" />
    <glyph glyph-name="afii10093" unicode="&#xfb;" horiz-adv-x="569" 
d="M154 496l-0.000976562 -184.001h52c18.667 0 37.334 -1.66699 56.001 -5s36 -12.333 52 -27c9.33301 -8 18.333 -19.667 27 -35s13 -34.666 13 -57.999v-56c0 -6 -0.333008 -12.833 -1 -20.5s-2.33398 -16 -5.00098 -25s-6.66699 -18.167 -12 -27.5
s-12.666 -18 -21.999 -26c-16.667 -14.667 -34.167 -23.667 -52.5 -27s-36.833 -5 -55.5 -5h-152v496h100zM153.999 89.999l45.998 0.000976562c6.66699 0 14 1 22 3s15 6.66699 21 14c5.33301 5.33301 8.5 11.166 9.5 17.499s1.5 12.166 1.5 17.499v28
c0 5.33301 -0.666992 11.5 -2 18.5s-4.66602 13.167 -9.99902 18.5c-6 6.66699 -12.667 10.834 -20 12.501s-14.666 2.5 -21.999 2.5h-46v-132zM414.997 496h100v-496h-100v496z" />
    <glyph glyph-name="afii10094" unicode="&#xfc;" horiz-adv-x="384" 
d="M154 496l-0.000976562 -184.001h52c18.667 0 37.334 -1.66699 56.001 -5s36 -12.333 52 -27c9.33301 -8 18.333 -19.667 27 -35s13 -34.666 13 -57.999v-56c0 -6 -0.333008 -12.833 -1 -20.5s-2.33398 -16 -5.00098 -25s-6.66699 -18.167 -12 -27.5
s-12.666 -18 -21.999 -26c-16.667 -14.667 -34.167 -23.667 -52.5 -27s-36.833 -5 -55.5 -5h-152v496h100zM153.999 89.999l45.998 0.000976562c6.66699 0 14 1 22 3s15 6.66699 21 14c5.33301 5.33301 8.5 11.166 9.5 17.499s1.5 12.166 1.5 17.499v28
c0 5.33301 -0.666992 11.5 -2 18.5s-4.66602 13.167 -9.99902 18.5c-6 6.66699 -12.667 10.834 -20 12.501s-14.666 2.5 -21.999 2.5h-46v-132z" />
    <glyph glyph-name="afii10095" unicode="&#xfd;" horiz-adv-x="379" 
d="M30 349c0 19.333 3.32617 39.333 9.99316 60s16.667 38 30 52c12.667 13.333 29 23.833 49 31.5s42 11.5 66 11.5c24.667 0 45.334 -3.83301 62.001 -11.5s30.334 -16.167 41.001 -25.5s19 -19.5 25 -30.5s10.5 -22.167 13.5 -33.5s5 -22.5 6 -33.5s1.5 -21.5 1.5 -31.5
v-171c0 -10.667 -0.166992 -21.667 -0.5 -33s-1.66602 -22.666 -3.99902 -33.999s-6.16602 -22.5 -11.499 -33.5s-13 -21.5 -23 -31.5c-13.333 -14 -30.166 -24.667 -50.499 -32s-41.833 -11 -64.5 -11s-42.167 3.33301 -58.5 10s-30.166 14.667 -41.499 24
s-22.5 23.166 -33.5 41.499s-16.5 42.166 -16.5 71.499v9h100v-8c0 -5.33301 1 -11.166 3 -17.499s4.66699 -11.5 8 -15.5c6 -7.33301 12.833 -12 20.5 -14s14.167 -3 19.5 -3c12 0 21.167 2 27.5 6s10.833 7.66699 13.5 11c4.66699 5.33301 7.83398 11.833 9.50098 19.5
s2.5 15.167 2.5 22.5v57h-98v90h98v45c0 8.66699 -0.833008 17 -2.5 25s-5.5 15.667 -11.5 23s-12.5 12 -19.5 14s-13.5 3 -19.5 3c-10 0 -18.333 -1.83301 -25 -5.5s-11.667 -8.16699 -15 -13.5c-3.33301 -4.66699 -6 -10 -8 -16s-3 -11.667 -3 -17v-8h-100v3z" />
    <glyph glyph-name="afii10096" unicode="&#xfe;" horiz-adv-x="563" 
d="M216 206h-62v-206h-100v496h100v-200h62v40c0 10 0.333008 20.667 1 32s2.66699 22.833 6 34.5s8.33301 23.167 15 34.5s15.667 22 27 32c13.333 11.333 29 20 47 26s36.333 9 55 9s37 -3 55 -9s33.667 -14.667 47 -26c11.333 -10 20.333 -20.667 27 -32
s11.667 -22.833 15 -34.5s5.33301 -23.167 6 -34.5s1 -22 1 -32v-176c0 -10 -0.333008 -20.667 -1 -32s-2.66699 -22.833 -6 -34.5s-8.33301 -23.167 -15 -34.5s-15.667 -22 -27 -32c-13.333 -11.333 -29 -20 -47 -26s-36.333 -9 -55 -9s-37 3 -55 9s-33.667 14.667 -47 26
c-11.333 10 -20.333 20.667 -27 32s-11.667 22.833 -15 34.5s-5.33301 23.167 -6 34.5s-1 22 -1 32v46zM418 342c0 22 -5 38.667 -15 50c-4 4 -9.16699 7.33301 -15.5 10s-13.166 4 -20.499 4c-14.667 0 -26.667 -4.66699 -36 -14c-10 -11.333 -15 -28 -15 -50v-188
c0 -22 5 -38.667 15 -50c9.33301 -9.33301 21.333 -14 36 -14c7.33301 0 14.166 1.33301 20.499 4s11.5 6 15.5 10c10 11.333 15 28 15 50v188z" />
    <glyph glyph-name="afii10097" unicode="&#xff;" horiz-adv-x="399" 
d="M245 0l-0.000976562 204.001h-44l-68 -204h-108l81 219c-15.333 8 -28.333 18.667 -39 32c-7.33301 9.33301 -12.833 21.333 -16.5 36s-5.5 28.667 -5.5 42v42c0 23.333 4.33301 42.666 13 57.999s17.667 27 27 35c16 14.667 33.333 23.667 52 27s37.334 5 56.001 5h152
v-496h-100zM244.999 416.001l-45.9971 0.00390625c-6.66699 0 -13.167 -0.833008 -19.5 -2.5s-12.833 -5.83398 -19.5 -12.501s-10.834 -13.334 -12.501 -20.001s-2.5 -14.334 -2.5 -23.001v-22c0 -5.33301 0.666992 -11.5 2 -18.5s4.66602 -13.167 9.99902 -18.5
c6 -6.66699 12.667 -10.834 20 -12.501s14.666 -2.5 21.999 -2.5h46v132z" />
    <glyph glyph-name="afii10059" unicode="&#x152;" horiz-adv-x="666" 
d="M444 408c10 0 20.6699 -0.169922 32.0029 -0.50293s23 -1.66602 35 -3.99902s24.167 -6.16602 36.5 -11.499s24.166 -13.333 35.499 -24c10.667 -10 19 -20.5 25 -31.5s10.333 -21.667 13 -32s4.16699 -20 4.5 -29s0.5 -16.833 0.5 -23.5v-73
c0 -17.333 -1.5 -35.5 -4.5 -54.5s-11.167 -38.5 -24.5 -58.5c-4.66699 -7.33301 -10.834 -14.833 -18.501 -22.5s-17.334 -14.667 -29.001 -21s-26 -11.666 -43 -15.999s-36.833 -6.5 -59.5 -6.5h-152v318h-135v-318h-100v700h100v-292h135v292h100v-292h49z
M395.003 89.9971l44.998 0.00195312c7.33301 0 17.833 1.5 31.5 4.5s25.834 11.833 36.501 26.5c6.66699 9.33301 11.334 20.833 14.001 34.5s4 26.5 4 38.5v29c0 17.333 -1.66699 32.166 -5 44.499s-10.666 23.166 -21.999 32.499c-14.667 12 -32.334 18 -53.001 18h-51
v-228z" />
    <glyph glyph-name="afii10107" unicode="&#x153;" horiz-adv-x="591" 
d="M356 496v-197.002h52c18.667 0 37.334 -1.66699 56.001 -5s36 -12.333 52 -27c9.33301 -8 18.333 -19.667 27 -35s13 -34.666 13 -57.999v-49c0 -23.333 -4.33301 -42.666 -13 -57.999s-17.667 -27 -27 -35c-16 -14.667 -33.333 -23.667 -52 -27s-37.334 -5 -56.001 -5
h-152v209h-102v-209h-100v496h100v-197h102v197h100zM356 89.998l45.998 0.000976562c6.66699 0 14 1 22 3s15 6.66699 21 14c5.33301 5.33301 8.5 11.166 9.5 17.499s1.5 12.166 1.5 17.499v15c0 5.33301 -0.666992 11.5 -2 18.5s-4.66602 13.167 -9.99902 18.5
c-6 6.66699 -12.667 10.834 -20 12.501s-14.666 2.5 -21.999 2.5h-46v-119z" />
    <glyph glyph-name="afii10058" unicode="&#x160;" horiz-adv-x="656" 
d="M439 417c10 0 20.6689 -0.169922 32.002 -0.50293s23 -1.66602 35 -3.99902s24.167 -6.16602 36.5 -11.499s24.166 -13.333 35.499 -24c10.667 -10 19 -20.5 25 -31.5s10.333 -21.667 13 -32s4.16699 -20 4.5 -29s0.5 -16.833 0.5 -23.5v-82
c0 -17.333 -1.5 -35.5 -4.5 -54.5s-11.167 -38.5 -24.5 -58.5c-4.66699 -7.33301 -10.834 -14.833 -18.501 -22.5s-17.334 -14.667 -29.001 -21s-26 -11.666 -43 -15.999s-36.833 -6.5 -59.5 -6.5h-152v610h-80l-3 -98c-0.666992 -17.333 -1.16699 -34.166 -1.5 -50.499
s-0.666016 -33.666 -0.999023 -51.999s-1 -38.5 -2 -60.5s-2.5 -47 -4.5 -75c-3.33301 -49.333 -8.83301 -91.666 -16.5 -126.999s-20.167 -65 -37.5 -89c-10.667 -14.667 -21.667 -25.834 -33 -33.501s-22.666 -13.334 -33.999 -17.001s-22 -5.83398 -32 -6.50098
s-19 -1 -27 -1h-23v95h11c5.33301 0 11.333 0.5 18 1.5s13.667 3.83301 21 8.5c16.667 10.667 28.334 26 35.001 46c6 17.333 11.167 41.833 15.5 73.5s7.66602 65.167 9.99902 100.5s4.16602 69.833 5.49902 103.5s2 61.5 2 83.5l3 188h274v-283h49zM390.002 89.9971
l44.999 0.000976562c6.66699 0 14.834 0.833008 24.501 2.5s19 6 28 13s16.833 17.333 23.5 31s10 32.834 10 57.501v38c0 17.333 -1.66699 32.166 -5 44.499s-10.666 23.166 -21.999 32.499c-14.667 12 -32.334 18 -53.001 18h-51v-237z" />
    <glyph glyph-name="afii10106" unicode="&#x161;" horiz-adv-x="595" 
d="M417 312c18.667 0 37.3301 -1.66797 55.9971 -5.00098s36 -12.333 52 -27c9.33301 -8 18.333 -19.667 27 -35s13 -34.666 13 -57.999v-56c0 -6 -0.333008 -12.833 -1 -20.5s-2.33398 -16 -5.00098 -25s-6.66699 -18.167 -12 -27.5s-12.666 -18 -21.999 -26
c-16.667 -14.667 -34.167 -23.667 -52.5 -27s-36.833 -5 -55.5 -5h-152v406h-64l-1 -32c-1.33301 -37.333 -2.66602 -68.833 -3.99902 -94.5s-2.66602 -46.667 -3.99902 -63s-2.5 -28.833 -3.5 -37.5s-1.83301 -15 -2.5 -19c-1.33301 -8 -3.16602 -17.333 -5.49902 -28
s-5.5 -21.5 -9.5 -32.5s-9 -22 -15 -33s-13.333 -20.833 -22 -29.5c-10.667 -10.667 -23.667 -19.5 -39 -26.5s-31 -10.5 -47 -10.5h-36v90h12c10.667 0 20.167 2.83301 28.5 8.5s15.166 12.167 20.499 19.5c6.66699 10 12 23.5 16 40.5s7.33301 42.167 10 75.5
c0.666992 8 1.5 19.667 2.5 35s1.83301 31.5 2.5 48.5s1.33398 32.833 2.00098 47.5s1 25.667 1 33l2 98h256v-184h52zM364.996 89.999l45.998 0.000976562c6.66699 0 14 1 22 3s15 6.66699 21 14c5.33301 5.33301 8.5 11.166 9.5 17.499s1.5 12.166 1.5 17.499v28
c0 5.33301 -0.666992 11.5 -2 18.5s-4.66602 13.167 -9.99902 18.5c-6 6.66699 -12.667 10.834 -20 12.501s-14.666 2.5 -21.999 2.5h-46v-132z" />
    <glyph glyph-name="afii10193" unicode="&#x178;" 
d="M356 0h-102v-100h-98v100h-102v496h100v-406h102v406h100v-496z" />
    <glyph glyph-name="afii10100" unicode="&#x192;" horiz-adv-x="306" 
d="M54 496h249v-98h-149v-398h-100v496zM118 578l44 122h107l-94 -122h-57z" />
    <glyph glyph-name="accent" unicode="&#x2c6;" horiz-adv-x="2" 
d="M-250 578l44 122h107l-94 -122h-57z" />
    <glyph glyph-name="Accent" unicode="&#x2dc;" horiz-adv-x="2" 
d="M-270 764l50 105h121l-106 -105h-65z" />
    <glyph glyph-name="endash" unicode="&#x2013;" horiz-adv-x="453" 
d="M393 342v-80h-333v80h333z" />
    <glyph glyph-name="emdash" unicode="&#x2014;" horiz-adv-x="641" 
d="M606 333v-62h-571v62h571z" />
    <glyph glyph-name="quoteleft" unicode="&#x2018;" horiz-adv-x="190" 
d="M35 521v105l105 110v-215h-105z" />
    <glyph glyph-name="quoteright" unicode="&#x2019;" horiz-adv-x="200" 
d="M140 700v-105l-105 -110v215h105z" />
    <glyph glyph-name="quotesinglbase" unicode="&#x201a;" horiz-adv-x="190" 
d="M155 105v-105l-105 -110v215h105z" />
    <glyph glyph-name="quotedblleft" unicode="&#x201c;" horiz-adv-x="369" 
d="M214 521v105l105 110v-215h-105zM35 521v105l105 110v-215h-105z" />
    <glyph glyph-name="quotedblright" unicode="&#x201d;" horiz-adv-x="379" 
d="M140 700v-105l-105 -110v215h105zM319 700v-105l-105 -110v215h105z" />
    <glyph glyph-name="quotedblbase" unicode="&#x201e;" horiz-adv-x="369" 
d="M155 105v-105l-105 -110v215h105zM334 105v-105l-105 -110v215h105z" />
    <glyph glyph-name="dagger" unicode="&#x2020;" horiz-adv-x="380" 
d="M240 700v-199h105v-90h-105v-411h-100v411h-105v90h105v199h100z" />
    <glyph glyph-name="daggerdbl" unicode="&#x2021;" horiz-adv-x="380" 
d="M240 700v-199h105v-90h-105v-122h105v-90h-105v-199h-100v199h-105v90h105v122h-105v90h105v199h100z" />
    <glyph glyph-name="bullet" unicode="&#x2022;" horiz-adv-x="440" 
d="M100 350c0 16.667 3.16699 32.167 9.5 46.5s15 27 26 38s23.667 19.667 38 26s29.833 9.5 46.5 9.5s32.167 -3.16699 46.5 -9.5s27 -15 38 -26s19.667 -23.667 26 -38s9.5 -29.833 9.5 -46.5s-3.16699 -32.167 -9.5 -46.5s-15 -27 -26 -38s-23.667 -19.667 -38 -26
s-29.833 -9.5 -46.5 -9.5s-32.167 3.16699 -46.5 9.5s-27 15 -38 26s-19.667 23.667 -26 38s-9.5 29.833 -9.5 46.5z" />
    <glyph glyph-name="ellipsis" unicode="&#x2026;" horiz-adv-x="520" 
d="M135 100v-100h-100v100h100zM315 100v-100h-100v100h100zM485 100v-100h-100v100h100z" />
    <glyph glyph-name="perthousand" unicode="&#x2030;" horiz-adv-x="889" 
d="M257 441c0 -15.333 -2 -29.666 -6 -42.999s-12 -25.666 -24 -36.999c-11.333 -10.667 -23.666 -17.667 -36.999 -21s-26.333 -5 -39 -5s-25.667 1.66699 -39 5s-25.666 10.333 -36.999 21c-12 11.333 -20 23.666 -24 36.999s-6 27.666 -6 42.999v153
c0 15.333 2 29.666 6 42.999s12 25.666 24 36.999c11.333 10.667 23.666 17.667 36.999 21s26.333 5 39 5s25.667 -1.66699 39 -5s25.666 -10.333 36.999 -21c12 -11.333 20 -23.666 24 -36.999s6 -27.666 6 -42.999v-153zM123 440
c0 -2.66699 0.166992 -6.33398 0.5 -11.001s2.16602 -8.66699 5.49902 -12c6 -6 13.333 -9 22 -9s16 3 22 9c3.33301 3.33301 5.16602 7.33301 5.49902 12s0.5 8.33398 0.5 11.001v155c0 2.66699 -0.166992 6.33398 -0.5 11.001s-2.16602 8.66699 -5.49902 12
c-6 6 -13.333 9 -22 9s-16 -3 -22 -9c-3.33301 -3.33301 -5.16602 -7.33301 -5.49902 -12s-0.5 -8.33398 -0.5 -11.001v-155zM581 106c0 -15.333 -2 -29.666 -6 -42.999s-12 -25.666 -24 -36.999c-11.333 -10.667 -23.666 -17.667 -36.999 -21s-26.333 -5 -39 -5
s-25.667 1.66699 -39 5s-25.666 10.333 -36.999 21c-12 11.333 -20 23.666 -24 36.999s-6 27.666 -6 42.999v153c0 15.333 2 29.666 6 42.999s12 25.666 24 36.999c11.333 10.667 23.666 17.667 36.999 21s26.333 5 39 5s25.667 -1.66699 39 -5s25.666 -10.333 36.999 -21
c12 -11.333 20 -23.666 24 -36.999s6 -27.666 6 -42.999v-153zM447 105c0 -2.66699 0.166992 -6.33398 0.5 -11.001s2.16602 -8.66699 5.49902 -12c6 -6 13.333 -9 22 -9s16 3 22 9c3.33301 3.33301 5.16602 7.33301 5.49902 12s0.5 8.33398 0.5 11.001v155
c0 2.66699 -0.166992 6.33398 -0.5 11.001s-2.16602 8.66699 -5.49902 12c-6 6 -13.333 9 -22 9s-16 -3 -22 -9c-3.33301 -3.33301 -5.16602 -7.33301 -5.49902 -12s-0.5 -8.33398 -0.5 -11.001v-155zM844 106c0 -15.333 -2 -29.666 -6 -42.999s-12 -25.666 -24 -36.999
c-11.333 -10.667 -23.666 -17.667 -36.999 -21s-26.333 -5 -39 -5s-25.667 1.66699 -39 5s-25.666 10.333 -36.999 21c-12 11.333 -20 23.666 -24 36.999s-6 27.666 -6 42.999v153c0 15.333 2 29.666 6 42.999s12 25.666 24 36.999c11.333 10.667 23.666 17.667 36.999 21
s26.333 5 39 5s25.667 -1.66699 39 -5s25.666 -10.333 36.999 -21c12 -11.333 20 -23.666 24 -36.999s6 -27.666 6 -42.999v-153zM710 105c0 -2.66699 0.166992 -6.33398 0.5 -11.001s2.16602 -8.66699 5.49902 -12c6 -6 13.333 -9 22 -9s16 3 22 9
c3.33301 3.33301 5.16602 7.33301 5.49902 12s0.5 8.33398 0.5 11.001v155c0 2.66699 -0.166992 6.33398 -0.5 11.001s-2.16602 8.66699 -5.49902 12c-6 6 -13.333 9 -22 9s-16 -3 -22 -9c-3.33301 -3.33301 -5.16602 -7.33301 -5.49902 -12s-0.5 -8.33398 -0.5 -11.001
v-155zM493 700l-288 -700h-76l288 700h76z" />
    <glyph glyph-name="guilsinglleft" unicode="&#x2039;" horiz-adv-x="263" 
d="M238 377l-101 -100l101 -100v-102l-203 202l203 202v-102z" />
    <glyph glyph-name="guilsinglright" unicode="&#x203a;" horiz-adv-x="263" 
d="M228 277l-203 -202v102l101 100l-101 100v102z" />
    <glyph glyph-name="afii10051" unicode="&#x20ac;" horiz-adv-x="509" 
d="M140 0l-0.00195312 605.999h-120v94h348v-94h-128v-182h58c8.66699 0 18.5 -0.333008 29.5 -1s22.167 -2.5 33.5 -5.5s22.5 -7.33301 33.5 -13s21.167 -13.5 30.5 -23.5c16.667 -18 27.334 -38.667 32.001 -62s7 -44 7 -62v-49c0 -28 -1.16699 -55.667 -3.5 -83
s-10.166 -51 -23.499 -71c-8.66699 -12.667 -18.334 -22.667 -29.001 -30s-21.167 -12.666 -31.5 -15.999s-20.166 -5.5 -29.499 -6.5s-16.666 -1.5 -21.999 -1.5h-30v100h21c10.667 0 19 2.83301 25 8.5s10 10.5 12 14.5c6 10.667 9.33301 22.834 10 36.501s1 25.5 1 35.5
v40c0 10.667 -0.833008 24.167 -2.5 40.5s-7.83398 29.833 -18.501 40.5c-10 9.33301 -22.167 14.666 -36.5 15.999s-27.833 2 -40.5 2h-26v-334h-100z" />
    <glyph glyph-name="trademark" unicode="&#x2122;" horiz-adv-x="729" 
d="M203 624v-273h-88v273h-80v76h248v-76h-80zM336 700h81l83 -194l83 194h81v-349h-83v183l-56 -135h-50l-56 135v-183h-83v349z" />
    <glyph glyph-name=".null" horiz-adv-x="0" 
 />
    <glyph glyph-name="nonmarkingreturn" horiz-adv-x="233" 
 />
    <glyph glyph-name="acute" horiz-adv-x="241" 
d="M70 578l44 122h107l-94 -122h-57z" />
    <glyph glyph-name="dieresis" horiz-adv-x="360" 
d="M149 588h-95v95h95v-95zM211 683h95v-95h-95v95z" />
    <glyph glyph-name="dotaccent" horiz-adv-x="208" 
d="M154 686v-98h-100v98h100z" />
    <glyph glyph-name="cyrbreve" horiz-adv-x="336" 
d="M282 681c0 -13.333 -1.66699 -27.833 -5 -43.5s-11.666 -30.167 -24.999 -43.5c-12.667 -12.667 -26.834 -20.5 -42.501 -23.5s-29.5 -4.5 -41.5 -4.5s-25.833 1.5 -41.5 4.5s-29.834 10.833 -42.501 23.5c-13.333 13.333 -21.666 27.833 -24.999 43.5s-5 30.167 -5 43.5
v13h74v-15c0 -3.33301 0.333008 -7.16602 1 -11.499s1.66699 -7.83301 3 -10.5c1.33301 -4 4.83301 -8.33301 10.5 -13s14.167 -7 25.5 -7s19.833 2.33301 25.5 7s9.16699 9 10.5 13c1.33301 2.66699 2.33301 6.16699 3 10.5s1 8.16602 1 11.499v15h74v-13z" />
    <glyph glyph-name="Acute" horiz-adv-x="261" 
d="M70 764l50 105h121l-106 -105h-65z" />
    <glyph glyph-name="Dieresis" horiz-adv-x="360" 
d="M149 764h-95v100h95v-100zM211 864h95v-100h-95v100z" />
    <glyph glyph-name="cyrBreve" horiz-adv-x="364" 
d="M304 856c0 -20 -3.16699 -36.5 -9.5 -49.5s-13.166 -23.167 -20.499 -30.5c-10 -9.33301 -23 -16.333 -39 -21s-33.667 -7 -53 -7s-37 2.33301 -53 7s-29 11.667 -39 21c-7.33301 7.33301 -14.166 17.5 -20.499 30.5s-9.5 29.5 -9.5 49.5v12h80v-9
c0 -4 0.666992 -8.5 2 -13.5s4.66602 -9.83301 9.99902 -14.5c4.66699 -4 9.5 -6.5 14.5 -7.5s10.167 -1.5 15.5 -1.5s10.5 0.5 15.5 1.5s9.83301 3.5 14.5 7.5c5.33301 4.66699 8.66602 9.5 9.99902 14.5s2 9.5 2 13.5v9h80v-12z" />
    <glyph glyph-name="dotlessi" horiz-adv-x="208" 
d="M54 496h100v-496h-100v496z" />
    </font>
</defs>
</svg>
